<?xml version="1.0" encoding="utf-8"?>
<!-- Generator: Adobe Illustrator 25.0.0, SVG Export Plug-In . SVG Version: 6.00 Build 0)  -->
<svg version="1.1" id="Camada_1" xmlns="http://www.w3.org/2000/svg" xmlns:xlink="http://www.w3.org/1999/xlink" x="0px" y="0px"
	 viewBox="0 0 246.71 246.71" style="enable-background:new 0 0 246.71 246.71;" xml:space="preserve">
<style type="text/css">
	.st0{fill:url(#SVGID_1_);}
	.st1{fill:url(#SVGID_2_);}
	.st2{fill:url(#SVGID_3_);}
	.st3{fill:url(#SVGID_4_);}
	.st4{fill:url(#SVGID_5_);}
	.st5{fill:url(#SVGID_6_);}
	.st6{fill:#123F69;}
	.st7{fill:#186198;}
	.st8{fill:url(#SVGID_7_);}
	.st9{fill:url(#SVGID_8_);}
	.st10{fill:url(#SVGID_9_);}
	.st11{fill:url(#SVGID_10_);}
	.st12{fill:url(#SVGID_11_);}
	.st13{fill:url(#SVGID_12_);}
	.st14{fill:url(#SVGID_13_);}
	.st15{fill:url(#SVGID_14_);}
	.st16{fill:url(#SVGID_15_);}
	.st17{fill:url(#SVGID_16_);}
	.st18{fill:url(#SVGID_17_);}
	.st19{fill:url(#SVGID_18_);}
	.st20{fill-rule:evenodd;clip-rule:evenodd;fill:url(#path22_1_);}
	.st21{fill:url(#SVGID_19_);}
	.st22{fill:url(#SVGID_20_);}
	.st23{fill:url(#SVGID_21_);}
	.st24{fill:url(#SVGID_22_);}
	.st25{fill:url(#SVGID_23_);}
	.st26{fill:url(#SVGID_24_);}
	.st27{fill:url(#SVGID_25_);}
	.st28{fill:url(#SVGID_26_);}
	.st29{fill:url(#SVGID_27_);}
</style>
<g>
	<g>
		<linearGradient id="SVGID_1_" gradientUnits="userSpaceOnUse" x1="295.1443" y1="132.9175" x2="295.6604" y2="132.9175">
			<stop  offset="0" style="stop-color:#FFFFFF"/>
			<stop  offset="1" style="stop-color:#000000"/>
		</linearGradient>
		<path class="st0" d="M455.12,255.28c-55.3,0-110.59,0-165.89,0c-0.2-0.12-0.39-0.31-0.61-0.34
			c-11.09-1.34-22.45-11.62-22.41-27.33c0.16-63.25,0.06-126.5,0.07-189.74c0-15.91,11.35-27.29,27.21-27.3
			c52.74-0.02,105.49-0.01,158.23,0c1.11,0,2.24,0.01,3.33,0.2c7.42,1.34,12.01,7.16,12.01,15.22c0.01,63.65,0,127.29,0,190.94
			c0,7.97,0.04,15.93-0.02,23.9c-0.05,6.72-4.18,12.08-10.62,13.96C455.99,254.92,455.56,255.12,455.12,255.28z M297.36,202.7
			c1.12,0,1.91,0,2.69,0c50.36,0,100.71,0,151.07,0c4.88,0,6.39-1.53,6.39-6.45c0-56.56,0-113.12,0-169.68
			c0-4.94-1.5-6.45-6.39-6.45c-50.36,0-100.71,0-151.07,0c-0.85,0-1.69,0-2.7,0c0,1.16,0,2.02,0,2.89c0,21.59,0,43.18,0,64.77
			c0,0.72,0.03,1.44-0.02,2.15c-0.18,2.74-2.16,4.72-4.72,4.74c-2.57,0.02-4.6-1.94-4.8-4.66c-0.05-0.71-0.02-1.43-0.02-2.15
			c0-21.35,0-42.7,0-64.05c0-0.9,0-1.8,0-2.77c-7.18,1.86-11.94,8.48-11.95,16.32c-0.01,56.32-0.01,112.64,0,168.96
			c0,0.66,0.09,1.32,0.12,1.67c3.95-1.81,7.81-3.58,11.83-5.42c0-0.62,0-1.49,0-2.36c0-21.75,0-43.5,0-65.24
			c0-0.72-0.03-1.44,0.02-2.15c0.2-2.72,2.23-4.67,4.8-4.65c2.57,0.02,4.54,1.99,4.72,4.74c0.05,0.71,0.02,1.43,0.02,2.15
			c0,21.51,0,43.02,0,64.53C297.36,200.52,297.36,201.46,297.36,202.7z M438.29,212.26c-0.98,0-1.77,0-2.55,0
			c-47.3,0-94.61,0-141.91,0c-0.72,0-1.43-0.01-2.15,0.03c-8.57,0.42-15.61,7.62-15.81,16.17c-0.23,9.65,7.24,17.24,17.14,17.25
			c47.78,0.03,95.56,0.01,143.34,0.01c0.61,0,1.23-0.05,1.94-0.09C438.29,234.51,438.29,223.55,438.29,212.26z M457.52,211.86
			c-3.28,0.2-6.34,0.39-9.41,0.58c0,11.12,0,22.13,0,33.28c1.17,0,2.19,0,3.22,0c4.59-0.01,6.19-1.59,6.19-6.16
			c0.01-5.88,0-11.77,0-17.65C457.52,218.51,457.52,215.11,457.52,211.86z"/>
		<path d="M319.13,103.77c-4.16-6.92-5.16-14.1-2.47-21.64c1.54-4.3,4.19-7.82,7.7-10.75c0.62-0.52,1.23-1.53,1.19-2.28
			c-0.59-12.35,9.87-21.81,21.02-20.85c0.23,0.02,0.47-0.04,0.7-0.07c4.82-13.36,20.2-16.79,30.19-7.24
			c10.39-9.92,25.71-5.5,30,7.12c2.04,0.18,4.13,0.16,6.12,0.58c9.37,1.97,15.79,10,15.67,19.56c-0.02,1.56,0.35,2.56,1.62,3.6
			c8.93,7.3,11.37,19.85,5.96,30.03c-0.33,0.63-0.68,1.24-1.24,2.25c0.53,0.39,1.15,0.75,1.66,1.23
			c12.73,12.11,11.08,32.61-3.45,42.49c-1.15,0.78-1.67,1.57-1.79,3.01c-0.82,10.42-6.09,17.66-15.78,21.68
			c-0.72,0.3-1.52,0.93-1.82,1.61c-6.4,14.54-25.63,17.93-36.42,5.68c-0.15-0.17-0.37-0.28-0.63-0.47
			c-3.66,4.14-8.1,6.86-13.63,7.68c-9.58,1.42-18.67-3.46-22.98-12.29c-0.46-0.94-1.42-1.89-2.38-2.3
			c-9.55-4.11-14.66-11.32-15.6-21.63c-0.08-0.88-0.53-2.04-1.2-2.52c-15.53-11.14-16.91-30.62-3.03-43.78
			C318.72,104.33,318.85,104.12,319.13,103.77z M351.66,173.75c2.97,3.16,6.78,4.5,10.64,3.82c6.5-1.14,10.33-5.95,10.34-13.13
			c0.02-26.84,0.01-53.68,0-80.52c0-0.77-0.08-1.54-0.11-1.99c-2.98-0.22-5.76-0.21-8.45-0.7c-2.55-0.46-4-3.06-3.5-5.43
			c0.53-2.49,2.67-3.93,5.29-3.83c1.79,0.07,3.61-0.07,5.37-0.39c0.54-0.1,1.32-1.08,1.32-1.66c0.04-6.05,0.15-12.11-0.18-18.14
			c-0.19-3.55-3.42-6.24-7.09-6.68c-3.37-0.41-7,1.66-8.2,4.91c-0.26,0.69,0.11,1.89,0.6,2.54c1.24,1.64,2.87,2.99,4.06,4.65
			c1.9,2.68,1.44,5.56-0.89,7.15c-2.29,1.57-5.11,0.88-6.97-1.82c-2.63-3.82-6.23-5.35-10.74-4.55c-3.91,0.69-7.14,4-7.82,8.08
			c-0.73,4.44,0.96,7.91,4.66,10.47c2.7,1.86,3.34,4.66,1.72,6.98c-1.63,2.35-4.4,2.75-7.14,0.81c-1.85-1.31-3.49-2.91-5.21-4.37
			c-4.76,4.32-5.96,11.21-3.05,17.05c0.75,1.5,1.47,2.38,3.45,1.84c2.29-0.62,4.57,0.9,5.28,3.04c0.77,2.32-0.23,4.73-2.47,5.83
			c-0.71,0.35-1.49,0.55-2.23,0.82c-7.26,2.65-12.01,9.6-11.71,17.15c0.31,7.88,5.32,14.65,12.85,16.49
			c2.91,0.71,6.13,0.44,9.18,0.22c2.98-0.21,5,0.5,5.95,2.78c1.15,2.77-0.25,5.76-3.42,6.4c-3.38,0.69-6.86,0.86-10.3,1.26
			c1.06,7.45,8.72,12.63,16.78,11.25c3.92-0.67,6.27,0.4,6.96,3.16c0.72,2.91-0.7,4.89-4.43,6.16
			C352.05,173.46,351.93,173.58,351.66,173.75z M425.53,80.07c-2.08,1.65-4.02,3.42-6.19,4.83c-1.95,1.27-4.02,0.86-5.66-0.8
			c-1.56-1.59-1.91-3.56-0.79-5.47c0.61-1.04,1.74-1.8,2.71-2.59c3.17-2.57,4.67-5.86,3.95-9.89c-0.74-4.11-3.26-6.84-7.29-8.03
			c-4.29-1.26-8.31,0.39-11.35,4.55c-1.84,2.52-4.57,3.21-6.83,1.73c-2.38-1.56-2.89-4.45-1.01-7.12c1.18-1.68,2.58-3.25,4.12-4.6
			c1.07-0.93,1.17-1.65,0.62-2.84c-1.65-3.52-5.54-5.45-9.3-4.51c-4.14,1.02-6.27,4.1-6.27,9.19c-0.01,24.05,0,48.09,0,72.14
			c0,0.76,0,1.52,0,2.59c1.1-0.46,1.81-0.78,2.53-1.07c3.95-1.6,8-2,12.17-1.06c3.24,0.73,4.86,2.92,4.28,5.77
			c-0.57,2.8-2.93,3.9-6.23,3.65c-2.37-0.18-5.03-0.04-7.16,0.88c-3.64,1.57-5.76,4.5-5.63,8.85c0.2,7-0.05,14.02,0.28,21.01
			c0.22,4.72,4.08,8.78,8.68,10.01c4.57,1.22,9.37-0.23,11.99-3.64c-0.22-0.11-0.41-0.25-0.64-0.32c-3.52-1.16-4.94-3.18-4.25-6.04
			c0.64-2.67,2.94-3.72,6.46-3.34c2.18,0.24,4.47,0.35,6.6-0.06c5.66-1.09,10.47-6.43,10.58-11.12c-3.24-0.33-6.51-0.44-9.68-1.08
			c-1.38-0.28-2.84-1.43-3.73-2.6c-1.14-1.5-0.77-3.36,0.35-4.9c1.34-1.83,3.2-1.92,5.33-1.8c3.13,0.17,6.43,0.48,9.4-0.28
			c7.54-1.92,12.5-8.76,12.69-16.6c0.19-7.76-4.63-14.47-12.34-17.18c-3.46-1.22-4.88-3.31-4.16-6.16c0.65-2.56,2.73-3.59,6.24-3.25
			c0.58,0.06,1.43-0.22,1.78-0.65C431.81,93.28,430.55,84.01,425.53,80.07z"/>
		<path d="M292.39,116.17c-2.64-0.11-4.74-2.45-4.57-5.07c0.17-2.54,2.4-4.56,4.94-4.45c2.64,0.11,4.75,2.44,4.57,5.07
			C297.17,114.25,294.92,116.28,292.39,116.17z"/>
		<path d="M360.1,106.9c-0.6,8.41-6.06,15.72-13.9,18.02c-2.83,0.83-5.38-0.3-6.26-2.78c-0.91-2.57,0.27-5,2.99-6.16
			c6.77-2.89,8.47-7.04,5.7-13.9c-1.04-2.58-0.19-5.16,2.1-6.34c2.39-1.24,5.24-0.46,6.42,2.22
			C358.41,100.82,359.14,103.91,360.1,106.9z"/>
		<path d="M391.02,88.55c0.84-2.61,1.46-5.32,2.57-7.81c1.14-2.58,3.83-3.39,6.21-2.31c2.46,1.12,3.39,3.71,2.31,6.42
			c-2.12,5.32-0.83,8.52,4.29,10.69c2.75,1.16,3.99,3.56,3.14,6.08c-0.87,2.57-3.51,3.76-6.43,2.88
			C396.3,102.45,391.53,95.95,391.02,88.55z"/>
	</g>
	<g>
		<linearGradient id="SVGID_2_" gradientUnits="userSpaceOnUse" x1="266.2218" y1="132.9175" x2="467.0902" y2="132.9175">
			<stop  offset="0" style="stop-color:#123F69"/>
			<stop  offset="1" style="stop-color:#186198"/>
		</linearGradient>
		<path class="st1" d="M455.12,255.28c-55.3,0-110.59,0-165.89,0c-0.2-0.12-0.39-0.31-0.61-0.34
			c-11.09-1.34-22.45-11.62-22.41-27.33c0.16-63.25,0.06-126.5,0.07-189.74c0-15.91,11.35-27.29,27.21-27.3
			c52.74-0.02,105.49-0.01,158.23,0c1.11,0,2.24,0.01,3.33,0.2c7.42,1.34,12.01,7.16,12.01,15.22c0.01,63.65,0,127.29,0,190.94
			c0,7.97,0.04,15.93-0.02,23.9c-0.05,6.72-4.18,12.08-10.62,13.96C455.99,254.92,455.56,255.12,455.12,255.28z M297.36,202.7
			c1.12,0,1.91,0,2.69,0c50.36,0,100.71,0,151.07,0c4.88,0,6.39-1.53,6.39-6.45c0-56.56,0-113.12,0-169.68
			c0-4.94-1.5-6.45-6.39-6.45c-50.36,0-100.71,0-151.07,0c-0.85,0-1.69,0-2.7,0c0,1.16,0,2.02,0,2.89c0,21.59,0,43.18,0,64.77
			c0,0.72,0.03,1.44-0.02,2.15c-0.18,2.74-2.16,4.72-4.72,4.74c-2.57,0.02-4.6-1.94-4.8-4.66c-0.05-0.71-0.02-1.43-0.02-2.15
			c0-21.35,0-42.7,0-64.05c0-0.9,0-1.8,0-2.77c-7.18,1.86-11.94,8.48-11.95,16.32c-0.01,56.32-0.01,112.64,0,168.96
			c0,0.66,0.09,1.32,0.12,1.67c3.95-1.81,7.81-3.58,11.83-5.42c0-0.62,0-1.49,0-2.36c0-21.75,0-43.5,0-65.24
			c0-0.72-0.03-1.44,0.02-2.15c0.2-2.72,2.23-4.67,4.8-4.65c2.57,0.02,4.54,1.99,4.72,4.74c0.05,0.71,0.02,1.43,0.02,2.15
			c0,21.51,0,43.02,0,64.53C297.36,200.52,297.36,201.46,297.36,202.7z M438.29,212.26c-0.98,0-1.77,0-2.55,0
			c-47.3,0-94.61,0-141.91,0c-0.72,0-1.43-0.01-2.15,0.03c-8.57,0.42-15.61,7.62-15.81,16.17c-0.23,9.65,7.24,17.24,17.14,17.25
			c47.78,0.03,95.56,0.01,143.34,0.01c0.61,0,1.23-0.05,1.94-0.09C438.29,234.51,438.29,223.55,438.29,212.26z M457.52,211.86
			c-3.28,0.2-6.34,0.39-9.41,0.58c0,11.12,0,22.13,0,33.28c1.17,0,2.19,0,3.22,0c4.59-0.01,6.19-1.59,6.19-6.16
			c0.01-5.88,0-11.77,0-17.65C457.52,218.51,457.52,215.11,457.52,211.86z"/>
		<linearGradient id="SVGID_3_" gradientUnits="userSpaceOnUse" x1="266.2218" y1="132.9175" x2="467.0902" y2="132.9175">
			<stop  offset="0" style="stop-color:#123F69"/>
			<stop  offset="1" style="stop-color:#186198"/>
		</linearGradient>
		<path class="st2" d="M319.13,103.77c-4.16-6.92-5.16-14.1-2.47-21.64c1.54-4.3,4.19-7.82,7.7-10.75c0.62-0.52,1.23-1.53,1.19-2.28
			c-0.59-12.35,9.87-21.81,21.02-20.85c0.23,0.02,0.47-0.04,0.7-0.07c4.82-13.36,20.2-16.79,30.19-7.24
			c10.39-9.92,25.71-5.5,30,7.12c2.04,0.18,4.13,0.16,6.12,0.58c9.37,1.97,15.79,10,15.67,19.56c-0.02,1.56,0.35,2.56,1.62,3.6
			c8.93,7.3,11.37,19.85,5.96,30.03c-0.33,0.63-0.68,1.24-1.24,2.25c0.53,0.39,1.15,0.75,1.66,1.23
			c12.73,12.11,11.08,32.61-3.45,42.49c-1.15,0.78-1.67,1.57-1.79,3.01c-0.82,10.42-6.09,17.66-15.78,21.68
			c-0.72,0.3-1.52,0.93-1.82,1.61c-6.4,14.54-25.63,17.93-36.42,5.68c-0.15-0.17-0.37-0.28-0.63-0.47
			c-3.66,4.14-8.1,6.86-13.63,7.68c-9.58,1.42-18.67-3.46-22.98-12.29c-0.46-0.94-1.42-1.89-2.38-2.3
			c-9.55-4.11-14.66-11.32-15.6-21.63c-0.08-0.88-0.53-2.04-1.2-2.52c-15.53-11.14-16.91-30.62-3.03-43.78
			C318.72,104.33,318.85,104.12,319.13,103.77z M351.66,173.75c2.97,3.16,6.78,4.5,10.64,3.82c6.5-1.14,10.33-5.95,10.34-13.13
			c0.02-26.84,0.01-53.68,0-80.52c0-0.77-0.08-1.54-0.11-1.99c-2.98-0.22-5.76-0.21-8.45-0.7c-2.55-0.46-4-3.06-3.5-5.43
			c0.53-2.49,2.67-3.93,5.29-3.83c1.79,0.07,3.61-0.07,5.37-0.39c0.54-0.1,1.32-1.08,1.32-1.66c0.04-6.05,0.15-12.11-0.18-18.14
			c-0.19-3.55-3.42-6.24-7.09-6.68c-3.37-0.41-7,1.66-8.2,4.91c-0.26,0.69,0.11,1.89,0.6,2.54c1.24,1.64,2.87,2.99,4.06,4.65
			c1.9,2.68,1.44,5.56-0.89,7.15c-2.29,1.57-5.11,0.88-6.97-1.82c-2.63-3.82-6.23-5.35-10.74-4.55c-3.91,0.69-7.14,4-7.82,8.08
			c-0.73,4.44,0.96,7.91,4.66,10.47c2.7,1.86,3.34,4.66,1.72,6.98c-1.63,2.35-4.4,2.75-7.14,0.81c-1.85-1.31-3.49-2.91-5.21-4.37
			c-4.76,4.32-5.96,11.21-3.05,17.05c0.75,1.5,1.47,2.38,3.45,1.84c2.29-0.62,4.57,0.9,5.28,3.04c0.77,2.32-0.23,4.73-2.47,5.83
			c-0.71,0.35-1.49,0.55-2.23,0.82c-7.26,2.65-12.01,9.6-11.71,17.15c0.31,7.88,5.32,14.65,12.85,16.49
			c2.91,0.71,6.13,0.44,9.18,0.22c2.98-0.21,5,0.5,5.95,2.78c1.15,2.77-0.25,5.76-3.42,6.4c-3.38,0.69-6.86,0.86-10.3,1.26
			c1.06,7.45,8.72,12.63,16.78,11.25c3.92-0.67,6.27,0.4,6.96,3.16c0.72,2.91-0.7,4.89-4.43,6.16
			C352.05,173.46,351.93,173.58,351.66,173.75z M425.53,80.07c-2.08,1.65-4.02,3.42-6.19,4.83c-1.95,1.27-4.02,0.86-5.66-0.8
			c-1.56-1.59-1.91-3.56-0.79-5.47c0.61-1.04,1.74-1.8,2.71-2.59c3.17-2.57,4.67-5.86,3.95-9.89c-0.74-4.11-3.26-6.84-7.29-8.03
			c-4.29-1.26-8.31,0.39-11.35,4.55c-1.84,2.52-4.57,3.21-6.83,1.73c-2.38-1.56-2.89-4.45-1.01-7.12c1.18-1.68,2.58-3.25,4.12-4.6
			c1.07-0.93,1.17-1.65,0.62-2.84c-1.65-3.52-5.54-5.45-9.3-4.51c-4.14,1.02-6.27,4.1-6.27,9.19c-0.01,24.05,0,48.09,0,72.14
			c0,0.76,0,1.52,0,2.59c1.1-0.46,1.81-0.78,2.53-1.07c3.95-1.6,8-2,12.17-1.06c3.24,0.73,4.86,2.92,4.28,5.77
			c-0.57,2.8-2.93,3.9-6.23,3.65c-2.37-0.18-5.03-0.04-7.16,0.88c-3.64,1.57-5.76,4.5-5.63,8.85c0.2,7-0.05,14.02,0.28,21.01
			c0.22,4.72,4.08,8.78,8.68,10.01c4.57,1.22,9.37-0.23,11.99-3.64c-0.22-0.11-0.41-0.25-0.64-0.32c-3.52-1.16-4.94-3.18-4.25-6.04
			c0.64-2.67,2.94-3.72,6.46-3.34c2.18,0.24,4.47,0.35,6.6-0.06c5.66-1.09,10.47-6.43,10.58-11.12c-3.24-0.33-6.51-0.44-9.68-1.08
			c-1.38-0.28-2.84-1.43-3.73-2.6c-1.14-1.5-0.77-3.36,0.35-4.9c1.34-1.83,3.2-1.92,5.33-1.8c3.13,0.17,6.43,0.48,9.4-0.28
			c7.54-1.92,12.5-8.76,12.69-16.6c0.19-7.76-4.63-14.47-12.34-17.18c-3.46-1.22-4.88-3.31-4.16-6.16c0.65-2.56,2.73-3.59,6.24-3.25
			c0.58,0.06,1.43-0.22,1.78-0.65C431.81,93.28,430.55,84.01,425.53,80.07z"/>
		<linearGradient id="SVGID_4_" gradientUnits="userSpaceOnUse" x1="266.2218" y1="132.9175" x2="467.0902" y2="132.9175">
			<stop  offset="0" style="stop-color:#123F69"/>
			<stop  offset="1" style="stop-color:#186198"/>
		</linearGradient>
		<path class="st3" d="M292.39,116.17c-2.64-0.11-4.74-2.45-4.57-5.07c0.17-2.54,2.4-4.56,4.94-4.45c2.64,0.11,4.75,2.44,4.57,5.07
			C297.17,114.25,294.92,116.28,292.39,116.17z"/>
		<linearGradient id="SVGID_5_" gradientUnits="userSpaceOnUse" x1="266.2218" y1="132.9175" x2="467.0902" y2="132.9175">
			<stop  offset="0" style="stop-color:#123F69"/>
			<stop  offset="1" style="stop-color:#186198"/>
		</linearGradient>
		<path class="st4" d="M360.1,106.9c-0.6,8.41-6.06,15.72-13.9,18.02c-2.83,0.83-5.38-0.3-6.26-2.78c-0.91-2.57,0.27-5,2.99-6.16
			c6.77-2.89,8.47-7.04,5.7-13.9c-1.04-2.58-0.19-5.16,2.1-6.34c2.39-1.24,5.24-0.46,6.42,2.22
			C358.41,100.82,359.14,103.91,360.1,106.9z"/>
		<linearGradient id="SVGID_6_" gradientUnits="userSpaceOnUse" x1="266.2218" y1="132.9175" x2="467.0902" y2="132.9175">
			<stop  offset="0" style="stop-color:#123F69"/>
			<stop  offset="1" style="stop-color:#186198"/>
		</linearGradient>
		<path class="st5" d="M391.02,88.55c0.84-2.61,1.46-5.32,2.57-7.81c1.14-2.58,3.83-3.39,6.21-2.31c2.46,1.12,3.39,3.71,2.31,6.42
			c-2.12,5.32-0.83,8.52,4.29,10.69c2.75,1.16,3.99,3.56,3.14,6.08c-0.87,2.57-3.51,3.76-6.43,2.88
			C396.3,102.45,391.53,95.95,391.02,88.55z"/>
	</g>
</g>
<rect x="-133.68" y="0.77" class="st6" width="77.42" height="62.67"/>
<rect x="-133.68" y="74.35" class="st7" width="77.42" height="62.67"/>
<linearGradient id="SVGID_7_" gradientUnits="userSpaceOnUse" x1="-133.6774" y1="179.2627" x2="-56.2581" y2="179.2627">
	<stop  offset="0" style="stop-color:#123F69"/>
	<stop  offset="1" style="stop-color:#186198"/>
</linearGradient>
<rect x="-133.68" y="147.93" class="st8" width="77.42" height="62.67"/>
<g>
	<g>
		<path d="M218.35,535.34c1.74-5.12,3.54-10.23,5.2-15.37c5.87-18.15,11.67-36.32,17.53-54.46c2.37-7.32,5.74-14.17,9.98-20.59
			c1.94-2.94,4.54-3.73,7-2.16c2.41,1.53,2.88,4.44,0.96,7.26c-6.09,8.94-9.23,19.11-12.45,29.26
			c-5.34,16.83-10.79,33.62-16.19,50.42c-0.21,0.67-0.39,1.35-0.67,2.33c0.95,0.05,1.76,0.13,2.57,0.13
			c4.66,0.01,9.32-0.02,13.97,0.02c3.86,0.03,5.65,1.82,5.66,5.68c0.03,9.87,0,19.74,0.01,29.61c0.01,9.22,5.3,14.47,14.58,14.49
			c6.63,0.01,13.26-0.01,19.9,0.01c4.51,0.02,6.16,1.65,6.17,6.13c0.02,8.05,0.01,16.09,0.01,24.29c25.45,0,50.74,0,76.12,0
			c1.03-5.97,1.95-11.88,3.08-17.75c3.94-20.57,11.4-39.81,22.04-57.83c7.47-12.66,11.05-26.39,11.17-41.06
			c0.01-0.77-0.07-1.54-0.12-2.58c-0.97,0-1.81,0-2.66,0c-9.95,0-19.9,0.01-29.84-0.01c-5.24-0.01-7.18-3.32-4.73-8
			c2.29-4.37,1.32-9.43-2.39-12.39c-3.57-2.85-8.77-2.82-12.25,0.08c-3.68,3.07-4.57,8.02-2.23,12.43c2.38,4.49,0.39,7.86-4.67,7.88
			c-4.97,0.02-9.95,0.04-14.92,0c-8.77-0.07-14.71-6-14.79-14.72c-0.03-2.91,0-5.81,0-9.01c-7.44,0.63-13.74-1.34-18.42-7.2
			c-2.98-3.73-4.38-8.05-4.11-12.78c0.65-11.34,8.3-17.59,22.4-18.36c0-5.16,0-10.33,0-16.2c-4.98,1.09-9.77,1.89-14.41,3.24
			c-3.99,1.16-7.82,2.89-11.67,4.5c-3.2,1.34-5.87,0.75-7.11-1.8c-1.31-2.68-0.12-5.23,3.15-6.81c10.65-5.14,21.86-8.06,33.69-8.53
			c4.16-0.16,5.95,1.58,5.96,5.77c0.02,8.68,0.03,17.37,0,26.05c-0.02,4.94-3.46,7-7.76,4.7c-4.56-2.44-9.52-1.58-12.61,2.18
			c-2.91,3.55-2.92,8.68-0.02,12.24c3.09,3.79,8.02,4.65,12.6,2.22c4.32-2.29,7.75-0.26,7.79,4.66c0.03,4.97-0.01,9.95,0.02,14.92
			c0.02,3.64,1.75,5.4,5.34,5.44c2.76,0.03,5.53-0.01,8.29-0.04c0.14,0,0.28-0.11,0.63-0.26c-0.71-6.92,1.2-13.02,6.69-17.68
			c4.12-3.5,8.93-4.82,14.3-4.39c9,0.71,18.62,8.99,17.08,22.38c0.87,0,1.71,0,2.55,0c9.16,0,18.32-0.01,27.48,0
			c4.04,0,5.62,1.42,5.91,5.4c1.39,18.55-2.48,35.97-11.9,51.99c-12.33,20.96-20.01,43.46-23.26,67.51
			c-0.36,2.66-0.97,5.28-1.23,7.95c-0.24,2.5-1.33,4.29-3.5,5.47c-29.22,0-58.43,0-87.65,0c-2.64-1.17-3.56-3.22-3.52-6.06
			c0.11-7.26,0.04-14.52,0.03-21.79c0-0.84-0.07-1.67-0.12-2.74c-5.82,0-11.4,0.03-16.99-0.01c-13.91-0.1-23.47-9.68-23.53-23.56
			c-0.03-7.81-0.01-15.63-0.01-23.44c0-0.84,0-1.68,0-2.79c-1.15,0-2,0-2.84,0c-5.05,0-10.11-0.09-15.15,0.03
			c-2.84,0.07-4.9-0.88-6.09-3.51C218.35,537.24,218.35,536.29,218.35,535.34z"/>
		<path d="M375.24,441.37c-14.2,1.31-21.89-8.85-22.38-17.5c-0.71-12.53,6.96-19.78,22.38-20.86c0-2.71-0.01-5.44,0-8.18
			c0.03-9.44,5.95-15.36,15.39-15.37c18.31-0.01,36.62-0.01,54.94,0c9.46,0,15.35,5.9,15.36,15.37c0.01,18.31,0.01,36.62,0,54.94
			c0,9.42-5.94,15.35-15.38,15.39c-4.81,0.02-9.63,0.03-14.44-0.01c-4.93-0.04-6.97-3.47-4.68-7.78c2.45-4.6,1.6-9.49-2.19-12.6
			c-3.53-2.91-8.65-2.91-12.23-0.01c-3.77,3.05-4.65,8.06-2.22,12.6c2.31,4.32,0.28,7.76-4.65,7.8c-4.97,0.04-9.95,0.04-14.92,0
			c-8.83-0.08-14.87-6.1-14.95-14.89C375.22,447.36,375.24,444.45,375.24,441.37z M398.93,455.63
			c-1.07-14.55,9.05-22.08,18.24-22.49c4.83-0.21,9.21,1.17,12.98,4.24c5.73,4.68,7.68,10.91,7.07,17.98
			c0.37,0.16,0.51,0.26,0.65,0.27c2.6,0.02,5.21,0.07,7.81,0.04c4.03-0.03,5.76-1.77,5.76-5.81c0.01-18.39,0.01-36.79,0-55.18
			c0-4.03-1.73-5.74-5.79-5.74c-18.39-0.01-36.79-0.01-55.18,0c-4,0-5.74,1.76-5.76,5.81c-0.02,4.82,0.01,9.63-0.01,14.45
			c-0.02,5.14-3.32,7.11-7.83,4.71c-4.42-2.36-9.39-1.48-12.42,2.19c-2.95,3.58-2.94,8.88,0.03,12.44
			c3.03,3.64,7.99,4.48,12.44,2.12c4.4-2.34,7.76-0.39,7.78,4.55c0.03,5.05-0.03,10.1,0.02,15.16c0.03,3.02,1.63,5.05,4.39,5.22
			C392.33,455.79,395.56,455.63,398.93,455.63z"/>
		<path d="M269.49,425.96c2.51-0.06,4.68,1.99,4.78,4.53c0.11,2.68-1.93,4.86-4.6,4.9c-2.64,0.05-4.85-2.11-4.83-4.72
			C264.86,428.19,267,426.02,269.49,425.96z"/>
	</g>
	<g>
		
			<linearGradient id="SVGID_8_" gradientUnits="userSpaceOnUse" x1="2.0645" y1="123.3548" x2="244.6452" y2="123.3548" gradientTransform="matrix(1 0 0 1 216.2895 377.3977)">
			<stop  offset="0" style="stop-color:#123F69"/>
			<stop  offset="1" style="stop-color:#186198"/>
		</linearGradient>
		<path class="st9" d="M218.35,535.34c1.74-5.12,3.54-10.23,5.2-15.37c5.87-18.15,11.67-36.32,17.53-54.46
			c2.37-7.32,5.74-14.17,9.98-20.59c1.94-2.94,4.54-3.73,7-2.16c2.41,1.53,2.88,4.44,0.96,7.26c-6.09,8.94-9.23,19.11-12.45,29.26
			c-5.34,16.83-10.79,33.62-16.19,50.42c-0.21,0.67-0.39,1.35-0.67,2.33c0.95,0.05,1.76,0.13,2.57,0.13
			c4.66,0.01,9.32-0.02,13.97,0.02c3.86,0.03,5.65,1.82,5.66,5.68c0.03,9.87,0,19.74,0.01,29.61c0.01,9.22,5.3,14.47,14.58,14.49
			c6.63,0.01,13.26-0.01,19.9,0.01c4.51,0.02,6.16,1.65,6.17,6.13c0.02,8.05,0.01,16.09,0.01,24.29c25.45,0,50.74,0,76.12,0
			c1.03-5.97,1.95-11.88,3.08-17.75c3.94-20.57,11.4-39.81,22.04-57.83c7.47-12.66,11.05-26.39,11.17-41.06
			c0.01-0.77-0.07-1.54-0.12-2.58c-0.97,0-1.81,0-2.66,0c-9.95,0-19.9,0.01-29.84-0.01c-5.24-0.01-7.18-3.32-4.73-8
			c2.29-4.37,1.32-9.43-2.39-12.39c-3.57-2.85-8.77-2.82-12.25,0.08c-3.68,3.07-4.57,8.02-2.23,12.43c2.38,4.49,0.39,7.86-4.67,7.88
			c-4.97,0.02-9.95,0.04-14.92,0c-8.77-0.07-14.71-6-14.79-14.72c-0.03-2.91,0-5.81,0-9.01c-7.44,0.63-13.74-1.34-18.42-7.2
			c-2.98-3.73-4.38-8.05-4.11-12.78c0.65-11.34,8.3-17.59,22.4-18.36c0-5.16,0-10.33,0-16.2c-4.98,1.09-9.77,1.89-14.41,3.24
			c-3.99,1.16-7.82,2.89-11.67,4.5c-3.2,1.34-5.87,0.75-7.11-1.8c-1.31-2.68-0.12-5.23,3.15-6.81c10.65-5.14,21.86-8.06,33.69-8.53
			c4.16-0.16,5.95,1.58,5.96,5.77c0.02,8.68,0.03,17.37,0,26.05c-0.02,4.94-3.46,7-7.76,4.7c-4.56-2.44-9.52-1.58-12.61,2.18
			c-2.91,3.55-2.92,8.68-0.02,12.24c3.09,3.79,8.02,4.65,12.6,2.22c4.32-2.29,7.75-0.26,7.79,4.66c0.03,4.97-0.01,9.95,0.02,14.92
			c0.02,3.64,1.75,5.4,5.34,5.44c2.76,0.03,5.53-0.01,8.29-0.04c0.14,0,0.28-0.11,0.63-0.26c-0.71-6.92,1.2-13.02,6.69-17.68
			c4.12-3.5,8.93-4.82,14.3-4.39c9,0.71,18.62,8.99,17.08,22.38c0.87,0,1.71,0,2.55,0c9.16,0,18.32-0.01,27.48,0
			c4.04,0,5.62,1.42,5.91,5.4c1.39,18.55-2.48,35.97-11.9,51.99c-12.33,20.96-20.01,43.46-23.26,67.51
			c-0.36,2.66-0.97,5.28-1.23,7.95c-0.24,2.5-1.33,4.29-3.5,5.47c-29.22,0-58.43,0-87.65,0c-2.64-1.17-3.56-3.22-3.52-6.06
			c0.11-7.26,0.04-14.52,0.03-21.79c0-0.84-0.07-1.67-0.12-2.74c-5.82,0-11.4,0.03-16.99-0.01c-13.91-0.1-23.47-9.68-23.53-23.56
			c-0.03-7.81-0.01-15.63-0.01-23.44c0-0.84,0-1.68,0-2.79c-1.15,0-2,0-2.84,0c-5.05,0-10.11-0.09-15.15,0.03
			c-2.84,0.07-4.9-0.88-6.09-3.51C218.35,537.24,218.35,536.29,218.35,535.34z"/>
		
			<linearGradient id="SVGID_9_" gradientUnits="userSpaceOnUse" x1="2.0645" y1="123.3548" x2="244.6452" y2="123.3548" gradientTransform="matrix(1 0 0 1 216.2895 377.3977)">
			<stop  offset="0" style="stop-color:#123F69"/>
			<stop  offset="1" style="stop-color:#186198"/>
		</linearGradient>
		<path class="st10" d="M375.24,441.37c-14.2,1.31-21.89-8.85-22.38-17.5c-0.71-12.53,6.96-19.78,22.38-20.86
			c0-2.71-0.01-5.44,0-8.18c0.03-9.44,5.95-15.36,15.39-15.37c18.31-0.01,36.62-0.01,54.94,0c9.46,0,15.35,5.9,15.36,15.37
			c0.01,18.31,0.01,36.62,0,54.94c0,9.42-5.94,15.35-15.38,15.39c-4.81,0.02-9.63,0.03-14.44-0.01c-4.93-0.04-6.97-3.47-4.68-7.78
			c2.45-4.6,1.6-9.49-2.19-12.6c-3.53-2.91-8.65-2.91-12.23-0.01c-3.77,3.05-4.65,8.06-2.22,12.6c2.31,4.32,0.28,7.76-4.65,7.8
			c-4.97,0.04-9.95,0.04-14.92,0c-8.83-0.08-14.87-6.1-14.95-14.89C375.22,447.36,375.24,444.45,375.24,441.37z M398.93,455.63
			c-1.07-14.55,9.05-22.08,18.24-22.49c4.83-0.21,9.21,1.17,12.98,4.24c5.73,4.68,7.68,10.91,7.07,17.98
			c0.37,0.16,0.51,0.26,0.65,0.27c2.6,0.02,5.21,0.07,7.81,0.04c4.03-0.03,5.76-1.77,5.76-5.81c0.01-18.39,0.01-36.79,0-55.18
			c0-4.03-1.73-5.74-5.79-5.74c-18.39-0.01-36.79-0.01-55.18,0c-4,0-5.74,1.76-5.76,5.81c-0.02,4.82,0.01,9.63-0.01,14.45
			c-0.02,5.14-3.32,7.11-7.83,4.71c-4.42-2.36-9.39-1.48-12.42,2.19c-2.95,3.58-2.94,8.88,0.03,12.44
			c3.03,3.64,7.99,4.48,12.44,2.12c4.4-2.34,7.76-0.39,7.78,4.55c0.03,5.05-0.03,10.1,0.02,15.16c0.03,3.02,1.63,5.05,4.39,5.22
			C392.33,455.79,395.56,455.63,398.93,455.63z"/>
		
			<linearGradient id="SVGID_10_" gradientUnits="userSpaceOnUse" x1="2.0645" y1="123.3548" x2="244.6452" y2="123.3548" gradientTransform="matrix(1 0 0 1 216.2895 377.3977)">
			<stop  offset="0" style="stop-color:#123F69"/>
			<stop  offset="1" style="stop-color:#186198"/>
		</linearGradient>
		<path class="st11" d="M269.49,425.96c2.51-0.06,4.68,1.99,4.78,4.53c0.11,2.68-1.93,4.86-4.6,4.9c-2.64,0.05-4.85-2.11-4.83-4.72
			C264.86,428.19,267,426.02,269.49,425.96z"/>
	</g>
</g>
<g>
	<g>
		<g>
			<path d="M5.68,621.67c-8.36,0-16.73,0.24-25.08-0.08c-6.48-0.25-12.53-2.54-18.35-5.37c-9.03-4.39-18.06-8.78-27.1-13.16
				c-7.58-3.67-15.58-5.46-24-5.4c-5.49,0.04-10.99,0.03-16.48,0c-3.01-0.01-4.82-1.54-4.85-4c-0.03-2.47,1.79-4.17,4.75-4.09
				c9.28,0.25,18.63,0.03,27.81,1.13c5.73,0.69,11.4,3.03,16.76,5.38c9.11,4,17.98,8.57,26.93,12.94
				c6.64,3.24,13.61,4.91,21.02,4.89c13.02-0.04,26.03,0.01,39.05-0.04c1.23,0,2.54-0.23,3.67-0.69
				c10.55-4.29,21.05-8.72,31.62-12.96c2-0.8,2.45-1.89,2.11-3.84c-0.68-3.9-2.83-6.19-6.74-6.85c-5.08-0.86-9.89,0.57-14.7,1.87
				c-2.6,0.7-5.16,1.6-7.73,2.41c-3.13,0.99-5.28,0.23-6.11-2.17c-0.84-2.46,0.32-4.63,3.42-5.45c6.67-1.77,13.34-3.65,20.13-4.79
				c3.09-0.52,6.62,0.11,9.68,1.09c7.59,2.44,11.77,10.94,9.64,18.62c-0.8,2.87-2.46,4.91-5.27,6.06
				c-11.56,4.73-23.09,9.53-34.65,14.24c-1.13,0.46-2.46,0.59-3.7,0.6c-7.27,0.05-14.54,0.03-21.81,0.03
				C5.68,621.91,5.68,621.79,5.68,621.67z"/>
			<path d="M17.21,395.09c8.45,0,16.9-0.23,25.34,0.08c6.13,0.22,11.91,2.3,17.43,4.96c9.73,4.69,19.42,9.46,29.18,14.09
				c7.05,3.35,14.54,4.87,22.34,4.86c5.58,0,11.16-0.01,16.74,0c3.19,0.01,5.05,1.54,5.03,4.07c-0.01,2.52-1.88,4.11-5.08,4.02
				c-9.11-0.25-18.29,0-27.3-1.11c-5.81-0.72-11.57-3.06-17.01-5.45c-9.34-4.1-18.41-8.83-27.61-13.26
				c-6.34-3.05-13.04-4.54-20.08-4.53c-13.1,0.03-26.2-0.01-39.3,0.04c-1.23,0-2.53,0.25-3.66,0.72
				c-10.47,4.27-20.89,8.67-31.38,12.87c-2.07,0.83-2.69,1.86-2.29,3.97c0.73,3.88,2.88,6.15,6.8,6.8c5,0.84,9.73-0.57,14.46-1.82
				c2.77-0.73,5.47-1.74,8.21-2.58c2.91-0.9,5.07-0.02,5.83,2.33c0.77,2.4-0.34,4.55-3.27,5.32c-6.92,1.82-13.82,3.9-20.87,4.95
				c-8.26,1.23-15.3-2.67-17.81-9.48c-1.09-2.95-1.22-6.45-1.01-9.64c0.21-3.18,2.28-5.46,5.42-6.74
				c11.41-4.64,22.78-9.39,34.19-14.04c1.21-0.49,2.6-0.76,3.91-0.77c7.27-0.07,14.54-0.04,21.81-0.04
				C17.21,394.84,17.21,394.97,17.21,395.09z"/>
			<path d="M11.11,423.58c-1.25,5.43,0.17,9.92,4.04,13.32c2.56,2.24,5.58,4.14,8.68,5.54c7.92,3.56,16.03,6.7,24,10.15
				c1.2,0.52,2.5,1.58,3.06,2.73c4.52,9.24,12.17,13.93,22.01,15.53c7,1.13,13.78,0.1,20.42-2.24c1.17-0.41,2.44-0.77,3.67-0.78
				c10.48-0.06,20.96-0.02,31.43-0.05c2.16-0.01,3.83,0.67,4.6,2.8c1.02,2.8-1.09,5.31-4.53,5.32c-9.72,0.03-19.43-0.02-29.15,0.05
				c-1.48,0.01-3.01,0.3-4.43,0.76c-14.58,4.68-28.57,4.16-41.13-5.44c-3.47-2.65-5.93-6.6-8.91-9.9c-0.81-0.9-1.7-1.89-2.76-2.35
				c-7.43-3.22-14.95-6.24-22.37-9.47c-5.34-2.32-10.06-5.57-13.43-10.44c-5.01-7.24-4.77-14.89-1.45-22.65
				c1.03-2.41,3.13-2.95,6-1.76c9.2,3.8,18.38,7.63,27.58,11.45c5.76,2.39,11.53,4.79,17.3,7.16c1.97,0.81,3.33,2.06,3.23,4.33
				c-0.13,3.01-3.02,4.54-6.2,3.24c-9.44-3.88-18.86-7.81-28.29-11.73C20.15,427.33,15.79,425.52,11.11,423.58z"/>
			<path d="M11.97,593.09c1.28-5.26-0.09-9.8-3.99-13.15c-2.83-2.44-6.16-4.46-9.57-6.01c-7.6-3.45-15.41-6.44-23.09-9.73
				c-1.15-0.49-2.46-1.4-2.97-2.46c-5.3-10.95-14.55-15.49-26.11-16.25c-5.46-0.36-10.74,0.71-15.93,2.42
				c-1.8,0.6-3.76,0.99-5.65,1.01c-9.89,0.1-19.77,0.05-29.66,0.04c-3.34,0-5.27-1.57-5.19-4.17c0.07-2.51,1.92-3.93,5.17-3.94
				c9.63-0.01,19.27,0.03,28.9-0.04c1.4-0.01,2.85-0.28,4.18-0.72c12.67-4.22,25.07-4.16,37,2.41c5.44,2.99,9.64,7.31,13,12.54
				c0.79,1.24,2.14,2.36,3.49,2.95c6.88,3.01,13.85,5.8,20.76,8.72c5.36,2.27,10.2,5.33,13.78,10.02c5.6,7.34,5.6,15.29,2.16,23.47
				c-1.04,2.47-3.13,3.08-5.95,1.91c-10.76-4.45-21.5-8.93-32.25-13.41c-4.13-1.72-8.26-3.44-12.38-5.16
				c-3.1-1.29-4.29-3.42-3.26-5.8c0.98-2.27,3.31-2.94,6.26-1.72c13.33,5.52,26.65,11.05,39.97,16.58
				C11.03,592.78,11.43,592.9,11.97,593.09z"/>
			<path d="M96.73,508.7c-0.19,18.36-5.52,35.04-16.4,49.87c-0.82,1.12-2.27,2.24-3.55,2.41c-1.13,0.15-2.96-0.71-3.54-1.68
				c-0.64-1.08-0.64-2.95-0.16-4.19c0.64-1.69,2.04-3.07,3.05-4.63c11.06-17.27,14.76-36.01,11.19-56.19
				c-0.1-0.58-0.2-1.17-0.24-1.75c-0.19-2.63,1.15-4.44,3.47-4.74c2.11-0.27,4.11,1.11,4.47,3.56c0.71,4.92,1.17,9.88,1.71,14.82
				C96.81,507.01,96.73,507.86,96.73,508.7z"/>
			<path d="M-73.75,510.68c0.31-21.02,5.63-37.61,16.38-52.42c1.78-2.46,3.76-3.11,5.79-1.99c2.32,1.28,2.77,3.97,0.92,6.52
				c-5.15,7.1-9.09,14.79-11.61,23.19c-3.6,12.02-4.28,24.21-1.96,36.55c0.02,0.08,0.04,0.16,0.05,0.25
				c0.71,3.79-0.3,6.01-2.95,6.45c-2.75,0.46-4.51-1.14-5.02-4.94C-72.88,518.85-73.44,513.41-73.75,510.68z"/>
			<path d="M-40.47,443.18c2.22,0.04,3.94,1.81,3.93,4.06c-0.01,2.3-2.21,4.52-4.51,4.56c-2.27,0.03-4.22-1.94-4.12-4.17
				C-45.06,445.39-42.68,443.14-40.47,443.18z"/>
			<path d="M68.87,569.32c0.02,2.13-2.23,4.26-4.48,4.24c-2.18-0.02-4.03-1.85-4.04-4c-0.01-2.24,2.09-4.22,4.46-4.23
				C66.95,565.34,68.85,567.2,68.87,569.32z"/>
		</g>
		<g>
			
				<linearGradient id="SVGID_11_" gradientUnits="userSpaceOnUse" x1="1.6119" y1="123.3548" x2="245.0977" y2="123.3548" gradientTransform="matrix(1 0 0 1 -111.8024 385.0224)">
				<stop  offset="0" style="stop-color:#123F69"/>
				<stop  offset="1" style="stop-color:#186198"/>
			</linearGradient>
			<path class="st12" d="M5.68,621.67c-8.36,0-16.73,0.24-25.08-0.08c-6.48-0.25-12.53-2.54-18.35-5.37
				c-9.03-4.39-18.06-8.78-27.1-13.16c-7.58-3.67-15.58-5.46-24-5.4c-5.49,0.04-10.99,0.03-16.48,0c-3.01-0.01-4.82-1.54-4.85-4
				c-0.03-2.47,1.79-4.17,4.75-4.09c9.28,0.25,18.63,0.03,27.81,1.13c5.73,0.69,11.4,3.03,16.76,5.38c9.11,4,17.98,8.57,26.93,12.94
				c6.64,3.24,13.61,4.91,21.02,4.89c13.02-0.04,26.03,0.01,39.05-0.04c1.23,0,2.54-0.23,3.67-0.69
				c10.55-4.29,21.05-8.72,31.62-12.96c2-0.8,2.45-1.89,2.11-3.84c-0.68-3.9-2.83-6.19-6.74-6.85c-5.08-0.86-9.89,0.57-14.7,1.87
				c-2.6,0.7-5.16,1.6-7.73,2.41c-3.13,0.99-5.28,0.23-6.11-2.17c-0.84-2.46,0.32-4.63,3.42-5.45c6.67-1.77,13.34-3.65,20.13-4.79
				c3.09-0.52,6.62,0.11,9.68,1.09c7.59,2.44,11.77,10.94,9.64,18.62c-0.8,2.87-2.46,4.91-5.27,6.06
				c-11.56,4.73-23.09,9.53-34.65,14.24c-1.13,0.46-2.46,0.59-3.7,0.6c-7.27,0.05-14.54,0.03-21.81,0.03
				C5.68,621.91,5.68,621.79,5.68,621.67z"/>
			
				<linearGradient id="SVGID_12_" gradientUnits="userSpaceOnUse" x1="1.6119" y1="123.3548" x2="245.0977" y2="123.3548" gradientTransform="matrix(1 0 0 1 -111.8024 385.0224)">
				<stop  offset="0" style="stop-color:#123F69"/>
				<stop  offset="1" style="stop-color:#186198"/>
			</linearGradient>
			<path class="st13" d="M17.21,395.09c8.45,0,16.9-0.23,25.34,0.08c6.13,0.22,11.91,2.3,17.43,4.96
				c9.73,4.69,19.42,9.46,29.18,14.09c7.05,3.35,14.54,4.87,22.34,4.86c5.58,0,11.16-0.01,16.74,0c3.19,0.01,5.05,1.54,5.03,4.07
				c-0.01,2.52-1.88,4.11-5.08,4.02c-9.11-0.25-18.29,0-27.3-1.11c-5.81-0.72-11.57-3.06-17.01-5.45
				c-9.34-4.1-18.41-8.83-27.61-13.26c-6.34-3.05-13.04-4.54-20.08-4.53c-13.1,0.03-26.2-0.01-39.3,0.04
				c-1.23,0-2.53,0.25-3.66,0.72c-10.47,4.27-20.89,8.67-31.38,12.87c-2.07,0.83-2.69,1.86-2.29,3.97c0.73,3.88,2.88,6.15,6.8,6.8
				c5,0.84,9.73-0.57,14.46-1.82c2.77-0.73,5.47-1.74,8.21-2.58c2.91-0.9,5.07-0.02,5.83,2.33c0.77,2.4-0.34,4.55-3.27,5.32
				c-6.92,1.82-13.82,3.9-20.87,4.95c-8.26,1.23-15.3-2.67-17.81-9.48c-1.09-2.95-1.22-6.45-1.01-9.64
				c0.21-3.18,2.28-5.46,5.42-6.74c11.41-4.64,22.78-9.39,34.19-14.04c1.21-0.49,2.6-0.76,3.91-0.77
				c7.27-0.07,14.54-0.04,21.81-0.04C17.21,394.84,17.21,394.97,17.21,395.09z"/>
			
				<linearGradient id="SVGID_13_" gradientUnits="userSpaceOnUse" x1="1.6119" y1="123.3548" x2="245.0977" y2="123.3548" gradientTransform="matrix(1 0 0 1 -111.8024 385.0224)">
				<stop  offset="0" style="stop-color:#123F69"/>
				<stop  offset="1" style="stop-color:#186198"/>
			</linearGradient>
			<path class="st14" d="M11.11,423.58c-1.25,5.43,0.17,9.92,4.04,13.32c2.56,2.24,5.58,4.14,8.68,5.54
				c7.92,3.56,16.03,6.7,24,10.15c1.2,0.52,2.5,1.58,3.06,2.73c4.52,9.24,12.17,13.93,22.01,15.53c7,1.13,13.78,0.1,20.42-2.24
				c1.17-0.41,2.44-0.77,3.67-0.78c10.48-0.06,20.96-0.02,31.43-0.05c2.16-0.01,3.83,0.67,4.6,2.8c1.02,2.8-1.09,5.31-4.53,5.32
				c-9.72,0.03-19.43-0.02-29.15,0.05c-1.48,0.01-3.01,0.3-4.43,0.76c-14.58,4.68-28.57,4.16-41.13-5.44
				c-3.47-2.65-5.93-6.6-8.91-9.9c-0.81-0.9-1.7-1.89-2.76-2.35c-7.43-3.22-14.95-6.24-22.37-9.47
				c-5.34-2.32-10.06-5.57-13.43-10.44c-5.01-7.24-4.77-14.89-1.45-22.65c1.03-2.41,3.13-2.95,6-1.76
				c9.2,3.8,18.38,7.63,27.58,11.45c5.76,2.39,11.53,4.79,17.3,7.16c1.97,0.81,3.33,2.06,3.23,4.33c-0.13,3.01-3.02,4.54-6.2,3.24
				c-9.44-3.88-18.86-7.81-28.29-11.73C20.15,427.33,15.79,425.52,11.11,423.58z"/>
			
				<linearGradient id="SVGID_14_" gradientUnits="userSpaceOnUse" x1="1.6119" y1="123.3548" x2="245.0977" y2="123.3548" gradientTransform="matrix(1 0 0 1 -111.8024 385.0224)">
				<stop  offset="0" style="stop-color:#123F69"/>
				<stop  offset="1" style="stop-color:#186198"/>
			</linearGradient>
			<path class="st15" d="M11.97,593.09c1.28-5.26-0.09-9.8-3.99-13.15c-2.83-2.44-6.16-4.46-9.57-6.01
				c-7.6-3.45-15.41-6.44-23.09-9.73c-1.15-0.49-2.46-1.4-2.97-2.46c-5.3-10.95-14.55-15.49-26.11-16.25
				c-5.46-0.36-10.74,0.71-15.93,2.42c-1.8,0.6-3.76,0.99-5.65,1.01c-9.89,0.1-19.77,0.05-29.66,0.04c-3.34,0-5.27-1.57-5.19-4.17
				c0.07-2.51,1.92-3.93,5.17-3.94c9.63-0.01,19.27,0.03,28.9-0.04c1.4-0.01,2.85-0.28,4.18-0.72c12.67-4.22,25.07-4.16,37,2.41
				c5.44,2.99,9.64,7.31,13,12.54c0.79,1.24,2.14,2.36,3.49,2.95c6.88,3.01,13.85,5.8,20.76,8.72c5.36,2.27,10.2,5.33,13.78,10.02
				c5.6,7.34,5.6,15.29,2.16,23.47c-1.04,2.47-3.13,3.08-5.95,1.91c-10.76-4.45-21.5-8.93-32.25-13.41
				c-4.13-1.72-8.26-3.44-12.38-5.16c-3.1-1.29-4.29-3.42-3.26-5.8c0.98-2.27,3.31-2.94,6.26-1.72
				c13.33,5.52,26.65,11.05,39.97,16.58C11.03,592.78,11.43,592.9,11.97,593.09z"/>
			
				<linearGradient id="SVGID_15_" gradientUnits="userSpaceOnUse" x1="1.6119" y1="123.3548" x2="245.0977" y2="123.3548" gradientTransform="matrix(1 0 0 1 -111.8024 385.0224)">
				<stop  offset="0" style="stop-color:#123F69"/>
				<stop  offset="1" style="stop-color:#186198"/>
			</linearGradient>
			<path class="st16" d="M96.73,508.7c-0.19,18.36-5.52,35.04-16.4,49.87c-0.82,1.12-2.27,2.24-3.55,2.41
				c-1.13,0.15-2.96-0.71-3.54-1.68c-0.64-1.08-0.64-2.95-0.16-4.19c0.64-1.69,2.04-3.07,3.05-4.63
				c11.06-17.27,14.76-36.01,11.19-56.19c-0.1-0.58-0.2-1.17-0.24-1.75c-0.19-2.63,1.15-4.44,3.47-4.74
				c2.11-0.27,4.11,1.11,4.47,3.56c0.71,4.92,1.17,9.88,1.71,14.82C96.81,507.01,96.73,507.86,96.73,508.7z"/>
			
				<linearGradient id="SVGID_16_" gradientUnits="userSpaceOnUse" x1="1.6119" y1="123.3548" x2="245.0977" y2="123.3548" gradientTransform="matrix(1 0 0 1 -111.8024 385.0224)">
				<stop  offset="0" style="stop-color:#123F69"/>
				<stop  offset="1" style="stop-color:#186198"/>
			</linearGradient>
			<path class="st17" d="M-73.75,510.68c0.31-21.02,5.63-37.61,16.38-52.42c1.78-2.46,3.76-3.11,5.79-1.99
				c2.32,1.28,2.77,3.97,0.92,6.52c-5.15,7.1-9.09,14.79-11.61,23.19c-3.6,12.02-4.28,24.21-1.96,36.55
				c0.02,0.08,0.04,0.16,0.05,0.25c0.71,3.79-0.3,6.01-2.95,6.45c-2.75,0.46-4.51-1.14-5.02-4.94
				C-72.88,518.85-73.44,513.41-73.75,510.68z"/>
			
				<linearGradient id="SVGID_17_" gradientUnits="userSpaceOnUse" x1="1.6119" y1="123.3548" x2="245.0977" y2="123.3548" gradientTransform="matrix(1 0 0 1 -111.8024 385.0224)">
				<stop  offset="0" style="stop-color:#123F69"/>
				<stop  offset="1" style="stop-color:#186198"/>
			</linearGradient>
			<path class="st18" d="M-40.47,443.18c2.22,0.04,3.94,1.81,3.93,4.06c-0.01,2.3-2.21,4.52-4.51,4.56
				c-2.27,0.03-4.22-1.94-4.12-4.17C-45.06,445.39-42.68,443.14-40.47,443.18z"/>
			
				<linearGradient id="SVGID_18_" gradientUnits="userSpaceOnUse" x1="1.6119" y1="123.3548" x2="245.0977" y2="123.3548" gradientTransform="matrix(1 0 0 1 -111.8024 385.0224)">
				<stop  offset="0" style="stop-color:#123F69"/>
				<stop  offset="1" style="stop-color:#186198"/>
			</linearGradient>
			<path class="st19" d="M68.87,569.32c0.02,2.13-2.23,4.26-4.48,4.24c-2.18-0.02-4.03-1.85-4.04-4c-0.01-2.24,2.09-4.22,4.46-4.23
				C66.95,565.34,68.85,567.2,68.87,569.32z"/>
		</g>
	</g>
	<linearGradient id="path22_1_" gradientUnits="userSpaceOnUse" x1="-20.867" y1="508.3772" x2="43.9718" y2="508.3772">
		<stop  offset="0" style="stop-color:#123F69"/>
		<stop  offset="1" style="stop-color:#186198"/>
	</linearGradient>
	<path id="path22" class="st20" d="M20.31,521.87c0,0-11.25,0.78-20.81-0.1c0.18,11.64,1.6,17.59,1.83,18.87h20.9
		C21.23,534.54,20.44,524.67,20.31,521.87 M-15.16,497.73c1.4,0.12,13.73,1.18,14.55,1.18c0-0.05,19.51,19.84,19.51,19.84h25.07
		v-21.02H-15.16L-15.16,497.73z M1.18,496.5h21.05V476.1H1.18V496.5z M1.04,502.37L1.04,502.37l-2.74-2.79
		c-3.63,0.04-15.38-1.19-19.16-1.84v21.02c18.86,1.86,28.75,2.34,39.8,1.98h0.18L1.04,502.37L1.04,502.37z M20.21,519.84h2.57v16.35
		c-0.32-1.71-1.28-11.66-1.16-14.84C21.31,521.01,20.21,519.84,20.21,519.84"/>
</g>
<g>
	<linearGradient id="SVGID_19_" gradientUnits="userSpaceOnUse" x1="105.2763" y1="128.2871" x2="242.3509" y2="128.2871">
		<stop  offset="0" style="stop-color:#123F69"/>
		<stop  offset="1" style="stop-color:#186198"/>
	</linearGradient>
	<path class="st21" d="M211.15,105.31c-5.01,4.62-10.04,9.27-15.07,13.92c-14.72,13.62-29.47,27.23-44.15,40.89
		c-3.17,2.95-6.62,4.21-10.89,2.9c-0.65-0.2-1.71,0.16-2.29,0.62c-1.97,1.58-3.8,3.34-5.71,4.99c-3.62,3.13-7.18,2.97-10.49-0.55
		c-3.97-4.21-7.9-8.45-11.77-12.74c-3.06-3.39-2.84-7.08,0.5-10.28c2.02-1.94,4.08-3.84,6.12-5.76c0.06-0.06,0.09-0.15,0.23-0.4
		c-2.53-5.52-0.52-9.72,3.82-13.72c26.28-24.15,52.47-48.4,78.58-72.74c4.39-4.09,8.8-5.88,14.23-2.63
		c10.34-7.95,18.28-8.35,24.4-1.33c5.97,6.85,4.76,14.91-3.64,23.44c0.32,0.82,0.73,1.7,1.01,2.61c1.19,3.91,0.3,7.31-2.64,10.14
		c-2.2,2.12-4.46,4.18-6.8,6.37c6.28,6.79,11,14.34,13.2,23.17c1.11,4.43,1.91,9.04,2.05,13.6c0.3,9.84,0.23,19.7,0.06,29.55
		c-0.47,28.08-23.85,51.84-51.91,52.99c-1.43,0.06-2.82,0.82-4.24,1.25c-1.53,0.46-3.06,1.28-4.6,1.3
		c-8.4,0.13-16.81,0.21-25.21-0.05c-1.96-0.06-3.88-1.54-5.82-2.35c-1.32-0.55-2.65-1.5-3.98-1.52
		c-10.12-0.13-20.24-0.09-30.36-0.06c-4.12,0.01-7.46-1.38-9.41-5.18c-3.22-6.25,1.26-13.44,8.54-13.52
		c10.21-0.12,20.42-0.06,30.63-0.01c1.66,0.01,2.76-0.28,3.69-1.9c1.38-2.41,3.72-3.63,6.56-3.63c8.58-0.01,17.17-0.1,25.75,0.08
		c1.66,0.04,3.78,0.74,4.85,1.91c1.92,2.1,3.94,2.06,6.31,1.64c17.32-3.03,29.75-16.07,30.79-33.57c0.59-9.87,0.22-19.87-0.71-29.72
		C222.01,117.3,216.62,109.39,211.15,105.31z M223.52,87.6c0.08-0.05,0.26-0.11,0.39-0.23c1.93-1.77,3.87-3.53,5.77-5.33
		c3.08-2.91,3.22-5.58,0.38-8.68c-5.61-6.13-11.25-12.23-16.91-18.31c-2.99-3.21-5.67-3.33-8.88-0.36
		c-26.99,24.95-53.97,49.92-80.93,74.9c-3.23,2.99-3.29,5.62-0.3,8.87c5.38,5.85,10.78,11.68,16.17,17.52
		c3.75,4.06,6.12,4.14,10.25,0.32c14.92-13.8,29.83-27.6,44.75-41.4c4.42-4.09,8.82-8.2,13.25-12.31c-2.78-2.46-3.19-2.6-5.55-1.92
		c-7.64,2.19-15.32-1.46-18.25-8.67c-2.83-6.97,0.03-15.02,6.64-18.66c6.81-3.75,15.05-1.69,19.6,4.88c0.5,0.72,1.08,1.47,1.79,1.93
		C215.53,82.63,219.43,85.04,223.52,87.6z M189.35,205.95c1.84-0.2,3.36-0.36,4.88-0.54c21.66-2.57,40.73-21.43,42.64-43.17
		c0.98-11.13,0.55-22.38,0.59-33.58c0.03-7.51-1.74-14.69-5.06-21.43c-4.41-8.96-10.86-16.06-19.16-21.01
		c-1.55,3.8-3.05,7.48-4.62,11.33c0.71,0.5,1.84,1.24,2.91,2.06c9.28,7.08,15.08,16.35,16.23,27.99c0.71,7.26,0.47,14.61,0.46,21.93
		c0,3.42-0.1,6.9-0.76,10.24c-3.54,18.12-17.59,30.94-36.03,33.24c-0.75,0.09-1.95,1.08-1.99,1.71
		C189.25,198.33,189.35,201.93,189.35,205.95z M168.37,208.56c4.06,0,8.12,0.04,12.18-0.02c2.95-0.04,4.31-1.41,4.36-4.32
		c0.06-3.61,0.06-7.22,0-10.82c-0.04-2.79-1.39-4.25-4.12-4.27c-8.12-0.06-16.23-0.06-24.35,0c-2.82,0.02-4.12,1.35-4.18,4.17
		c-0.07,3.61-0.06,7.22-0.01,10.82c0.05,3.11,1.35,4.39,4.49,4.43C160.62,208.6,164.49,208.57,168.37,208.56z M147.5,194.71
		c-11.15,0-21.98-0.07-32.8,0.04c-3.05,0.03-4.99,2.32-4.85,5.07c0.13,2.76,2.12,4.54,5.32,4.56c7.59,0.05,15.18,0.02,22.76,0.02
		c3.14,0,6.28,0,9.57,0C147.5,201.08,147.5,198.06,147.5,194.71z M207.86,86.38c-0.02-5.79-4.73-10.47-10.51-10.43
		c-5.63,0.04-10.26,4.7-10.3,10.37c-0.04,5.79,4.63,10.55,10.37,10.57C203.18,96.9,207.88,92.17,207.86,86.38z M136.47,159.6
		c-5.43-5.86-10.6-11.44-15.83-17.09c-2.28,2.1-4.34,3.99-6.4,5.87c-1.27,1.16-1.52,2.47-0.32,3.78c4.08,4.46,8.13,8.93,12.37,13.23
		c0.59,0.6,2.52,0.71,3.22,0.2C131.91,163.86,134.03,161.76,136.47,159.6z M231.73,68.53c4.39-3.34,7.14-7.13,5.79-12.67
		c-0.98-4.03-3.61-6.67-7.6-7.64c-5.19-1.26-9.07,1.07-12.29,5.07C222.32,58.35,226.97,63.37,231.73,68.53z"/>
	<linearGradient id="SVGID_20_" gradientUnits="userSpaceOnUse" x1="104.0478" y1="128.2661" x2="243.6129" y2="128.2661">
		<stop  offset="0" style="stop-color:#123F69"/>
		<stop  offset="1" style="stop-color:#186198"/>
	</linearGradient>
	<path class="st22" d="M168.11,214.28c-4.03,0-8.16-0.05-12.24-0.18c-1.62-0.05-3.07-0.82-4.48-1.57c-0.62-0.33-1.2-0.64-1.77-0.87
		c-0.42-0.18-0.85-0.39-1.27-0.6c-0.83-0.42-1.61-0.81-2.25-0.82c-9.75-0.12-19.67-0.09-29.27-0.07l-1.08,0c-0.02,0-0.04,0-0.06,0
		c-4.94,0-8.46-1.97-10.45-5.85c-1.68-3.26-1.57-7.05,0.28-10.13c1.93-3.21,5.42-5.15,9.34-5.19c10.22-0.12,20.61-0.06,30.65-0.01
		c1.37,0.01,1.98-0.18,2.61-1.27c1.57-2.74,4.28-4.25,7.63-4.25c1.96,0,3.93-0.01,5.89-0.02c6.52-0.02,13.25-0.04,19.89,0.1
		c1.78,0.04,4.34,0.78,5.74,2.31c1.44,1.58,2.88,1.66,5.19,1.26c17.09-2.99,28.77-15.72,29.77-32.42c0.54-9.1,0.31-18.76-0.71-29.53
		c-0.7-7.4-5.68-14.45-10.3-18.25l-3.66,3.37c-3.54,3.27-7.09,6.55-10.64,9.83l-10.75,9.94c-11.14,10.31-22.29,20.61-33.4,30.95
		c-3.75,3.48-7.71,4.52-12.1,3.17c-0.19-0.05-0.81,0.13-1.16,0.4c-1.21,0.97-2.4,2.03-3.54,3.07c-0.71,0.64-1.41,1.27-2.13,1.89
		c-4.13,3.57-8.46,3.34-12.2-0.63c-4.31-4.57-8.16-8.74-11.79-12.76c-3.48-3.85-3.27-8.33,0.56-12c1.31-1.25,2.63-2.49,3.96-3.73
		l1.82-1.71c-2.73-6.79,1.18-11.48,4.41-14.45c25.58-23.51,52.02-47.98,78.57-72.73c3.3-3.08,8.4-6.68,14.98-3.2
		c10.61-7.91,18.93-8.12,25.43-0.67c4.43,5.08,7.42,13.43-3.12,24.53c0,0.01,0.01,0.03,0.02,0.04c0.26,0.61,0.52,1.25,0.73,1.93
		c1.32,4.32,0.29,8.26-2.96,11.4c-1.51,1.45-3.05,2.88-4.62,4.34l-1.31,1.22c6.5,7.27,10.65,14.74,12.66,22.8
		c1.27,5.1,1.95,9.63,2.08,13.86c0.32,10.38,0.21,20.79,0.06,29.6c-0.48,28.71-24.3,53.03-53.1,54.21
		c-0.76,0.03-1.59,0.35-2.48,0.68c-0.48,0.18-0.97,0.37-1.46,0.51c-0.45,0.13-0.9,0.3-1.34,0.47c-1.14,0.43-2.32,0.87-3.59,0.88
		C177.07,214.23,172.66,214.28,168.11,214.28z M129.6,207.68c5.5,0,11.03,0.02,16.52,0.09c1.22,0.02,2.35,0.58,3.34,1.09
		c0.37,0.19,0.74,0.37,1.1,0.53c0.68,0.28,1.34,0.63,1.98,0.97c1.21,0.64,2.36,1.25,3.4,1.28c8.65,0.27,17.52,0.17,25.15,0.05
		c0.85-0.01,1.78-0.36,2.76-0.73c0.5-0.19,1-0.37,1.5-0.52c0.43-0.13,0.86-0.29,1.29-0.46c1.03-0.39,2.09-0.79,3.25-0.84
		c27.51-1.13,50.27-24.35,50.73-51.78c0.15-8.79,0.26-19.16-0.06-29.49c-0.12-4.05-0.78-8.41-2.01-13.34
		c-1.99-7.99-6.21-15.39-12.91-22.63l-0.83-0.9l3.1-2.89c1.56-1.45,3.09-2.87,4.59-4.31c2.61-2.51,3.37-5.42,2.31-8.89
		c-0.17-0.57-0.41-1.15-0.65-1.71c-0.12-0.28-0.23-0.55-0.33-0.82l-0.29-0.75l0.56-0.57c7.94-8.07,9.14-15.39,3.59-21.76
		c-5.68-6.52-12.9-6.04-22.71,1.5l-0.67,0.51l-0.72-0.43c-4.37-2.62-8.06-1.91-12.75,2.47c-26.56,24.76-53,49.23-78.59,72.75
		c-4.52,4.16-5.58,7.83-3.54,12.29l0.26,0.57l-0.4,0.73c-0.07,0.14-0.17,0.33-0.36,0.52l-2.18,2.04c-1.32,1.23-2.63,2.47-3.94,3.71
		c-2.86,2.74-3.01,5.7-0.43,8.55c3.62,4.01,7.46,8.17,11.75,12.72c2.85,3.03,5.64,3.17,8.79,0.46c0.71-0.61,1.4-1.24,2.1-1.86
		c1.17-1.06,2.39-2.15,3.65-3.16c0.83-0.66,2.31-1.18,3.43-0.84c3.58,1.1,6.56,0.29,9.69-2.62c11.11-10.34,22.26-20.65,33.4-30.96
		l10.75-9.94c3.55-3.28,7.1-6.56,10.64-9.83l5.18-4.79l0.82,0.61c5.26,3.92,11.28,12.05,12.09,20.63
		c1.03,10.9,1.27,20.69,0.72,29.91c-1.06,17.89-13.55,31.52-31.81,34.71c-2.33,0.41-5.02,0.62-7.44-2.03
		c-0.74-0.81-2.48-1.47-3.96-1.5c-6.6-0.14-13.32-0.12-19.82-0.1c-1.97,0.01-3.93,0.01-5.9,0.02c-2.47,0-4.37,1.04-5.49,3.01
		c-1.2,2.1-2.76,2.53-4.77,2.52c-10.04-0.06-20.41-0.11-30.61,0.01c-3.05,0.04-5.76,1.53-7.25,4c-1.43,2.37-1.5,5.19-0.2,7.72
		c1.58,3.07,4.2,4.51,8.25,4.51c0.02,0,0.04,0,0.05,0l1.08,0C121.03,207.7,125.3,207.68,129.6,207.68z M175.64,209.82
		c-1.21,0-2.42,0-3.64-0.01l-3.63-0.01l-3.4,0.01c-2.75,0.01-5.5,0.02-8.25-0.02c-3.79-0.04-5.66-1.89-5.71-5.65
		c-0.06-4.01-0.06-7.56,0.01-10.87c0.07-3.5,1.94-5.36,5.41-5.38c8.66-0.05,16.63-0.05,24.37,0c3.39,0.03,5.29,1.97,5.35,5.48
		c0.06,3.59,0.06,7.24,0,10.86c-0.06,3.57-1.98,5.48-5.58,5.54C178.92,209.81,177.28,209.82,175.64,209.82z M168.37,207.33
		l3.64,0.01c2.84,0.01,5.68,0.02,8.52-0.02c2.28-0.03,3.1-0.85,3.14-3.1c0.06-3.59,0.06-7.22,0-10.78
		c-0.03-2.15-0.87-3.03-2.89-3.05c-7.72-0.06-15.68-0.06-24.33,0c-2.14,0.01-2.91,0.79-2.95,2.96c-0.07,3.27-0.07,6.8-0.01,10.78
		c0.04,2.43,0.8,3.18,3.27,3.21c2.74,0.04,5.47,0.03,8.21,0.02L168.37,207.33z M188.11,207.34v-1.38c0-1.04-0.01-2.05-0.01-3.03
		c-0.02-2.86-0.04-5.55,0.11-8.25c0.08-1.38,1.91-2.72,3.07-2.87c18.12-2.26,31.52-14.62,34.97-32.26c0.64-3.29,0.73-6.75,0.73-10
		c0-1.46,0.01-2.93,0.02-4.39c0.04-5.74,0.08-11.67-0.48-17.42c-1.06-10.84-6.36-19.97-15.75-27.13c-0.75-0.57-1.53-1.11-2.17-1.54
		L207.1,98l5.54-13.57l1.23,0.74c8.48,5.06,15.09,12.3,19.63,21.52c3.47,7.05,5.22,14.44,5.19,21.98c-0.01,2.78,0.01,5.57,0.03,8.35
		c0.06,8.32,0.12,16.91-0.62,25.33c-1.94,22.15-21.15,41.61-43.73,44.28c-1,0.12-2.01,0.23-3.1,0.35L188.11,207.34z M190.67,194.93
		c-0.13,2.58-0.12,5.2-0.1,7.98c0,0.55,0.01,1.11,0.01,1.67l0.42-0.05c1.09-0.12,2.08-0.23,3.08-0.34
		c21.46-2.54,39.71-21.01,41.56-42.05c0.73-8.3,0.67-16.84,0.61-25.1c-0.02-2.79-0.04-5.59-0.03-8.38
		c0.02-7.15-1.64-14.17-4.94-20.87c-4.11-8.34-9.97-14.97-17.45-19.74l-3.7,9.05c0.64,0.44,1.41,0.97,2.14,1.53
		c9.95,7.6,15.57,17.31,16.71,28.86c0.58,5.87,0.53,11.87,0.49,17.68c-0.01,1.46-0.02,2.92-0.02,4.37c0,3.37-0.1,6.98-0.78,10.48
		c-3.6,18.43-18.16,31.87-37.09,34.23C191.35,194.3,190.83,194.69,190.67,194.93z M190.64,194.98L190.64,194.98L190.64,194.98z
		 M125.58,205.64c-3.47,0-6.94-0.01-10.41-0.03c-3.81-0.02-6.38-2.27-6.55-5.73c-0.08-1.72,0.49-3.31,1.6-4.49
		c1.12-1.19,2.71-1.85,4.47-1.87c7.84-0.08,15.52-0.07,23.64-0.06c3.04,0.01,6.1,0.01,9.18,0.01h1.24v12.16l-17.23,0
		C129.53,205.64,127.55,205.64,125.58,205.64z M129.29,195.92c-4.89,0-9.7,0.01-14.57,0.07c-1.1,0.01-2.04,0.39-2.7,1.09
		c-0.65,0.69-0.98,1.64-0.93,2.68c0.1,2.14,1.6,3.37,4.1,3.38c5.44,0.03,10.88,0.03,16.33,0.02l14.76,0v-7.22
		c-2.67,0-5.31-0.01-7.95-0.01C135.26,195.93,132.26,195.92,129.29,195.92z M128.14,167.15c-1.06,0-2.15-0.31-2.72-0.89
		c-3.82-3.87-7.55-7.95-11.16-11.9l-1.25-1.36c-1.04-1.13-1.16-2.21-1.08-2.91c0.1-0.93,0.6-1.8,1.48-2.61
		c1.46-1.34,2.92-2.68,4.46-4.1l2.84-2.61l17.53,18.92l-0.95,0.84c-0.68,0.6-1.34,1.2-1.99,1.79c-1.69,1.54-3.29,2.99-5.06,4.27
		C129.73,166.97,128.94,167.15,128.14,167.15z M120.57,144.25l-1.02,0.94c-1.54,1.42-3,2.76-4.47,4.1
		c-0.42,0.38-0.66,0.75-0.69,1.06c-0.03,0.28,0.12,0.61,0.45,0.97l1.25,1.36c3.59,3.93,7.3,7.99,11.09,11.83
		c0.26,0.17,1.32,0.22,1.64,0.06c1.64-1.19,3.19-2.6,4.82-4.09c0.35-0.32,0.71-0.64,1.07-0.97L120.57,144.25z M144.32,160.32
		c-0.05,0-0.11,0-0.16,0c-1.88-0.06-3.64-1.11-5.85-3.51l-4.3-4.65c-3.96-4.29-7.93-8.57-11.87-12.87
		c-3.48-3.78-3.36-7.16,0.37-10.61c26.97-24.98,53.94-49.95,80.93-74.9c3.69-3.42,7.17-3.28,10.63,0.43
		c5.59,6,11.29,12.17,16.92,18.32c3.3,3.6,3.15,7.01-0.45,10.41c-1.47,1.39-2.96,2.76-4.46,4.12l-1.33,1.22
		c-0.22,0.21-0.46,0.32-0.59,0.39l-0.62,0.31l-0.67-0.32l-3.17-1.98c-3-1.87-5.84-3.64-8.69-5.49c-0.91-0.59-1.59-1.47-2.14-2.26
		c-4.19-6.04-11.75-7.94-17.98-4.5c-6.07,3.35-8.69,10.71-6.09,17.11c2.69,6.62,9.73,9.96,16.76,7.94c2.95-0.84,3.78-0.41,6.71,2.18
		l1.02,0.9l-5.29,4.92c-2.99,2.78-5.97,5.55-8.95,8.32c-10.65,9.86-21.31,19.72-31.96,29.57l-12.79,11.83
		C147.94,159.38,146.14,160.32,144.32,160.32z M208.62,53.8c-1.09,0-2.21,0.6-3.51,1.8c-26.99,24.95-53.96,49.92-80.93,74.9
		c-2.7,2.51-2.76,4.37-0.23,7.13c3.95,4.3,7.91,8.58,11.87,12.86l4.3,4.65c1.7,1.84,2.97,2.68,4.11,2.72
		c1.16,0.05,2.5-0.72,4.39-2.47l12.78-11.83c10.65-9.85,21.31-19.71,31.96-29.57c2.99-2.76,5.97-5.54,8.95-8.32l3.29-3.06
		c-1.52-1.29-1.8-1.21-3.37-0.76c-8.26,2.37-16.56-1.58-19.74-9.39c-3.07-7.57,0.02-16.26,7.19-20.21
		c7.36-4.06,16.28-1.85,21.21,5.26c0.41,0.59,0.9,1.24,1.45,1.6c2.83,1.84,5.66,3.6,8.65,5.47l2.44,1.53l0.95-0.86
		c1.48-1.36,2.97-2.72,4.43-4.1c2.61-2.47,2.7-4.35,0.32-6.94c-5.63-6.14-11.32-12.3-16.9-18.3
		C210.94,54.49,209.79,53.8,208.62,53.8z M197.46,98.11c-0.01,0-0.03,0-0.04,0c-3.09-0.01-6-1.24-8.2-3.45
		c-2.22-2.24-3.43-5.21-3.41-8.36c0.04-6.35,5.21-11.55,11.53-11.6c0.03,0,0.05,0,0.08,0c3.09,0,6,1.2,8.21,3.38
		c2.23,2.21,3.46,5.15,3.47,8.28v0c0.01,3.15-1.22,6.11-3.45,8.34C203.46,96.91,200.55,98.11,197.46,98.11z M197.42,77.18
		c-0.02,0-0.04,0-0.06,0c-4.97,0.03-9.04,4.13-9.07,9.14c-0.02,2.49,0.94,4.83,2.69,6.6c1.73,1.75,4.02,2.71,6.45,2.72
		c0.01,0,0.02,0,0.03,0c2.42,0,4.71-0.95,6.44-2.68c1.76-1.76,2.73-4.1,2.72-6.58l0,0c-0.01-2.47-0.98-4.79-2.74-6.53
		C202.15,78.12,199.86,77.18,197.42,77.18z M231.59,70.19L216,53.35l0.67-0.83c3.98-4.95,8.42-6.74,13.55-5.5
		c4.46,1.08,7.4,4.04,8.51,8.55c1.68,6.87-2.45,11.06-6.24,13.94L231.59,70.19z M219.28,53.25l12.58,13.6
		c4.11-3.39,5.45-6.64,4.45-10.69c-0.88-3.61-3.13-5.87-6.69-6.74C225.76,48.48,222.44,49.7,219.28,53.25z"/>
</g>
<g>
	<g>
		<linearGradient id="SVGID_21_" gradientUnits="userSpaceOnUse" x1="4.3335" y1="101.3163" x2="141.2447" y2="101.3163">
			<stop  offset="0" style="stop-color:#123F69"/>
			<stop  offset="1" style="stop-color:#186198"/>
		</linearGradient>
		<path class="st23" d="M33.7,77.96c-0.87-6.18-1.81-12.13-2.49-18.11c-0.2-1.76-1.01-4.51,2.06-4.65c3.14-0.14,2.17,2.63,2.42,4.44
			c0.78,5.6,1.56,11.21,2.36,16.94c5.75-0.95,10.85-2.12,16.01-2.54c3.54-0.29,5.62-1.77,7.54-4.6c2.83-4.16,6.16-7.97,9.74-12.52
			c-5.02-3.65-10.04-7.29-15.06-10.92c-0.36-0.26-0.97-0.32-1.16-0.65c-0.6-1.02-1.7-2.33-1.44-3.17c0.56-1.79,2.22-1.51,3.59-0.69
			c2.48,1.48,5.03,2.87,7.33,4.6c3.31,2.48,6.41,5.22,9.58,7.84c3.5-2.97,6.89-6.09,10.53-8.87c4.92-3.75,10.24-6.81,16.57-7.48
			c4.07-0.43,7.68,0.61,10.7,3.48c1.14,1.09,1.66,2.48,0.33,3.45c-0.7,0.51-2.55,0.4-3.23-0.18c-3.11-2.7-6.58-2.83-10.19-1.75
			c-8.71,2.59-15.07,8.6-21.32,14.63c4.08,5.1,8,10.03,11.99,14.91c0.39,0.48,1.16,0.84,1.79,0.92c6.25,0.86,12.51,1.65,19.13,2.51
			c0.25-1.06,0.53-2.34,0.86-3.61c0.38-1.49,0.99-2.96,2.86-2.48c1.72,0.44,2.01,1.82,1.53,3.47c-0.35,1.2-0.53,2.44-0.84,3.91
			c2.38,0.75,4.69,1.42,6.96,2.21c6.61,2.28,12.99,5.01,18.13,9.94c0.69,0.66,1.32,1.85,1.24,2.73c-0.17,1.82-2.34,2.22-3.99,0.71
			c-6.54-6.01-14.63-8.73-22.94-11.03c-0.16-0.04-0.35,0.03-0.4,0.03c-2.36,6.01-4.74,11.94-6.97,17.92c-0.3,0.8-0.08,1.94,0.25,2.8
			c2.12,5.56,4.33,11.09,6.51,16.63c1.54,3.92,0.98,5.05-3.09,5.78c-5.51,0.98-11.02,1.94-16.56,2.76c-2.1,0.31-3.51,1.14-4.79,2.93
			c-3.31,4.62-6.91,9.03-10.61,13.81c5.46,5.28,11.34,10.24,18.67,13.13c3.27,1.29,6.64,2.32,9.98,3.39
			c1.55,0.5,2.76,1.22,2.22,3.05c-0.55,1.85-1.96,1.68-3.52,1.28c-11.75-3-21.92-8.72-30.55-17.77c-1,0.96-1.87,1.82-2.77,2.64
			c-6.36,5.83-12.95,11.33-21.61,13.41c-8.41,2.02-14.87-1.7-17.38-10.01c-2.12-7.01-1.53-14.12-0.37-21.21
			c0.4-2.48,0.96-4.93,1.45-7.4c-4.12-1.47-8.27-2.53-12.01-4.41c-4.55-2.29-8.94-5.04-13.05-8.06c-3.03-2.23-4.8-5.6-5.31-9.45
			c-0.21-1.56-0.04-3.05,1.89-3.26c1.65-0.18,2.37,0.83,2.54,2.46c0.33,3.25,2.18,5.69,4.57,7.74c6.48,5.55,14.31,8.18,22.36,10.37
			c2.39-6.13,4.72-12.06,7-18.01c0.18-0.46,0.16-1.11-0.03-1.56c-2.47-5.98-4.98-11.94-7.57-18.1c-2.33,0.78-4.72,1.56-7.09,2.39
			c-1.68,0.59-3.64,1.8-4.53-0.76c-0.9-2.58,1.51-2.84,3.12-3.45C29.1,79.52,31.57,78.71,33.7,77.96z M74.71,77.26
			c0-0.12,0-0.25,0-0.37c-3.79,0.19-7.59,0.25-11.35,0.64c-1.12,0.12-2.59,0.93-3.15,1.87c-3.88,6.6-7.61,13.3-11.25,20.04
			c-0.45,0.84-0.46,2.36,0.01,3.18c3.8,6.65,7.72,13.24,11.75,19.75c0.49,0.8,1.83,1.54,2.77,1.54c7.76,0,15.53-0.13,23.28-0.37
			c0.94-0.03,2.24-0.79,2.71-1.6c3.86-6.62,7.6-13.31,11.25-20.04c0.41-0.76,0.38-2.17-0.05-2.92c-3.85-6.73-7.79-13.41-11.86-20
			c-0.53-0.86-1.96-1.57-3.01-1.63C82.11,77.14,78.41,77.26,74.71,77.26z M39.17,125.67c-0.54,2.65-1.17,5.09-1.53,7.58
			c-0.93,6.27-1.58,12.57,0.38,18.78c1.86,5.89,5.97,8.3,11.88,6.84c9.15-2.28,15.68-8.52,22.07-14.65
			c-4.1-5.12-8.03-10.05-12.01-14.94c-0.41-0.51-1.11-0.99-1.74-1.08C51.97,127.31,45.73,126.52,39.17,125.67z M85.11,128.71
			c-6.86,0-13.17,0-20.16,0c3.68,4.32,6.9,8.1,10.37,12.17C78.75,136.63,81.83,132.79,85.11,128.71z M45.46,95.76
			c3.44-6.14,6.5-11.61,9.87-17.63c-5.39,0.97-10.28,1.84-15.65,2.81C41.68,86.05,43.48,90.67,45.46,95.76z M93.67,77.64
			c3.62,6.1,6.87,11.57,10.36,17.43c1.84-5.08,3.55-9.8,5.44-14.99C104.12,79.25,99.18,78.49,93.67,77.64z M55.73,123.56
			c-3.47-5.85-6.68-11.26-10.16-17.13c-1.82,5.09-3.48,9.71-5.28,14.75C45.59,121.99,50.44,122.74,55.73,123.56z M109.79,120.3
			c-1.95-4.99-3.75-9.57-5.69-14.53c-3.37,6.02-6.41,11.47-9.69,17.33C99.72,122.13,104.56,121.25,109.79,120.3z M64.67,72.5
			c6.78,0,12.93,0,19.77,0c-3.6-4.24-6.76-7.96-10.18-11.98C70.92,64.69,67.9,68.45,64.67,72.5z"/>
		<linearGradient id="SVGID_22_" gradientUnits="userSpaceOnUse" x1="3.0968" y1="101.3108" x2="142.4808" y2="101.3108">
			<stop  offset="0" style="stop-color:#123F69"/>
			<stop  offset="1" style="stop-color:#186198"/>
		</linearGradient>
		<path class="st24" d="M107.57,166.37c-0.75,0-1.45-0.18-1.88-0.29c-11.92-3.05-21.84-8.69-30.28-17.23l-0.04,0.04
			c-0.64,0.62-1.24,1.2-1.86,1.77c-6.26,5.74-13.14,11.53-22.16,13.7c-9.09,2.18-16.14-1.87-18.85-10.85
			c-2.26-7.47-1.53-14.87-0.41-21.77c0.28-1.73,0.64-3.46,0.99-5.14c0.09-0.42,0.17-0.83,0.26-1.25c-0.93-0.32-1.86-0.62-2.78-0.92
			c-2.8-0.91-5.7-1.86-8.36-3.2c-4.46-2.25-8.91-5-13.22-8.17c-3.22-2.37-5.22-5.92-5.81-10.29c-0.13-0.98-0.21-2.4,0.63-3.46
			c0.53-0.68,1.33-1.08,2.35-1.19c1.02-0.11,1.88,0.11,2.56,0.66c0.75,0.61,1.2,1.59,1.34,2.91c0.26,2.52,1.58,4.72,4.15,6.92
			c6.26,5.36,13.94,7.92,20.81,9.82l1-2.56c1.9-4.87,3.77-9.63,5.6-14.41c0.05-0.14,0.06-0.47-0.02-0.65
			c-1.98-4.8-3.99-9.58-6.04-14.46l-1.08-2.57l-1.04,0.35c-1.64,0.55-3.3,1.1-4.94,1.67c-0.21,0.07-0.43,0.16-0.64,0.24
			c-1.1,0.43-2.46,0.96-3.73,0.37c-0.79-0.36-1.37-1.08-1.74-2.14c-0.36-1.04-0.35-1.96,0.04-2.73c0.63-1.25,2-1.69,3.1-2.05
			c0.24-0.08,0.49-0.16,0.71-0.24c1.74-0.66,3.46-1.25,5.13-1.82l0.97-0.34c-0.2-1.37-0.39-2.74-0.59-4.09
			c-0.65-4.48-1.27-8.7-1.76-13.04c-0.02-0.2-0.05-0.4-0.08-0.62c-0.18-1.27-0.43-3,0.58-4.23c0.6-0.73,1.52-1.13,2.73-1.18
			c1.17-0.05,2.09,0.23,2.72,0.84c0.99,0.96,0.97,2.37,0.95,3.5c-0.01,0.43-0.01,0.84,0.03,1.16c0.56,4.05,1.13,8.1,1.7,12.21
			l0.48,3.48c1.31-0.23,2.59-0.46,3.84-0.69c3.79-0.69,7.37-1.35,11.02-1.65c2.98-0.24,4.77-1.34,6.62-4.06
			c1.99-2.92,4.22-5.68,6.59-8.59c0.79-0.97,1.59-1.96,2.41-2.99l-2.02-1.47c-4-2.9-7.99-5.8-11.99-8.69
			c-0.07-0.04-0.16-0.07-0.24-0.1c-0.37-0.14-0.93-0.36-1.26-0.93c-0.13-0.22-0.28-0.45-0.44-0.68c-0.7-1.07-1.5-2.27-1.12-3.48
			c0.39-1.25,1.17-1.78,1.75-2.01c1.03-0.39,2.32-0.17,3.65,0.62c0.53,0.31,1.05,0.62,1.58,0.93c1.96,1.15,3.99,2.34,5.86,3.74
			c2.35,1.76,4.61,3.67,6.8,5.51c0.68,0.57,1.35,1.14,2.03,1.7c0.81-0.69,1.61-1.39,2.41-2.09c2.37-2.07,4.83-4.2,7.38-6.15
			c4.18-3.19,9.91-6.95,17.19-7.73c4.58-0.49,8.51,0.79,11.68,3.81c1.03,0.98,1.56,2.1,1.5,3.15c-0.04,0.6-0.29,1.47-1.29,2.2
			c-1.16,0.85-3.65,0.72-4.76-0.25c-2.45-2.13-5.32-2.6-9.03-1.5c-8.21,2.45-14.48,8.24-20,13.55l1.98,2.48
			c3.13,3.92,6.19,7.75,9.3,11.55c0.15,0.18,0.6,0.43,1.01,0.48c4.84,0.67,9.69,1.29,14.7,1.94l3.31,0.43
			c0.19-0.8,0.39-1.68,0.61-2.54c0.3-1.16,0.75-2.44,1.87-3.11c0.71-0.42,1.55-0.51,2.49-0.27c1.28,0.33,1.92,1.05,2.23,1.59
			c0.52,0.91,0.58,2.06,0.18,3.42c-0.22,0.76-0.37,1.54-0.54,2.44c-0.02,0.09-0.03,0.18-0.05,0.27c0.39,0.12,0.78,0.24,1.17,0.36
			c1.64,0.51,3.19,0.98,4.77,1.53c6.44,2.22,13.14,5,18.58,10.21c0.9,0.86,1.74,2.42,1.62,3.74c-0.11,1.19-0.81,2.14-1.87,2.54
			c-1.33,0.51-2.93,0.11-4.18-1.04c-6.33-5.82-14.16-8.44-21.71-10.54l-1.34,3.41c-1.76,4.45-3.57,9.05-5.27,13.58
			c-0.14,0.38-0.04,1.17,0.24,1.92c1.52,4,3.09,7.97,4.67,11.95l1.84,4.67c0.83,2.12,1.23,3.81,0.47,5.18
			c-0.8,1.43-2.63,1.93-4.49,2.27c-4.98,0.89-10.79,1.91-16.59,2.77c-1.8,0.26-2.91,0.95-3.97,2.43c-2.37,3.31-4.84,6.46-7.47,9.79
			c-0.82,1.05-1.65,2.1-2.49,3.17c4.94,4.71,10.49,9.35,17.46,12.1c2.75,1.09,5.65,2.01,8.45,2.9l1.46,0.46
			c2.66,0.85,3.68,2.39,3.03,4.58C110.13,165.91,108.78,166.37,107.57,166.37z M75.48,145.36l0.86,0.9
			c8.3,8.7,18.1,14.4,29.96,17.43c1.77,0.45,1.85,0.18,2.03-0.43c0.18-0.59,0.29-0.97-1.41-1.51l-1.46-0.46
			c-2.84-0.9-5.77-1.83-8.61-2.95c-7.78-3.07-14-8.49-19.07-13.39l-0.8-0.77l0.68-0.88c1.07-1.38,2.13-2.73,3.18-4.07
			c2.6-3.31,5.06-6.44,7.4-9.7c1.46-2.04,3.14-3.07,5.62-3.43c5.77-0.85,11.55-1.87,16.52-2.75c1.61-0.29,2.54-0.64,2.76-1.04
			c0.23-0.41,0.03-1.45-0.61-3.07l-1.84-4.67c-1.58-3.99-3.15-7.97-4.68-11.98c-0.25-0.65-0.76-2.29-0.25-3.67
			c1.7-4.56,3.52-9.17,5.28-13.62l1.97-5l0.66-0.08c0.18-0.04,0.54-0.12,0.94-0.01c7.71,2.13,16.51,4.93,23.45,11.31
			c0.62,0.57,1.27,0.69,1.62,0.55c0.13-0.05,0.27-0.15,0.3-0.47c0.04-0.37-0.34-1.22-0.86-1.72c-5.1-4.88-11.51-7.53-17.68-9.66
			c-1.53-0.53-3.07-1-4.69-1.5c-0.74-0.23-1.48-0.46-2.24-0.7l-1.07-0.34l0.23-1.1c0.1-0.46,0.18-0.9,0.26-1.33
			c0.18-0.93,0.34-1.8,0.6-2.67c0.19-0.66,0.21-1.21,0.04-1.5c-0.04-0.07-0.16-0.29-0.69-0.42c-0.28-0.07-0.49-0.07-0.62,0
			c-0.26,0.15-0.51,0.69-0.74,1.59c-0.22,0.88-0.43,1.76-0.61,2.57l-0.49,2.11l-5.53-0.72c-5.02-0.65-9.87-1.27-14.72-1.94
			c-0.76-0.11-1.9-0.53-2.58-1.37c-3.11-3.81-6.18-7.64-9.31-11.57l-3.39-4.24l0.81-0.78c5.92-5.71,12.63-12.18,21.82-14.92
			c4.53-1.35,8.25-0.7,11.35,2c0.28,0.21,1.39,0.28,1.7,0.11c0.25-0.19,0.26-0.31,0.26-0.35c0.02-0.23-0.21-0.69-0.74-1.2
			c-2.66-2.53-5.83-3.55-9.72-3.15c-5.21,0.55-10.13,2.79-15.95,7.24c-2.49,1.9-4.91,4.01-7.26,6.05c-1.07,0.93-2.14,1.86-3.22,2.78
			l-0.79,0.67l-0.8-0.66c-0.95-0.78-1.9-1.58-2.84-2.38c-2.17-1.82-4.41-3.71-6.69-5.42c-1.75-1.32-3.72-2.47-5.62-3.58
			c-0.53-0.31-1.07-0.63-1.6-0.94c-0.71-0.42-1.27-0.52-1.5-0.44c-0.13,0.05-0.22,0.26-0.28,0.43c0.04,0.18,0.55,0.96,0.83,1.39
			c0.14,0.21,0.27,0.42,0.4,0.62c0.04,0.02,0.09,0.03,0.13,0.05c0.23,0.09,0.52,0.2,0.79,0.4c4,2.89,8,5.79,11.99,8.69l4.11,2.98
			l-0.8,1.01c-1.1,1.4-2.18,2.73-3.23,4.03c-2.33,2.87-4.53,5.59-6.46,8.42c-2.27,3.34-4.73,4.83-8.46,5.13
			c-3.52,0.28-7.04,0.93-10.77,1.61c-1.66,0.31-3.37,0.62-5.14,0.91L37,78.01l-0.84-5.99c-0.57-4.1-1.14-8.16-1.7-12.21
			c-0.07-0.51-0.06-1.03-0.06-1.53c0.01-0.59,0.02-1.48-0.2-1.69c-0.09-0.09-0.37-0.17-0.89-0.15c-0.27,0.01-0.75,0.07-0.94,0.29
			c-0.32,0.38-0.15,1.54-0.04,2.3c0.04,0.24,0.07,0.48,0.09,0.7c0.49,4.3,1.1,8.51,1.75,12.96c0.25,1.69,0.49,3.39,0.74,5.11
			l0.14,1.01l-2.91,1.01c-1.62,0.55-3.35,1.15-5.06,1.79c-0.26,0.1-0.54,0.19-0.83,0.28c-0.63,0.2-1.49,0.48-1.65,0.8
			c-0.07,0.14-0.04,0.44,0.09,0.81c0.13,0.38,0.29,0.64,0.44,0.71c0.32,0.15,1.17-0.19,1.8-0.43c0.24-0.1,0.49-0.19,0.72-0.27
			c1.66-0.58,3.33-1.14,4.98-1.68l3.21-1.07l1.97,4.68c2.05,4.89,4.07,9.68,6.05,14.48c0.31,0.76,0.33,1.73,0.04,2.48
			c-1.83,4.78-3.7,9.55-5.6,14.42l-1.81,4.63l-1.07-0.29c-7.39-2.01-15.87-4.65-22.84-10.62c-3.04-2.6-4.68-5.4-5-8.55
			c-0.06-0.61-0.22-1.06-0.44-1.24c-0.14-0.12-0.39-0.15-0.74-0.12c-0.23,0.03-0.54,0.09-0.67,0.26c-0.11,0.14-0.27,0.53-0.12,1.61
			c0.49,3.68,2.16,6.66,4.82,8.62c4.2,3.09,8.53,5.77,12.87,7.95c2.5,1.26,5.18,2.13,8.02,3.05c1.28,0.42,2.57,0.84,3.86,1.3l1,0.36
			l-0.21,1.04c-0.15,0.78-0.31,1.55-0.48,2.32c-0.34,1.65-0.7,3.36-0.97,5.04c-1.08,6.6-1.78,13.67,0.33,20.65
			c2.33,7.7,8.13,11.04,15.91,9.17c8.45-2.03,15.04-7.6,21.06-13.12c0.6-0.55,1.19-1.12,1.81-1.72L75.48,145.36z M46.68,160.51
			c-4.73,0-8.16-2.8-9.85-8.12c-2.07-6.54-1.34-13.13-0.42-19.33c0.26-1.74,0.63-3.41,1.02-5.19c0.18-0.8,0.36-1.62,0.53-2.45
			l0.23-1.13l5.53,0.72c4.99,0.65,9.83,1.27,14.66,1.95c1.07,0.15,2.03,0.91,2.53,1.52c3.08,3.78,6.13,7.59,9.24,11.48l3.48,4.34
			l-0.81,0.78c-6.45,6.19-13.11,12.6-22.62,14.96C48.96,160.36,47.79,160.51,46.68,160.51z M40.14,127.04
			c-0.1,0.46-0.2,0.91-0.3,1.37c-0.38,1.73-0.74,3.37-0.99,5.02c-0.88,5.91-1.57,12.19,0.34,18.22c1.67,5.29,5.17,7.31,10.4,6.01
			c8.48-2.11,14.73-7.85,20.69-13.56l-2.07-2.58c-3.11-3.89-6.16-7.69-9.23-11.47c-0.27-0.33-0.72-0.6-0.95-0.63
			c-4.83-0.68-9.66-1.3-14.64-1.95L40.14,127.04z M75.36,142.82l-13.08-15.35h25.41L75.36,142.82z M67.63,129.95l7.67,9l7.23-9
			H67.63z M58.13,125.18l-19.51-3.01l6.67-18.63L58.13,125.18z M41.95,120.18l11.38,1.76l-7.49-12.62L41.95,120.18z M63.59,125.15
			c-0.04,0-0.07,0-0.11,0c-1.38,0-3.1-0.95-3.82-2.12c-4.03-6.52-7.99-13.18-11.77-19.79c-0.68-1.18-0.69-3.15-0.03-4.38
			c3.97-7.35,7.65-13.92,11.27-20.08c0.8-1.36,2.7-2.33,4.08-2.48c2.76-0.29,5.58-0.41,8.29-0.51c1.04-0.04,2.09-0.08,3.13-0.13
			l1.29-0.06l0,0.43c0.6,0,1.21-0.01,1.81-0.01c2.66-0.02,5.4-0.05,8.11,0.1c1.34,0.07,3.2,0.92,4,2.21
			c3.75,6.07,7.63,12.62,11.88,20.04c0.65,1.14,0.68,2.99,0.07,4.13c-3.78,6.98-7.57,13.73-11.26,20.08
			c-0.69,1.18-2.36,2.17-3.74,2.22C79.04,125.02,71.23,125.15,63.59,125.15z M73.47,78.19c-0.62,0.03-1.24,0.05-1.86,0.08
			c-2.68,0.11-5.45,0.22-8.13,0.5c-0.79,0.08-1.88,0.71-2.21,1.27c-3.6,6.13-7.28,12.67-11.23,20c-0.25,0.47-0.25,1.54,0,1.98
			c3.77,6.59,7.71,13.22,11.73,19.72c0.27,0.43,1.2,0.95,1.72,0.95c0.04,0,0.07,0,0.11,0c7.62,0,15.4-0.13,23.14-0.37
			c0.52-0.02,1.43-0.55,1.69-0.99c3.68-6.32,7.46-13.05,11.23-20.01c0.21-0.38,0.18-1.33-0.04-1.72
			c-4.24-7.39-8.11-13.92-11.84-19.97c-0.29-0.47-1.33-1.01-2.02-1.04c-2.63-0.14-5.34-0.12-7.96-0.09
			c-1.02,0.01-2.04,0.02-3.07,0.02h-1.23L73.47,78.19z M92.06,124.78l12.25-21.9l7.19,18.36L92.06,124.78z M103.91,108.66
			l-7.13,12.75l11.32-2.06L103.91,108.66z M45.26,98.65l-7.28-18.67l19.7-3.53L45.26,98.65z M41.38,81.89l4.28,10.98l7.31-13.06
			L41.38,81.89z M104.3,97.95L91.27,76.01l19.87,3.08L104.3,97.95z M96.07,79.26l7.68,12.93l4.03-11.12L96.07,79.26z M87.11,73.73
			H62.1l12.14-15.16L87.11,73.73z M67.24,71.26h14.52l-7.48-8.8L67.24,71.26z"/>
	</g>
	<g>
		<linearGradient id="SVGID_23_" gradientUnits="userSpaceOnUse" x1="105.285" y1="57.162" x2="124.5945" y2="57.162">
			<stop  offset="0" style="stop-color:#123F69"/>
			<stop  offset="1" style="stop-color:#186198"/>
		</linearGradient>
		<path class="st25" d="M115,66.75c-5.33,0.03-9.72-4.3-9.72-9.58c0-5.29,4.39-9.62,9.72-9.6c5.2,0.03,9.49,4.25,9.59,9.46
			C124.7,62.29,120.33,66.72,115,66.75z M120.01,57.26c0.04-2.87-2.23-5.23-5.04-5.24c-2.79-0.01-5.15,2.38-5.12,5.19
			c0.02,2.77,2.18,4.97,4.94,5.05C117.67,62.34,119.96,60.15,120.01,57.26z"/>
	</g>
	<g>
		<linearGradient id="SVGID_24_" gradientUnits="userSpaceOnUse" x1="30.3672" y1="41.7138" x2="48.9093" y2="41.7138">
			<stop  offset="0" style="stop-color:#123F69"/>
			<stop  offset="1" style="stop-color:#186198"/>
		</linearGradient>
		<path class="st26" d="M39.62,51c-5.18-0.02-9.27-4.12-9.25-9.29c0.02-5.11,4.23-9.31,9.32-9.29c5.14,0.02,9.23,4.17,9.22,9.35
			C48.9,46.97,44.83,51.02,39.62,51z M44.46,41.83c0.04-2.63-2.1-4.86-4.72-4.91c-2.57-0.05-4.87,2.16-4.93,4.74
			c-0.05,2.6,2.12,4.82,4.75,4.86C42.23,46.57,44.42,44.47,44.46,41.83z"/>
	</g>
	<g>
		<linearGradient id="SVGID_25_" gradientUnits="userSpaceOnUse" x1="4.2952" y1="89.8992" x2="22.8236" y2="89.8992">
			<stop  offset="0" style="stop-color:#123F69"/>
			<stop  offset="1" style="stop-color:#186198"/>
		</linearGradient>
		<path class="st27" d="M13.56,80.63c5.17,0,9.27,4.1,9.27,9.27c0,5.19-4.07,9.26-9.27,9.26c-5.2,0-9.26-4.06-9.26-9.26
			C4.29,84.73,8.38,80.63,13.56,80.63z M18.39,89.78c-0.07-2.6-2.38-4.79-4.96-4.71c-2.6,0.08-4.78,2.37-4.7,4.96
			c0.08,2.61,2.35,4.77,4.95,4.7C16.29,94.66,18.46,92.37,18.39,89.78z"/>
	</g>
	<g>
		<linearGradient id="SVGID_26_" gradientUnits="userSpaceOnUse" x1="58.4082" y1="100.5665" x2="91.3835" y2="100.5665">
			<stop  offset="0" style="stop-color:#123F69"/>
			<stop  offset="1" style="stop-color:#186198"/>
		</linearGradient>
		<path class="st28" d="M74.74,117.08c-9.17-0.05-16.44-7.47-16.33-16.67c0.11-9.05,7.45-16.35,16.46-16.35
			c9.08,0,16.55,7.51,16.51,16.61C91.35,109.81,83.93,117.12,74.74,117.08z M86.85,100.76c0.06-6.77-5.18-12.1-11.91-12.14
			c-6.62-0.04-11.97,5.15-12.07,11.71c-0.11,6.73,5.14,12.22,11.79,12.32C81.36,112.75,86.8,107.44,86.85,100.76z"/>
		<linearGradient id="SVGID_27_" gradientUnits="userSpaceOnUse" x1="57.1717" y1="100.5662" x2="92.6197" y2="100.5662">
			<stop  offset="0" style="stop-color:#123F69"/>
			<stop  offset="1" style="stop-color:#186198"/>
		</linearGradient>
		<path class="st29" d="M74.83,118.31c-0.03,0-0.06,0-0.1,0c-4.76-0.02-9.2-1.89-12.51-5.25c-3.32-3.38-5.11-7.88-5.06-12.67
			c0.12-9.68,8.06-17.57,17.7-17.57c0,0,0,0,0,0c4.71,0,9.16,1.86,12.53,5.24c3.38,3.39,5.23,7.87,5.22,12.61
			c-0.02,4.73-1.87,9.17-5.22,12.49C84.05,116.49,79.59,118.31,74.83,118.31z M74.87,85.29C74.87,85.29,74.87,85.29,74.87,85.29
			c-8.3,0-15.13,6.79-15.23,15.13c-0.05,4.13,1.49,8,4.35,10.9c2.84,2.89,6.66,4.49,10.76,4.51l0,0c4.18,0,8.01-1.55,10.91-4.43
			c2.88-2.86,4.47-6.67,4.49-10.74c0.01-4.08-1.58-7.94-4.49-10.86C82.75,86.9,78.93,85.29,74.87,85.29z M74.85,113.89
			c-0.07,0-0.14,0-0.21,0c-3.55-0.05-6.85-1.49-9.3-4.05c-2.44-2.56-3.76-5.94-3.7-9.52c0.12-7.26,5.93-12.93,13.24-12.93
			c0.02,0,0.05,0,0.07,0c3.57,0.02,6.89,1.4,9.35,3.89c2.47,2.51,3.82,5.88,3.79,9.5c-0.03,3.56-1.44,6.88-3.97,9.35
			C81.63,112.55,78.35,113.89,74.85,113.89z M74.88,89.86c-5.95,0-10.68,4.6-10.77,10.49c-0.05,2.93,1.03,5.69,3.02,7.77
			c1.99,2.08,4.67,3.25,7.55,3.29c2.92,0.08,5.65-1.04,7.72-3.06c2.06-2.01,3.2-4.71,3.22-7.6l0,0c0.02-2.95-1.07-5.7-3.08-7.74
			c-1.99-2.02-4.69-3.14-7.6-3.15C74.92,89.86,74.9,89.86,74.88,89.86z"/>
	</g>
</g>
</svg>
