<?xml version="1.0" encoding="utf-8"?>
<!-- Generator: Adobe Illustrator 25.0.0, SVG Export Plug-In . SVG Version: 6.00 Build 0)  -->
<svg version="1.1" id="Camada_1" xmlns="http://www.w3.org/2000/svg" xmlns:xlink="http://www.w3.org/1999/xlink" x="0px" y="0px"
	 viewBox="0 0 246.71 246.71" style="enable-background:new 0 0 246.71 246.71;" xml:space="preserve">
<style type="text/css">
	.st0{fill:url(#SVGID_1_);}
	.st1{fill:url(#SVGID_2_);}
	.st2{fill:url(#SVGID_3_);}
	.st3{fill:url(#SVGID_4_);}
	.st4{fill:url(#SVGID_5_);}
	.st5{fill:url(#SVGID_6_);}
	.st6{fill:#123F69;}
	.st7{fill:#186198;}
	.st8{fill:url(#SVGID_7_);}
	.st9{fill:url(#SVGID_8_);}
	.st10{fill:url(#SVGID_9_);}
	.st11{fill:url(#SVGID_10_);}
	.st12{fill:url(#SVGID_11_);}
	.st13{fill:url(#SVGID_12_);}
	.st14{fill:url(#SVGID_13_);}
	.st15{fill:url(#SVGID_14_);}
	.st16{fill:url(#SVGID_15_);}
	.st17{fill:url(#SVGID_16_);}
	.st18{fill:url(#SVGID_17_);}
	.st19{fill:url(#SVGID_18_);}
	.st20{fill-rule:evenodd;clip-rule:evenodd;fill:url(#path22_1_);}
	.st21{fill:url(#SVGID_19_);}
	.st22{fill:url(#SVGID_20_);}
</style>
<g>
	<g>
		<linearGradient id="SVGID_1_" gradientUnits="userSpaceOnUse" x1="295.1443" y1="132.9175" x2="295.6604" y2="132.9175">
			<stop  offset="0" style="stop-color:#FFFFFF"/>
			<stop  offset="1" style="stop-color:#000000"/>
		</linearGradient>
		<path class="st0" d="M455.12,255.28c-55.3,0-110.59,0-165.89,0c-0.2-0.12-0.39-0.31-0.61-0.34
			c-11.09-1.34-22.45-11.62-22.41-27.33c0.16-63.25,0.06-126.5,0.07-189.74c0-15.91,11.35-27.29,27.21-27.3
			c52.74-0.02,105.49-0.01,158.23,0c1.11,0,2.24,0.01,3.33,0.2c7.42,1.34,12.01,7.16,12.01,15.22c0.01,63.65,0,127.29,0,190.94
			c0,7.97,0.04,15.93-0.02,23.9c-0.05,6.72-4.18,12.08-10.62,13.96C455.99,254.92,455.56,255.12,455.12,255.28z M297.36,202.7
			c1.12,0,1.91,0,2.69,0c50.36,0,100.71,0,151.07,0c4.88,0,6.39-1.53,6.39-6.45c0-56.56,0-113.12,0-169.68
			c0-4.94-1.5-6.45-6.39-6.45c-50.36,0-100.71,0-151.07,0c-0.85,0-1.69,0-2.7,0c0,1.16,0,2.02,0,2.89c0,21.59,0,43.18,0,64.77
			c0,0.72,0.03,1.44-0.02,2.15c-0.18,2.74-2.16,4.72-4.72,4.74c-2.57,0.02-4.6-1.94-4.8-4.66c-0.05-0.71-0.02-1.43-0.02-2.15
			c0-21.35,0-42.7,0-64.05c0-0.9,0-1.8,0-2.77c-7.18,1.86-11.94,8.48-11.95,16.32c-0.01,56.32-0.01,112.64,0,168.96
			c0,0.66,0.09,1.32,0.12,1.67c3.95-1.81,7.81-3.58,11.83-5.42c0-0.62,0-1.49,0-2.36c0-21.75,0-43.5,0-65.24
			c0-0.72-0.03-1.44,0.02-2.15c0.2-2.72,2.23-4.67,4.8-4.65c2.57,0.02,4.54,1.99,4.72,4.74c0.05,0.71,0.02,1.43,0.02,2.15
			c0,21.51,0,43.02,0,64.53C297.36,200.52,297.36,201.46,297.36,202.7z M438.29,212.26c-0.98,0-1.77,0-2.55,0
			c-47.3,0-94.61,0-141.91,0c-0.72,0-1.43-0.01-2.15,0.03c-8.57,0.42-15.61,7.62-15.81,16.17c-0.23,9.65,7.24,17.24,17.14,17.25
			c47.78,0.03,95.56,0.01,143.34,0.01c0.61,0,1.23-0.05,1.94-0.09C438.29,234.51,438.29,223.55,438.29,212.26z M457.52,211.86
			c-3.28,0.2-6.34,0.39-9.41,0.58c0,11.12,0,22.13,0,33.28c1.17,0,2.19,0,3.22,0c4.59-0.01,6.19-1.59,6.19-6.16
			c0.01-5.88,0-11.77,0-17.65C457.52,218.51,457.52,215.11,457.52,211.86z"/>
		<path d="M319.13,103.77c-4.16-6.92-5.16-14.1-2.47-21.64c1.54-4.3,4.19-7.82,7.7-10.75c0.62-0.52,1.23-1.53,1.19-2.28
			c-0.59-12.35,9.87-21.81,21.02-20.85c0.23,0.02,0.47-0.04,0.7-0.07c4.82-13.36,20.2-16.79,30.19-7.24
			c10.39-9.92,25.71-5.5,30,7.12c2.04,0.18,4.13,0.16,6.12,0.58c9.37,1.97,15.79,10,15.67,19.56c-0.02,1.56,0.35,2.56,1.62,3.6
			c8.93,7.3,11.37,19.85,5.96,30.03c-0.33,0.63-0.68,1.24-1.24,2.25c0.53,0.39,1.15,0.75,1.66,1.23
			c12.73,12.11,11.08,32.61-3.45,42.49c-1.15,0.78-1.67,1.57-1.79,3.01c-0.82,10.42-6.09,17.66-15.78,21.68
			c-0.72,0.3-1.52,0.93-1.82,1.61c-6.4,14.54-25.63,17.93-36.42,5.68c-0.15-0.17-0.37-0.28-0.63-0.47
			c-3.66,4.14-8.1,6.86-13.63,7.68c-9.58,1.42-18.67-3.46-22.98-12.29c-0.46-0.94-1.42-1.89-2.38-2.3
			c-9.55-4.11-14.66-11.32-15.6-21.63c-0.08-0.88-0.53-2.04-1.2-2.52c-15.53-11.14-16.91-30.62-3.03-43.78
			C318.72,104.33,318.85,104.12,319.13,103.77z M351.66,173.75c2.97,3.16,6.78,4.5,10.64,3.82c6.5-1.14,10.33-5.95,10.34-13.13
			c0.02-26.84,0.01-53.68,0-80.52c0-0.77-0.08-1.54-0.11-1.99c-2.98-0.22-5.76-0.21-8.45-0.7c-2.55-0.46-4-3.06-3.5-5.43
			c0.53-2.49,2.67-3.93,5.29-3.83c1.79,0.07,3.61-0.07,5.37-0.39c0.54-0.1,1.32-1.08,1.32-1.66c0.04-6.05,0.15-12.11-0.18-18.14
			c-0.19-3.55-3.42-6.24-7.09-6.68c-3.37-0.41-7,1.66-8.2,4.91c-0.26,0.69,0.11,1.89,0.6,2.54c1.24,1.64,2.87,2.99,4.06,4.65
			c1.9,2.68,1.44,5.56-0.89,7.15c-2.29,1.57-5.11,0.88-6.97-1.82c-2.63-3.82-6.23-5.35-10.74-4.55c-3.91,0.69-7.14,4-7.82,8.08
			c-0.73,4.44,0.96,7.91,4.66,10.47c2.7,1.86,3.34,4.66,1.72,6.98c-1.63,2.35-4.4,2.75-7.14,0.81c-1.85-1.31-3.49-2.91-5.21-4.37
			c-4.76,4.32-5.96,11.21-3.05,17.05c0.75,1.5,1.47,2.38,3.45,1.84c2.29-0.62,4.57,0.9,5.28,3.04c0.77,2.32-0.23,4.73-2.47,5.83
			c-0.71,0.35-1.49,0.55-2.23,0.82c-7.26,2.65-12.01,9.6-11.71,17.15c0.31,7.88,5.32,14.65,12.85,16.49
			c2.91,0.71,6.13,0.44,9.18,0.22c2.98-0.21,5,0.5,5.95,2.78c1.15,2.77-0.25,5.76-3.42,6.4c-3.38,0.69-6.86,0.86-10.3,1.26
			c1.06,7.45,8.72,12.63,16.78,11.25c3.92-0.67,6.27,0.4,6.96,3.16c0.72,2.91-0.7,4.89-4.43,6.16
			C352.05,173.46,351.93,173.58,351.66,173.75z M425.53,80.07c-2.08,1.65-4.02,3.42-6.19,4.83c-1.95,1.27-4.02,0.86-5.66-0.8
			c-1.56-1.59-1.91-3.56-0.79-5.47c0.61-1.04,1.74-1.8,2.71-2.59c3.17-2.57,4.67-5.86,3.95-9.89c-0.74-4.11-3.26-6.84-7.29-8.03
			c-4.29-1.26-8.31,0.39-11.35,4.55c-1.84,2.52-4.57,3.21-6.83,1.73c-2.38-1.56-2.89-4.45-1.01-7.12c1.18-1.68,2.58-3.25,4.12-4.6
			c1.07-0.93,1.17-1.65,0.62-2.84c-1.65-3.52-5.54-5.45-9.3-4.51c-4.14,1.02-6.27,4.1-6.27,9.19c-0.01,24.05,0,48.09,0,72.14
			c0,0.76,0,1.52,0,2.59c1.1-0.46,1.81-0.78,2.53-1.07c3.95-1.6,8-2,12.17-1.06c3.24,0.73,4.86,2.92,4.28,5.77
			c-0.57,2.8-2.93,3.9-6.23,3.65c-2.37-0.18-5.03-0.04-7.16,0.88c-3.64,1.57-5.76,4.5-5.63,8.85c0.2,7-0.05,14.02,0.28,21.01
			c0.22,4.72,4.08,8.78,8.68,10.01c4.57,1.22,9.37-0.23,11.99-3.64c-0.22-0.11-0.41-0.25-0.64-0.32c-3.52-1.16-4.94-3.18-4.25-6.04
			c0.64-2.67,2.94-3.72,6.46-3.34c2.18,0.24,4.47,0.35,6.6-0.06c5.66-1.09,10.47-6.43,10.58-11.12c-3.24-0.33-6.51-0.44-9.68-1.08
			c-1.38-0.28-2.84-1.43-3.73-2.6c-1.14-1.5-0.77-3.36,0.35-4.9c1.34-1.83,3.2-1.92,5.33-1.8c3.13,0.17,6.43,0.48,9.4-0.28
			c7.54-1.92,12.5-8.76,12.69-16.6c0.19-7.76-4.63-14.47-12.34-17.18c-3.46-1.22-4.88-3.31-4.16-6.16c0.65-2.56,2.73-3.59,6.24-3.25
			c0.58,0.06,1.43-0.22,1.78-0.65C431.81,93.28,430.55,84.01,425.53,80.07z"/>
		<path d="M292.39,116.17c-2.64-0.11-4.74-2.45-4.57-5.07c0.17-2.54,2.4-4.56,4.94-4.45c2.64,0.11,4.75,2.44,4.57,5.07
			C297.17,114.25,294.92,116.28,292.39,116.17z"/>
		<path d="M360.1,106.9c-0.6,8.41-6.06,15.72-13.9,18.02c-2.83,0.83-5.38-0.3-6.26-2.78c-0.91-2.57,0.27-5,2.99-6.16
			c6.77-2.89,8.47-7.04,5.7-13.9c-1.04-2.58-0.19-5.16,2.1-6.34c2.39-1.24,5.24-0.46,6.42,2.22
			C358.41,100.82,359.14,103.91,360.1,106.9z"/>
		<path d="M391.02,88.55c0.84-2.61,1.46-5.32,2.57-7.81c1.14-2.58,3.83-3.39,6.21-2.31c2.46,1.12,3.39,3.71,2.31,6.42
			c-2.12,5.32-0.83,8.52,4.29,10.69c2.75,1.16,3.99,3.56,3.14,6.08c-0.87,2.57-3.51,3.76-6.43,2.88
			C396.3,102.45,391.53,95.95,391.02,88.55z"/>
	</g>
	<g>
		<linearGradient id="SVGID_2_" gradientUnits="userSpaceOnUse" x1="266.2218" y1="132.9175" x2="467.0902" y2="132.9175">
			<stop  offset="0" style="stop-color:#123F69"/>
			<stop  offset="1" style="stop-color:#186198"/>
		</linearGradient>
		<path class="st1" d="M455.12,255.28c-55.3,0-110.59,0-165.89,0c-0.2-0.12-0.39-0.31-0.61-0.34
			c-11.09-1.34-22.45-11.62-22.41-27.33c0.16-63.25,0.06-126.5,0.07-189.74c0-15.91,11.35-27.29,27.21-27.3
			c52.74-0.02,105.49-0.01,158.23,0c1.11,0,2.24,0.01,3.33,0.2c7.42,1.34,12.01,7.16,12.01,15.22c0.01,63.65,0,127.29,0,190.94
			c0,7.97,0.04,15.93-0.02,23.9c-0.05,6.72-4.18,12.08-10.62,13.96C455.99,254.92,455.56,255.12,455.12,255.28z M297.36,202.7
			c1.12,0,1.91,0,2.69,0c50.36,0,100.71,0,151.07,0c4.88,0,6.39-1.53,6.39-6.45c0-56.56,0-113.12,0-169.68
			c0-4.94-1.5-6.45-6.39-6.45c-50.36,0-100.71,0-151.07,0c-0.85,0-1.69,0-2.7,0c0,1.16,0,2.02,0,2.89c0,21.59,0,43.18,0,64.77
			c0,0.72,0.03,1.44-0.02,2.15c-0.18,2.74-2.16,4.72-4.72,4.74c-2.57,0.02-4.6-1.94-4.8-4.66c-0.05-0.71-0.02-1.43-0.02-2.15
			c0-21.35,0-42.7,0-64.05c0-0.9,0-1.8,0-2.77c-7.18,1.86-11.94,8.48-11.95,16.32c-0.01,56.32-0.01,112.64,0,168.96
			c0,0.66,0.09,1.32,0.12,1.67c3.95-1.81,7.81-3.58,11.83-5.42c0-0.62,0-1.49,0-2.36c0-21.75,0-43.5,0-65.24
			c0-0.72-0.03-1.44,0.02-2.15c0.2-2.72,2.23-4.67,4.8-4.65c2.57,0.02,4.54,1.99,4.72,4.74c0.05,0.71,0.02,1.43,0.02,2.15
			c0,21.51,0,43.02,0,64.53C297.36,200.52,297.36,201.46,297.36,202.7z M438.29,212.26c-0.98,0-1.77,0-2.55,0
			c-47.3,0-94.61,0-141.91,0c-0.72,0-1.43-0.01-2.15,0.03c-8.57,0.42-15.61,7.62-15.81,16.17c-0.23,9.65,7.24,17.24,17.14,17.25
			c47.78,0.03,95.56,0.01,143.34,0.01c0.61,0,1.23-0.05,1.94-0.09C438.29,234.51,438.29,223.55,438.29,212.26z M457.52,211.86
			c-3.28,0.2-6.34,0.39-9.41,0.58c0,11.12,0,22.13,0,33.28c1.17,0,2.19,0,3.22,0c4.59-0.01,6.19-1.59,6.19-6.16
			c0.01-5.88,0-11.77,0-17.65C457.52,218.51,457.52,215.11,457.52,211.86z"/>
		<linearGradient id="SVGID_3_" gradientUnits="userSpaceOnUse" x1="266.2218" y1="132.9175" x2="467.0902" y2="132.9175">
			<stop  offset="0" style="stop-color:#123F69"/>
			<stop  offset="1" style="stop-color:#186198"/>
		</linearGradient>
		<path class="st2" d="M319.13,103.77c-4.16-6.92-5.16-14.1-2.47-21.64c1.54-4.3,4.19-7.82,7.7-10.75c0.62-0.52,1.23-1.53,1.19-2.28
			c-0.59-12.35,9.87-21.81,21.02-20.85c0.23,0.02,0.47-0.04,0.7-0.07c4.82-13.36,20.2-16.79,30.19-7.24
			c10.39-9.92,25.71-5.5,30,7.12c2.04,0.18,4.13,0.16,6.12,0.58c9.37,1.97,15.79,10,15.67,19.56c-0.02,1.56,0.35,2.56,1.62,3.6
			c8.93,7.3,11.37,19.85,5.96,30.03c-0.33,0.63-0.68,1.24-1.24,2.25c0.53,0.39,1.15,0.75,1.66,1.23
			c12.73,12.11,11.08,32.61-3.45,42.49c-1.15,0.78-1.67,1.57-1.79,3.01c-0.82,10.42-6.09,17.66-15.78,21.68
			c-0.72,0.3-1.52,0.93-1.82,1.61c-6.4,14.54-25.63,17.93-36.42,5.68c-0.15-0.17-0.37-0.28-0.63-0.47
			c-3.66,4.14-8.1,6.86-13.63,7.68c-9.58,1.42-18.67-3.46-22.98-12.29c-0.46-0.94-1.42-1.89-2.38-2.3
			c-9.55-4.11-14.66-11.32-15.6-21.63c-0.08-0.88-0.53-2.04-1.2-2.52c-15.53-11.14-16.91-30.62-3.03-43.78
			C318.72,104.33,318.85,104.12,319.13,103.77z M351.66,173.75c2.97,3.16,6.78,4.5,10.64,3.82c6.5-1.14,10.33-5.95,10.34-13.13
			c0.02-26.84,0.01-53.68,0-80.52c0-0.77-0.08-1.54-0.11-1.99c-2.98-0.22-5.76-0.21-8.45-0.7c-2.55-0.46-4-3.06-3.5-5.43
			c0.53-2.49,2.67-3.93,5.29-3.83c1.79,0.07,3.61-0.07,5.37-0.39c0.54-0.1,1.32-1.08,1.32-1.66c0.04-6.05,0.15-12.11-0.18-18.14
			c-0.19-3.55-3.42-6.24-7.09-6.68c-3.37-0.41-7,1.66-8.2,4.91c-0.26,0.69,0.11,1.89,0.6,2.54c1.24,1.64,2.87,2.99,4.06,4.65
			c1.9,2.68,1.44,5.56-0.89,7.15c-2.29,1.57-5.11,0.88-6.97-1.82c-2.63-3.82-6.23-5.35-10.74-4.55c-3.91,0.69-7.14,4-7.82,8.08
			c-0.73,4.44,0.96,7.91,4.66,10.47c2.7,1.86,3.34,4.66,1.72,6.98c-1.63,2.35-4.4,2.75-7.14,0.81c-1.85-1.31-3.49-2.91-5.21-4.37
			c-4.76,4.32-5.96,11.21-3.05,17.05c0.75,1.5,1.47,2.38,3.45,1.84c2.29-0.62,4.57,0.9,5.28,3.04c0.77,2.32-0.23,4.73-2.47,5.83
			c-0.71,0.35-1.49,0.55-2.23,0.82c-7.26,2.65-12.01,9.6-11.71,17.15c0.31,7.88,5.32,14.65,12.85,16.49
			c2.91,0.71,6.13,0.44,9.18,0.22c2.98-0.21,5,0.5,5.95,2.78c1.15,2.77-0.25,5.76-3.42,6.4c-3.38,0.69-6.86,0.86-10.3,1.26
			c1.06,7.45,8.72,12.63,16.78,11.25c3.92-0.67,6.27,0.4,6.96,3.16c0.72,2.91-0.7,4.89-4.43,6.16
			C352.05,173.46,351.93,173.58,351.66,173.75z M425.53,80.07c-2.08,1.65-4.02,3.42-6.19,4.83c-1.95,1.27-4.02,0.86-5.66-0.8
			c-1.56-1.59-1.91-3.56-0.79-5.47c0.61-1.04,1.74-1.8,2.71-2.59c3.17-2.57,4.67-5.86,3.95-9.89c-0.74-4.11-3.26-6.84-7.29-8.03
			c-4.29-1.26-8.31,0.39-11.35,4.55c-1.84,2.52-4.57,3.21-6.83,1.73c-2.38-1.56-2.89-4.45-1.01-7.12c1.18-1.68,2.58-3.25,4.12-4.6
			c1.07-0.93,1.17-1.65,0.62-2.84c-1.65-3.52-5.54-5.45-9.3-4.51c-4.14,1.02-6.27,4.1-6.27,9.19c-0.01,24.05,0,48.09,0,72.14
			c0,0.76,0,1.52,0,2.59c1.1-0.46,1.81-0.78,2.53-1.07c3.95-1.6,8-2,12.17-1.06c3.24,0.73,4.86,2.92,4.28,5.77
			c-0.57,2.8-2.93,3.9-6.23,3.65c-2.37-0.18-5.03-0.04-7.16,0.88c-3.64,1.57-5.76,4.5-5.63,8.85c0.2,7-0.05,14.02,0.28,21.01
			c0.22,4.72,4.08,8.78,8.68,10.01c4.57,1.22,9.37-0.23,11.99-3.64c-0.22-0.11-0.41-0.25-0.64-0.32c-3.52-1.16-4.94-3.18-4.25-6.04
			c0.64-2.67,2.94-3.72,6.46-3.34c2.18,0.24,4.47,0.35,6.6-0.06c5.66-1.09,10.47-6.43,10.58-11.12c-3.24-0.33-6.51-0.44-9.68-1.08
			c-1.38-0.28-2.84-1.43-3.73-2.6c-1.14-1.5-0.77-3.36,0.35-4.9c1.34-1.83,3.2-1.92,5.33-1.8c3.13,0.17,6.43,0.48,9.4-0.28
			c7.54-1.92,12.5-8.76,12.69-16.6c0.19-7.76-4.63-14.47-12.34-17.18c-3.46-1.22-4.88-3.31-4.16-6.16c0.65-2.56,2.73-3.59,6.24-3.25
			c0.58,0.06,1.43-0.22,1.78-0.65C431.81,93.28,430.55,84.01,425.53,80.07z"/>
		<linearGradient id="SVGID_4_" gradientUnits="userSpaceOnUse" x1="266.2218" y1="132.9175" x2="467.0902" y2="132.9175">
			<stop  offset="0" style="stop-color:#123F69"/>
			<stop  offset="1" style="stop-color:#186198"/>
		</linearGradient>
		<path class="st3" d="M292.39,116.17c-2.64-0.11-4.74-2.45-4.57-5.07c0.17-2.54,2.4-4.56,4.94-4.45c2.64,0.11,4.75,2.44,4.57,5.07
			C297.17,114.25,294.92,116.28,292.39,116.17z"/>
		<linearGradient id="SVGID_5_" gradientUnits="userSpaceOnUse" x1="266.2218" y1="132.9175" x2="467.0902" y2="132.9175">
			<stop  offset="0" style="stop-color:#123F69"/>
			<stop  offset="1" style="stop-color:#186198"/>
		</linearGradient>
		<path class="st4" d="M360.1,106.9c-0.6,8.41-6.06,15.72-13.9,18.02c-2.83,0.83-5.38-0.3-6.26-2.78c-0.91-2.57,0.27-5,2.99-6.16
			c6.77-2.89,8.47-7.04,5.7-13.9c-1.04-2.58-0.19-5.16,2.1-6.34c2.39-1.24,5.24-0.46,6.42,2.22
			C358.41,100.82,359.14,103.91,360.1,106.9z"/>
		<linearGradient id="SVGID_6_" gradientUnits="userSpaceOnUse" x1="266.2218" y1="132.9175" x2="467.0902" y2="132.9175">
			<stop  offset="0" style="stop-color:#123F69"/>
			<stop  offset="1" style="stop-color:#186198"/>
		</linearGradient>
		<path class="st5" d="M391.02,88.55c0.84-2.61,1.46-5.32,2.57-7.81c1.14-2.58,3.83-3.39,6.21-2.31c2.46,1.12,3.39,3.71,2.31,6.42
			c-2.12,5.32-0.83,8.52,4.29,10.69c2.75,1.16,3.99,3.56,3.14,6.08c-0.87,2.57-3.51,3.76-6.43,2.88
			C396.3,102.45,391.53,95.95,391.02,88.55z"/>
	</g>
</g>
<rect x="-133.68" y="0.77" class="st6" width="77.42" height="62.67"/>
<rect x="-133.68" y="74.35" class="st7" width="77.42" height="62.67"/>
<linearGradient id="SVGID_7_" gradientUnits="userSpaceOnUse" x1="-133.6774" y1="179.2627" x2="-56.2581" y2="179.2627">
	<stop  offset="0" style="stop-color:#123F69"/>
	<stop  offset="1" style="stop-color:#186198"/>
</linearGradient>
<rect x="-133.68" y="147.93" class="st8" width="77.42" height="62.67"/>
<g>
	<g>
		<path d="M218.35,535.34c1.74-5.12,3.54-10.23,5.2-15.37c5.87-18.15,11.67-36.32,17.53-54.46c2.37-7.32,5.74-14.17,9.98-20.59
			c1.94-2.94,4.54-3.73,7-2.16c2.41,1.53,2.88,4.44,0.96,7.26c-6.09,8.94-9.23,19.11-12.45,29.26
			c-5.34,16.83-10.79,33.62-16.19,50.42c-0.21,0.67-0.39,1.35-0.67,2.33c0.95,0.05,1.76,0.13,2.57,0.13
			c4.66,0.01,9.32-0.02,13.97,0.02c3.86,0.03,5.65,1.82,5.66,5.68c0.03,9.87,0,19.74,0.01,29.61c0.01,9.22,5.3,14.47,14.58,14.49
			c6.63,0.01,13.26-0.01,19.9,0.01c4.51,0.02,6.16,1.65,6.17,6.13c0.02,8.05,0.01,16.09,0.01,24.29c25.45,0,50.74,0,76.12,0
			c1.03-5.97,1.95-11.88,3.08-17.75c3.94-20.57,11.4-39.81,22.04-57.83c7.47-12.66,11.05-26.39,11.17-41.06
			c0.01-0.77-0.07-1.54-0.12-2.58c-0.97,0-1.81,0-2.66,0c-9.95,0-19.9,0.01-29.84-0.01c-5.24-0.01-7.18-3.32-4.73-8
			c2.29-4.37,1.32-9.43-2.39-12.39c-3.57-2.85-8.77-2.82-12.25,0.08c-3.68,3.07-4.57,8.02-2.23,12.43c2.38,4.49,0.39,7.86-4.67,7.88
			c-4.97,0.02-9.95,0.04-14.92,0c-8.77-0.07-14.71-6-14.79-14.72c-0.03-2.91,0-5.81,0-9.01c-7.44,0.63-13.74-1.34-18.42-7.2
			c-2.98-3.73-4.38-8.05-4.11-12.78c0.65-11.34,8.3-17.59,22.4-18.36c0-5.16,0-10.33,0-16.2c-4.98,1.09-9.77,1.89-14.41,3.24
			c-3.99,1.16-7.82,2.89-11.67,4.5c-3.2,1.34-5.87,0.75-7.11-1.8c-1.31-2.68-0.12-5.23,3.15-6.81c10.65-5.14,21.86-8.06,33.69-8.53
			c4.16-0.16,5.95,1.58,5.96,5.77c0.02,8.68,0.03,17.37,0,26.05c-0.02,4.94-3.46,7-7.76,4.7c-4.56-2.44-9.52-1.58-12.61,2.18
			c-2.91,3.55-2.92,8.68-0.02,12.24c3.09,3.79,8.02,4.65,12.6,2.22c4.32-2.29,7.75-0.26,7.79,4.66c0.03,4.97-0.01,9.95,0.02,14.92
			c0.02,3.64,1.75,5.4,5.34,5.44c2.76,0.03,5.53-0.01,8.29-0.04c0.14,0,0.28-0.11,0.63-0.26c-0.71-6.92,1.2-13.02,6.69-17.68
			c4.12-3.5,8.93-4.82,14.3-4.39c9,0.71,18.62,8.99,17.08,22.38c0.87,0,1.71,0,2.55,0c9.16,0,18.32-0.01,27.48,0
			c4.04,0,5.62,1.42,5.91,5.4c1.39,18.55-2.48,35.97-11.9,51.99c-12.33,20.96-20.01,43.46-23.26,67.51
			c-0.36,2.66-0.97,5.28-1.23,7.95c-0.24,2.5-1.33,4.29-3.5,5.47c-29.22,0-58.43,0-87.65,0c-2.64-1.17-3.56-3.22-3.52-6.06
			c0.11-7.26,0.04-14.52,0.03-21.79c0-0.84-0.07-1.67-0.12-2.74c-5.82,0-11.4,0.03-16.99-0.01c-13.91-0.1-23.47-9.68-23.53-23.56
			c-0.03-7.81-0.01-15.63-0.01-23.44c0-0.84,0-1.68,0-2.79c-1.15,0-2,0-2.84,0c-5.05,0-10.11-0.09-15.15,0.03
			c-2.84,0.07-4.9-0.88-6.09-3.51C218.35,537.24,218.35,536.29,218.35,535.34z"/>
		<path d="M375.24,441.37c-14.2,1.31-21.89-8.85-22.38-17.5c-0.71-12.53,6.96-19.78,22.38-20.86c0-2.71-0.01-5.44,0-8.18
			c0.03-9.44,5.95-15.36,15.39-15.37c18.31-0.01,36.62-0.01,54.94,0c9.46,0,15.35,5.9,15.36,15.37c0.01,18.31,0.01,36.62,0,54.94
			c0,9.42-5.94,15.35-15.38,15.39c-4.81,0.02-9.63,0.03-14.44-0.01c-4.93-0.04-6.97-3.47-4.68-7.78c2.45-4.6,1.6-9.49-2.19-12.6
			c-3.53-2.91-8.65-2.91-12.23-0.01c-3.77,3.05-4.65,8.06-2.22,12.6c2.31,4.32,0.28,7.76-4.65,7.8c-4.97,0.04-9.95,0.04-14.92,0
			c-8.83-0.08-14.87-6.1-14.95-14.89C375.22,447.36,375.24,444.45,375.24,441.37z M398.93,455.63
			c-1.07-14.55,9.05-22.08,18.24-22.49c4.83-0.21,9.21,1.17,12.98,4.24c5.73,4.68,7.68,10.91,7.07,17.98
			c0.37,0.16,0.51,0.26,0.65,0.27c2.6,0.02,5.21,0.07,7.81,0.04c4.03-0.03,5.76-1.77,5.76-5.81c0.01-18.39,0.01-36.79,0-55.18
			c0-4.03-1.73-5.74-5.79-5.74c-18.39-0.01-36.79-0.01-55.18,0c-4,0-5.74,1.76-5.76,5.81c-0.02,4.82,0.01,9.63-0.01,14.45
			c-0.02,5.14-3.32,7.11-7.83,4.71c-4.42-2.36-9.39-1.48-12.42,2.19c-2.95,3.58-2.94,8.88,0.03,12.44
			c3.03,3.64,7.99,4.48,12.44,2.12c4.4-2.34,7.76-0.39,7.78,4.55c0.03,5.05-0.03,10.1,0.02,15.16c0.03,3.02,1.63,5.05,4.39,5.22
			C392.33,455.79,395.56,455.63,398.93,455.63z"/>
		<path d="M269.49,425.96c2.51-0.06,4.68,1.99,4.78,4.53c0.11,2.68-1.93,4.86-4.6,4.9c-2.64,0.05-4.85-2.11-4.83-4.72
			C264.86,428.19,267,426.02,269.49,425.96z"/>
	</g>
	<g>
		
			<linearGradient id="SVGID_8_" gradientUnits="userSpaceOnUse" x1="2.0645" y1="123.3548" x2="244.6452" y2="123.3548" gradientTransform="matrix(1 0 0 1 216.2895 377.3977)">
			<stop  offset="0" style="stop-color:#123F69"/>
			<stop  offset="1" style="stop-color:#186198"/>
		</linearGradient>
		<path class="st9" d="M218.35,535.34c1.74-5.12,3.54-10.23,5.2-15.37c5.87-18.15,11.67-36.32,17.53-54.46
			c2.37-7.32,5.74-14.17,9.98-20.59c1.94-2.94,4.54-3.73,7-2.16c2.41,1.53,2.88,4.44,0.96,7.26c-6.09,8.94-9.23,19.11-12.45,29.26
			c-5.34,16.83-10.79,33.62-16.19,50.42c-0.21,0.67-0.39,1.35-0.67,2.33c0.95,0.05,1.76,0.13,2.57,0.13
			c4.66,0.01,9.32-0.02,13.97,0.02c3.86,0.03,5.65,1.82,5.66,5.68c0.03,9.87,0,19.74,0.01,29.61c0.01,9.22,5.3,14.47,14.58,14.49
			c6.63,0.01,13.26-0.01,19.9,0.01c4.51,0.02,6.16,1.65,6.17,6.13c0.02,8.05,0.01,16.09,0.01,24.29c25.45,0,50.74,0,76.12,0
			c1.03-5.97,1.95-11.88,3.08-17.75c3.94-20.57,11.4-39.81,22.04-57.83c7.47-12.66,11.05-26.39,11.17-41.06
			c0.01-0.77-0.07-1.54-0.12-2.58c-0.97,0-1.81,0-2.66,0c-9.95,0-19.9,0.01-29.84-0.01c-5.24-0.01-7.18-3.32-4.73-8
			c2.29-4.37,1.32-9.43-2.39-12.39c-3.57-2.85-8.77-2.82-12.25,0.08c-3.68,3.07-4.57,8.02-2.23,12.43c2.38,4.49,0.39,7.86-4.67,7.88
			c-4.97,0.02-9.95,0.04-14.92,0c-8.77-0.07-14.71-6-14.79-14.72c-0.03-2.91,0-5.81,0-9.01c-7.44,0.63-13.74-1.34-18.42-7.2
			c-2.98-3.73-4.38-8.05-4.11-12.78c0.65-11.34,8.3-17.59,22.4-18.36c0-5.16,0-10.33,0-16.2c-4.98,1.09-9.77,1.89-14.41,3.24
			c-3.99,1.16-7.82,2.89-11.67,4.5c-3.2,1.34-5.87,0.75-7.11-1.8c-1.31-2.68-0.12-5.23,3.15-6.81c10.65-5.14,21.86-8.06,33.69-8.53
			c4.16-0.16,5.95,1.58,5.96,5.77c0.02,8.68,0.03,17.37,0,26.05c-0.02,4.94-3.46,7-7.76,4.7c-4.56-2.44-9.52-1.58-12.61,2.18
			c-2.91,3.55-2.92,8.68-0.02,12.24c3.09,3.79,8.02,4.65,12.6,2.22c4.32-2.29,7.75-0.26,7.79,4.66c0.03,4.97-0.01,9.95,0.02,14.92
			c0.02,3.64,1.75,5.4,5.34,5.44c2.76,0.03,5.53-0.01,8.29-0.04c0.14,0,0.28-0.11,0.63-0.26c-0.71-6.92,1.2-13.02,6.69-17.68
			c4.12-3.5,8.93-4.82,14.3-4.39c9,0.71,18.62,8.99,17.08,22.38c0.87,0,1.71,0,2.55,0c9.16,0,18.32-0.01,27.48,0
			c4.04,0,5.62,1.42,5.91,5.4c1.39,18.55-2.48,35.97-11.9,51.99c-12.33,20.96-20.01,43.46-23.26,67.51
			c-0.36,2.66-0.97,5.28-1.23,7.95c-0.24,2.5-1.33,4.29-3.5,5.47c-29.22,0-58.43,0-87.65,0c-2.64-1.17-3.56-3.22-3.52-6.06
			c0.11-7.26,0.04-14.52,0.03-21.79c0-0.84-0.07-1.67-0.12-2.74c-5.82,0-11.4,0.03-16.99-0.01c-13.91-0.1-23.47-9.68-23.53-23.56
			c-0.03-7.81-0.01-15.63-0.01-23.44c0-0.84,0-1.68,0-2.79c-1.15,0-2,0-2.84,0c-5.05,0-10.11-0.09-15.15,0.03
			c-2.84,0.07-4.9-0.88-6.09-3.51C218.35,537.24,218.35,536.29,218.35,535.34z"/>
		
			<linearGradient id="SVGID_9_" gradientUnits="userSpaceOnUse" x1="2.0645" y1="123.3548" x2="244.6452" y2="123.3548" gradientTransform="matrix(1 0 0 1 216.2895 377.3977)">
			<stop  offset="0" style="stop-color:#123F69"/>
			<stop  offset="1" style="stop-color:#186198"/>
		</linearGradient>
		<path class="st10" d="M375.24,441.37c-14.2,1.31-21.89-8.85-22.38-17.5c-0.71-12.53,6.96-19.78,22.38-20.86
			c0-2.71-0.01-5.44,0-8.18c0.03-9.44,5.95-15.36,15.39-15.37c18.31-0.01,36.62-0.01,54.94,0c9.46,0,15.35,5.9,15.36,15.37
			c0.01,18.31,0.01,36.62,0,54.94c0,9.42-5.94,15.35-15.38,15.39c-4.81,0.02-9.63,0.03-14.44-0.01c-4.93-0.04-6.97-3.47-4.68-7.78
			c2.45-4.6,1.6-9.49-2.19-12.6c-3.53-2.91-8.65-2.91-12.23-0.01c-3.77,3.05-4.65,8.06-2.22,12.6c2.31,4.32,0.28,7.76-4.65,7.8
			c-4.97,0.04-9.95,0.04-14.92,0c-8.83-0.08-14.87-6.1-14.95-14.89C375.22,447.36,375.24,444.45,375.24,441.37z M398.93,455.63
			c-1.07-14.55,9.05-22.08,18.24-22.49c4.83-0.21,9.21,1.17,12.98,4.24c5.73,4.68,7.68,10.91,7.07,17.98
			c0.37,0.16,0.51,0.26,0.65,0.27c2.6,0.02,5.21,0.07,7.81,0.04c4.03-0.03,5.76-1.77,5.76-5.81c0.01-18.39,0.01-36.79,0-55.18
			c0-4.03-1.73-5.74-5.79-5.74c-18.39-0.01-36.79-0.01-55.18,0c-4,0-5.74,1.76-5.76,5.81c-0.02,4.82,0.01,9.63-0.01,14.45
			c-0.02,5.14-3.32,7.11-7.83,4.71c-4.42-2.36-9.39-1.48-12.42,2.19c-2.95,3.58-2.94,8.88,0.03,12.44
			c3.03,3.64,7.99,4.48,12.44,2.12c4.4-2.34,7.76-0.39,7.78,4.55c0.03,5.05-0.03,10.1,0.02,15.16c0.03,3.02,1.63,5.05,4.39,5.22
			C392.33,455.79,395.56,455.63,398.93,455.63z"/>
		
			<linearGradient id="SVGID_10_" gradientUnits="userSpaceOnUse" x1="2.0645" y1="123.3548" x2="244.6452" y2="123.3548" gradientTransform="matrix(1 0 0 1 216.2895 377.3977)">
			<stop  offset="0" style="stop-color:#123F69"/>
			<stop  offset="1" style="stop-color:#186198"/>
		</linearGradient>
		<path class="st11" d="M269.49,425.96c2.51-0.06,4.68,1.99,4.78,4.53c0.11,2.68-1.93,4.86-4.6,4.9c-2.64,0.05-4.85-2.11-4.83-4.72
			C264.86,428.19,267,426.02,269.49,425.96z"/>
	</g>
</g>
<g>
	<g>
		<g>
			<path d="M-24.85,595.01c-8.36,0-16.73,0.24-25.08-0.08c-6.48-0.25-12.53-2.54-18.35-5.37c-9.03-4.39-18.06-8.78-27.1-13.16
				c-7.58-3.67-15.58-5.46-24-5.4c-5.49,0.04-10.99,0.03-16.48,0c-3.01-0.01-4.82-1.54-4.85-4c-0.03-2.47,1.79-4.17,4.75-4.09
				c9.28,0.25,18.63,0.03,27.81,1.13c5.73,0.69,11.4,3.03,16.76,5.38c9.11,4,17.98,8.57,26.93,12.94
				c6.64,3.24,13.61,4.91,21.02,4.89c13.02-0.04,26.03,0.01,39.05-0.04c1.23,0,2.54-0.23,3.67-0.69
				c10.55-4.29,21.05-8.72,31.62-12.96c2-0.8,2.45-1.89,2.11-3.84c-0.68-3.9-2.83-6.19-6.74-6.85c-5.08-0.86-9.89,0.57-14.7,1.87
				c-2.6,0.7-5.16,1.6-7.73,2.41c-3.13,0.99-5.28,0.23-6.11-2.17c-0.84-2.46,0.32-4.63,3.42-5.45c6.67-1.77,13.34-3.65,20.13-4.79
				c3.09-0.52,6.62,0.11,9.68,1.09c7.59,2.44,11.77,10.94,9.64,18.62c-0.8,2.87-2.46,4.91-5.27,6.06
				c-11.56,4.73-23.09,9.53-34.65,14.24c-1.13,0.46-2.46,0.59-3.7,0.6c-7.27,0.05-14.54,0.03-21.81,0.03
				C-24.85,595.25-24.85,595.13-24.85,595.01z"/>
			<path d="M-13.32,368.42c8.45,0,16.9-0.23,25.34,0.08c6.13,0.22,11.91,2.3,17.43,4.96c9.73,4.69,19.42,9.46,29.18,14.09
				c7.05,3.35,14.54,4.87,22.34,4.86c5.58,0,11.16-0.01,16.74,0c3.19,0.01,5.05,1.54,5.03,4.07c-0.01,2.52-1.88,4.11-5.08,4.02
				c-9.11-0.25-18.29,0-27.3-1.11c-5.81-0.72-11.57-3.06-17.01-5.45c-9.34-4.1-18.41-8.83-27.61-13.26
				c-6.34-3.05-13.04-4.54-20.08-4.53c-13.1,0.03-26.2-0.01-39.3,0.04c-1.23,0-2.53,0.25-3.66,0.72
				c-10.47,4.27-20.89,8.67-31.38,12.87c-2.07,0.83-2.69,1.86-2.29,3.97c0.73,3.88,2.88,6.15,6.8,6.8c5,0.84,9.73-0.57,14.46-1.82
				c2.77-0.73,5.47-1.74,8.21-2.58c2.91-0.9,5.07-0.02,5.83,2.33c0.77,2.4-0.34,4.55-3.27,5.32c-6.92,1.82-13.82,3.9-20.87,4.95
				c-8.26,1.23-15.3-2.67-17.81-9.48c-1.09-2.95-1.22-6.45-1.01-9.64c0.21-3.18,2.28-5.46,5.42-6.74
				c11.41-4.64,22.78-9.39,34.19-14.04c1.21-0.49,2.6-0.76,3.91-0.77c7.27-0.07,14.54-0.04,21.81-0.04
				C-13.32,368.18-13.32,368.3-13.32,368.42z"/>
			<path d="M-19.42,396.91c-1.25,5.43,0.17,9.92,4.04,13.32c2.56,2.24,5.58,4.14,8.68,5.54c7.92,3.56,16.03,6.7,24,10.15
				c1.2,0.52,2.5,1.58,3.06,2.73c4.52,9.24,12.17,13.93,22.01,15.53c7,1.13,13.78,0.1,20.42-2.24c1.17-0.41,2.44-0.77,3.67-0.78
				c10.48-0.06,20.96-0.02,31.43-0.05c2.16-0.01,3.83,0.67,4.6,2.8c1.02,2.8-1.09,5.31-4.53,5.32c-9.72,0.03-19.43-0.02-29.15,0.05
				c-1.48,0.01-3.01,0.3-4.43,0.76c-14.58,4.68-28.57,4.16-41.13-5.44c-3.47-2.65-5.93-6.6-8.91-9.9c-0.81-0.9-1.7-1.89-2.76-2.35
				c-7.43-3.22-14.95-6.24-22.37-9.47c-5.34-2.32-10.06-5.57-13.43-10.44c-5.01-7.24-4.77-14.89-1.45-22.65
				c1.03-2.41,3.13-2.95,6-1.76c9.2,3.8,18.38,7.63,27.58,11.45c5.76,2.39,11.53,4.79,17.3,7.16c1.97,0.81,3.33,2.06,3.23,4.33
				c-0.13,3.01-3.02,4.54-6.2,3.24c-9.44-3.88-18.86-7.81-28.29-11.73C-10.39,400.66-14.74,398.85-19.42,396.91z"/>
			<path d="M-18.57,566.42c1.28-5.26-0.09-9.8-3.99-13.15c-2.83-2.44-6.16-4.46-9.57-6.01c-7.6-3.45-15.41-6.44-23.09-9.73
				c-1.15-0.49-2.46-1.4-2.97-2.46c-5.3-10.95-14.55-15.49-26.11-16.25c-5.46-0.36-10.74,0.71-15.93,2.42
				c-1.8,0.6-3.76,0.99-5.65,1.01c-9.89,0.1-19.77,0.05-29.66,0.04c-3.34,0-5.27-1.57-5.19-4.17c0.07-2.51,1.92-3.93,5.17-3.94
				c9.63-0.01,19.27,0.03,28.9-0.04c1.4-0.01,2.85-0.28,4.18-0.72c12.67-4.22,25.07-4.16,37,2.41c5.44,2.99,9.64,7.31,13,12.54
				c0.79,1.24,2.14,2.36,3.49,2.95c6.88,3.01,13.85,5.8,20.76,8.72c5.36,2.27,10.2,5.33,13.78,10.02c5.6,7.34,5.6,15.29,2.16,23.47
				c-1.04,2.47-3.13,3.08-5.95,1.91c-10.76-4.45-21.5-8.93-32.25-13.41c-4.13-1.72-8.26-3.44-12.38-5.16
				c-3.1-1.29-4.29-3.42-3.26-5.8c0.98-2.27,3.31-2.94,6.26-1.72c13.33,5.52,26.65,11.05,39.97,16.58
				C-19.51,566.11-19.11,566.23-18.57,566.42z"/>
			<path d="M66.2,482.04c-0.19,18.36-5.52,35.04-16.4,49.87c-0.82,1.12-2.27,2.24-3.55,2.41c-1.13,0.15-2.96-0.71-3.54-1.68
				c-0.64-1.08-0.64-2.95-0.16-4.19c0.64-1.69,2.04-3.07,3.05-4.63c11.06-17.27,14.76-36.01,11.19-56.19
				c-0.1-0.58-0.2-1.17-0.24-1.75c-0.19-2.63,1.15-4.44,3.47-4.74c2.11-0.27,4.11,1.11,4.47,3.56c0.71,4.92,1.17,9.88,1.71,14.82
				C66.27,480.34,66.2,481.19,66.2,482.04z"/>
			<path d="M-104.29,484.01c0.31-21.02,5.63-37.61,16.38-52.42c1.78-2.46,3.76-3.11,5.79-1.99c2.32,1.28,2.77,3.97,0.92,6.52
				c-5.15,7.1-9.09,14.79-11.61,23.19c-3.6,12.02-4.28,24.21-1.96,36.55c0.02,0.08,0.04,0.16,0.05,0.25
				c0.71,3.79-0.3,6.01-2.95,6.45c-2.75,0.46-4.51-1.14-5.02-4.94C-103.42,492.19-103.97,486.74-104.29,484.01z"/>
			<path d="M-71,416.51c2.22,0.04,3.94,1.81,3.93,4.06c-0.01,2.3-2.21,4.52-4.51,4.56c-2.27,0.03-4.22-1.94-4.12-4.17
				C-75.59,418.72-73.22,416.47-71,416.51z"/>
			<path d="M38.33,542.66c0.02,2.13-2.23,4.26-4.48,4.24c-2.18-0.02-4.03-1.85-4.04-4c-0.01-2.24,2.09-4.22,4.46-4.23
				C36.42,538.67,38.31,540.53,38.33,542.66z"/>
		</g>
		<g>
			
				<linearGradient id="SVGID_11_" gradientUnits="userSpaceOnUse" x1="1.6119" y1="123.3548" x2="245.0977" y2="123.3548" gradientTransform="matrix(1 0 0 1 -142.3395 358.3548)">
				<stop  offset="0" style="stop-color:#123F69"/>
				<stop  offset="1" style="stop-color:#186198"/>
			</linearGradient>
			<path class="st12" d="M-24.85,595.01c-8.36,0-16.73,0.24-25.08-0.08c-6.48-0.25-12.53-2.54-18.35-5.37
				c-9.03-4.39-18.06-8.78-27.1-13.16c-7.58-3.67-15.58-5.46-24-5.4c-5.49,0.04-10.99,0.03-16.48,0c-3.01-0.01-4.82-1.54-4.85-4
				c-0.03-2.47,1.79-4.17,4.75-4.09c9.28,0.25,18.63,0.03,27.81,1.13c5.73,0.69,11.4,3.03,16.76,5.38c9.11,4,17.98,8.57,26.93,12.94
				c6.64,3.24,13.61,4.91,21.02,4.89c13.02-0.04,26.03,0.01,39.05-0.04c1.23,0,2.54-0.23,3.67-0.69
				c10.55-4.29,21.05-8.72,31.62-12.96c2-0.8,2.45-1.89,2.11-3.84c-0.68-3.9-2.83-6.19-6.74-6.85c-5.08-0.86-9.89,0.57-14.7,1.87
				c-2.6,0.7-5.16,1.6-7.73,2.41c-3.13,0.99-5.28,0.23-6.11-2.17c-0.84-2.46,0.32-4.63,3.42-5.45c6.67-1.77,13.34-3.65,20.13-4.79
				c3.09-0.52,6.62,0.11,9.68,1.09c7.59,2.44,11.77,10.94,9.64,18.62c-0.8,2.87-2.46,4.91-5.27,6.06
				c-11.56,4.73-23.09,9.53-34.65,14.24c-1.13,0.46-2.46,0.59-3.7,0.6c-7.27,0.05-14.54,0.03-21.81,0.03
				C-24.85,595.25-24.85,595.13-24.85,595.01z"/>
			
				<linearGradient id="SVGID_12_" gradientUnits="userSpaceOnUse" x1="1.6119" y1="123.3548" x2="245.0977" y2="123.3548" gradientTransform="matrix(1 0 0 1 -142.3395 358.3548)">
				<stop  offset="0" style="stop-color:#123F69"/>
				<stop  offset="1" style="stop-color:#186198"/>
			</linearGradient>
			<path class="st13" d="M-13.32,368.42c8.45,0,16.9-0.23,25.34,0.08c6.13,0.22,11.91,2.3,17.43,4.96
				c9.73,4.69,19.42,9.46,29.18,14.09c7.05,3.35,14.54,4.87,22.34,4.86c5.58,0,11.16-0.01,16.74,0c3.19,0.01,5.05,1.54,5.03,4.07
				c-0.01,2.52-1.88,4.11-5.08,4.02c-9.11-0.25-18.29,0-27.3-1.11c-5.81-0.72-11.57-3.06-17.01-5.45
				c-9.34-4.1-18.41-8.83-27.61-13.26c-6.34-3.05-13.04-4.54-20.08-4.53c-13.1,0.03-26.2-0.01-39.3,0.04
				c-1.23,0-2.53,0.25-3.66,0.72c-10.47,4.27-20.89,8.67-31.38,12.87c-2.07,0.83-2.69,1.86-2.29,3.97c0.73,3.88,2.88,6.15,6.8,6.8
				c5,0.84,9.73-0.57,14.46-1.82c2.77-0.73,5.47-1.74,8.21-2.58c2.91-0.9,5.07-0.02,5.83,2.33c0.77,2.4-0.34,4.55-3.27,5.32
				c-6.92,1.82-13.82,3.9-20.87,4.95c-8.26,1.23-15.3-2.67-17.81-9.48c-1.09-2.95-1.22-6.45-1.01-9.64
				c0.21-3.18,2.28-5.46,5.42-6.74c11.41-4.64,22.78-9.39,34.19-14.04c1.21-0.49,2.6-0.76,3.91-0.77
				c7.27-0.07,14.54-0.04,21.81-0.04C-13.32,368.18-13.32,368.3-13.32,368.42z"/>
			
				<linearGradient id="SVGID_13_" gradientUnits="userSpaceOnUse" x1="1.6119" y1="123.3548" x2="245.0977" y2="123.3548" gradientTransform="matrix(1 0 0 1 -142.3395 358.3548)">
				<stop  offset="0" style="stop-color:#123F69"/>
				<stop  offset="1" style="stop-color:#186198"/>
			</linearGradient>
			<path class="st14" d="M-19.42,396.91c-1.25,5.43,0.17,9.92,4.04,13.32c2.56,2.24,5.58,4.14,8.68,5.54
				c7.92,3.56,16.03,6.7,24,10.15c1.2,0.52,2.5,1.58,3.06,2.73c4.52,9.24,12.17,13.93,22.01,15.53c7,1.13,13.78,0.1,20.42-2.24
				c1.17-0.41,2.44-0.77,3.67-0.78c10.48-0.06,20.96-0.02,31.43-0.05c2.16-0.01,3.83,0.67,4.6,2.8c1.02,2.8-1.09,5.31-4.53,5.32
				c-9.72,0.03-19.43-0.02-29.15,0.05c-1.48,0.01-3.01,0.3-4.43,0.76c-14.58,4.68-28.57,4.16-41.13-5.44
				c-3.47-2.65-5.93-6.6-8.91-9.9c-0.81-0.9-1.7-1.89-2.76-2.35c-7.43-3.22-14.95-6.24-22.37-9.47
				c-5.34-2.32-10.06-5.57-13.43-10.44c-5.01-7.24-4.77-14.89-1.45-22.65c1.03-2.41,3.13-2.95,6-1.76
				c9.2,3.8,18.38,7.63,27.58,11.45c5.76,2.39,11.53,4.79,17.3,7.16c1.97,0.81,3.33,2.06,3.23,4.33c-0.13,3.01-3.02,4.54-6.2,3.24
				c-9.44-3.88-18.86-7.81-28.29-11.73C-10.39,400.66-14.74,398.85-19.42,396.91z"/>
			
				<linearGradient id="SVGID_14_" gradientUnits="userSpaceOnUse" x1="1.6119" y1="123.3548" x2="245.0977" y2="123.3548" gradientTransform="matrix(1 0 0 1 -142.3395 358.3548)">
				<stop  offset="0" style="stop-color:#123F69"/>
				<stop  offset="1" style="stop-color:#186198"/>
			</linearGradient>
			<path class="st15" d="M-18.57,566.42c1.28-5.26-0.09-9.8-3.99-13.15c-2.83-2.44-6.16-4.46-9.57-6.01
				c-7.6-3.45-15.41-6.44-23.09-9.73c-1.15-0.49-2.46-1.4-2.97-2.46c-5.3-10.95-14.55-15.49-26.11-16.25
				c-5.46-0.36-10.74,0.71-15.93,2.42c-1.8,0.6-3.76,0.99-5.65,1.01c-9.89,0.1-19.77,0.05-29.66,0.04c-3.34,0-5.27-1.57-5.19-4.17
				c0.07-2.51,1.92-3.93,5.17-3.94c9.63-0.01,19.27,0.03,28.9-0.04c1.4-0.01,2.85-0.28,4.18-0.72c12.67-4.22,25.07-4.16,37,2.41
				c5.44,2.99,9.64,7.31,13,12.54c0.79,1.24,2.14,2.36,3.49,2.95c6.88,3.01,13.85,5.8,20.76,8.72c5.36,2.27,10.2,5.33,13.78,10.02
				c5.6,7.34,5.6,15.29,2.16,23.47c-1.04,2.47-3.13,3.08-5.95,1.91c-10.76-4.45-21.5-8.93-32.25-13.41
				c-4.13-1.72-8.26-3.44-12.38-5.16c-3.1-1.29-4.29-3.42-3.26-5.8c0.98-2.27,3.31-2.94,6.26-1.72
				c13.33,5.52,26.65,11.05,39.97,16.58C-19.51,566.11-19.11,566.23-18.57,566.42z"/>
			
				<linearGradient id="SVGID_15_" gradientUnits="userSpaceOnUse" x1="1.6119" y1="123.3548" x2="245.0977" y2="123.3548" gradientTransform="matrix(1 0 0 1 -142.3395 358.3548)">
				<stop  offset="0" style="stop-color:#123F69"/>
				<stop  offset="1" style="stop-color:#186198"/>
			</linearGradient>
			<path class="st16" d="M66.2,482.04c-0.19,18.36-5.52,35.04-16.4,49.87c-0.82,1.12-2.27,2.24-3.55,2.41
				c-1.13,0.15-2.96-0.71-3.54-1.68c-0.64-1.08-0.64-2.95-0.16-4.19c0.64-1.69,2.04-3.07,3.05-4.63
				c11.06-17.27,14.76-36.01,11.19-56.19c-0.1-0.58-0.2-1.17-0.24-1.75c-0.19-2.63,1.15-4.44,3.47-4.74
				c2.11-0.27,4.11,1.11,4.47,3.56c0.71,4.92,1.17,9.88,1.71,14.82C66.27,480.34,66.2,481.19,66.2,482.04z"/>
			
				<linearGradient id="SVGID_16_" gradientUnits="userSpaceOnUse" x1="1.6119" y1="123.3548" x2="245.0977" y2="123.3548" gradientTransform="matrix(1 0 0 1 -142.3395 358.3548)">
				<stop  offset="0" style="stop-color:#123F69"/>
				<stop  offset="1" style="stop-color:#186198"/>
			</linearGradient>
			<path class="st17" d="M-104.29,484.01c0.31-21.02,5.63-37.61,16.38-52.42c1.78-2.46,3.76-3.11,5.79-1.99
				c2.32,1.28,2.77,3.97,0.92,6.52c-5.15,7.1-9.09,14.79-11.61,23.19c-3.6,12.02-4.28,24.21-1.96,36.55
				c0.02,0.08,0.04,0.16,0.05,0.25c0.71,3.79-0.3,6.01-2.95,6.45c-2.75,0.46-4.51-1.14-5.02-4.94
				C-103.42,492.19-103.97,486.74-104.29,484.01z"/>
			
				<linearGradient id="SVGID_17_" gradientUnits="userSpaceOnUse" x1="1.6119" y1="123.3548" x2="245.0977" y2="123.3548" gradientTransform="matrix(1 0 0 1 -142.3395 358.3548)">
				<stop  offset="0" style="stop-color:#123F69"/>
				<stop  offset="1" style="stop-color:#186198"/>
			</linearGradient>
			<path class="st18" d="M-71,416.51c2.22,0.04,3.94,1.81,3.93,4.06c-0.01,2.3-2.21,4.52-4.51,4.56c-2.27,0.03-4.22-1.94-4.12-4.17
				C-75.59,418.72-73.22,416.47-71,416.51z"/>
			
				<linearGradient id="SVGID_18_" gradientUnits="userSpaceOnUse" x1="1.6119" y1="123.3548" x2="245.0977" y2="123.3548" gradientTransform="matrix(1 0 0 1 -142.3395 358.3548)">
				<stop  offset="0" style="stop-color:#123F69"/>
				<stop  offset="1" style="stop-color:#186198"/>
			</linearGradient>
			<path class="st19" d="M38.33,542.66c0.02,2.13-2.23,4.26-4.48,4.24c-2.18-0.02-4.03-1.85-4.04-4c-0.01-2.24,2.09-4.22,4.46-4.23
				C36.42,538.67,38.31,540.53,38.33,542.66z"/>
		</g>
	</g>
	<linearGradient id="path22_1_" gradientUnits="userSpaceOnUse" x1="-51.404" y1="481.7097" x2="13.4347" y2="481.7097">
		<stop  offset="0" style="stop-color:#123F69"/>
		<stop  offset="1" style="stop-color:#186198"/>
	</linearGradient>
	<path id="path22" class="st20" d="M-10.23,495.21c0,0-11.25,0.78-20.81-0.1c0.18,11.64,1.6,17.59,1.83,18.87h20.9
		C-9.31,507.87-10.09,498-10.23,495.21 M-45.7,471.06c1.4,0.12,13.73,1.18,14.55,1.18c0-0.05,19.51,19.84,19.51,19.84h25.07v-21.02
		L-45.7,471.06L-45.7,471.06z M-29.36,469.83h21.05v-20.39h-21.05V469.83z M-29.5,475.7L-29.5,475.7l-2.74-2.79
		c-3.63,0.04-15.38-1.19-19.16-1.84v21.02c18.86,1.86,28.75,2.34,39.8,1.98h0.18L-29.5,475.7L-29.5,475.7z M-10.33,493.17h2.57
		v16.35c-0.32-1.71-1.28-11.66-1.16-14.84C-9.23,494.34-10.33,493.17-10.33,493.17"/>
</g>
<g>
	<g>
		<path d="M238.44,102.18c-1.23,4.14-4.07,6.74-7.83,8.71c-4.31,2.25-8.4,4.91-12.68,7.22c-1.61,0.87-3.45,1.64-5.24,1.76
			c-1.85,0.13-3,0.89-4.19,2.1c-5.1,5.17-10.26,10.29-15.39,15.43c-0.52,0.52-1,1.07-1.71,1.84c3.6,3.54,7.21,6.9,10.6,10.47
			c8.13,8.59,5.05,22.36-5.85,26.44c-3.47,1.3-7,1.36-10.51,0.33c-5.92,12.38-13.99,15.76-24.85,10.31
			c-1.99,4.91-5.21,8.65-10.39,10.35c-5.18,1.7-10.04,0.86-14.66-2.16c-2.33,5.89-7.07,9.61-11.41,13.54
			c-4.8,4.35-10.63,5.09-16.58,2.67c-5.88-2.39-9.13-7.04-9.96-13.35c-0.04-0.3-0.02-0.6-0.05-0.9c-0.02-0.22-0.06-0.44-0.14-0.91
			c-4.4-0.21-8.41-1.58-11.62-4.8c-3.16-3.18-4.65-7.07-4.83-11.68c-4.78-0.26-8.96-1.82-12.21-5.38c-3.2-3.51-4.46-7.7-4.18-12.43
			c-1.35-0.31-2.6-0.51-3.8-0.87c-7.14-2.14-11.71-8.69-11.32-16.41c0.08-1.66-0.32-2.78-1.51-3.91c-3.36-3.21-6.55-6.59-9.91-9.79
			c-0.71-0.67-1.87-0.93-2.86-1.22c-2.05-0.62-4.31-0.78-6.16-1.75c-5.16-2.72-10.18-5.71-15.2-8.68
			c-5.65-3.33-7.36-9.42-4.11-15.08c10.5-18.3,21.06-36.57,31.65-54.81c3.21-5.52,9.37-7.14,14.94-4.02
			c5.16,2.89,10.25,5.89,15.36,8.87c2.77,1.62,3.76,2.89,5.48,6.79c3.96,0,8.01-0.15,12.04,0.04c4.25,0.21,8.47,0.79,12.72,1.1
			c0.77,0.06,1.9-0.17,2.33-0.7c7.04-8.64,16.24-11.07,27.03-10.58c11.96,0.54,23.96,0.1,35.95,0.15c1.47,0.01,2.33-0.29,3.16-1.73
			c0.97-1.68,2.44-3.3,4.07-4.32c5.14-3.21,10.43-6.18,15.72-9.13c5.46-3.04,11.56-1.4,14.8,3.94c1.86,3.07,3.64,6.19,5.39,9.33
			c1.43,2.57,0.85,5.16-1.34,6.47c-2.28,1.37-4.89,0.58-6.46-2.05c-1.69-2.83-3.35-5.67-4.93-8.56c-0.93-1.69-2.04-1.95-3.67-0.99
			c-4.77,2.81-9.57,5.58-14.38,8.31c-1.57,0.89-1.86,1.91-0.94,3.49c10.39,17.93,20.75,35.88,31.09,53.84
			c0.89,1.55,1.91,1.9,3.48,0.97c4.84-2.84,9.7-5.64,14.58-8.42c1.59-0.91,1.77-1.98,0.84-3.51c-1.81-3.01-3.55-6.07-5.27-9.14
			c-1.54-2.75-0.98-5.28,1.38-6.62c2.32-1.32,4.86-0.52,6.39,2.2c2.44,4.36,4.77,8.79,7.14,13.19
			C238.44,99.48,238.44,100.83,238.44,102.18z M120.16,173.7c5.54,0.1,9.79,2.62,13.38,6.55c2.17,2.37,4.48,4.62,6.83,6.82
			c2.16,2.02,4.75,2.46,7.51,1.42c2.71-1.02,4.18-3.11,4.52-5.92c0.32-2.67-0.95-4.72-2.79-6.55
			c-12.2-12.16-24.37-24.35-36.55-36.54c-0.48-0.48-0.97-0.94-1.39-1.46c-1.47-1.83-1.4-4.33,0.13-5.95c1.62-1.72,4.15-1.9,6.1-0.38
			c0.65,0.5,1.2,1.12,1.79,1.7c14.72,14.72,29.46,29.44,44.16,44.18c1.85,1.86,3.93,3.03,6.6,2.65c2.91-0.42,4.98-2.06,5.9-4.87
			c0.99-3.01,0.06-5.55-2.15-7.75c-12.19-12.17-24.37-24.36-36.54-36.54c-0.58-0.58-1.2-1.14-1.71-1.78
			c-1.52-1.89-1.38-4.48,0.3-6.1c1.63-1.58,4.07-1.69,5.93-0.22c0.58,0.46,1.1,1.02,1.63,1.55c13.51,13.5,27.01,27.01,40.52,40.51
			c0.69,0.69,1.38,1.39,2.18,1.93c4.32,2.95,10.33,0.34,11.05-4.77c0.4-2.84-0.74-5.03-2.73-7.01
			c-22.58-22.54-45.14-45.1-67.7-67.66c-0.5-0.5-1.03-0.97-1.64-1.53c-4.09,4.12-7.97,8.08-11.91,11.98
			c-4.2,4.16-9.3,5.72-15.04,4.44c-12.34-2.76-16.86-17.58-8.21-26.82c1.62-1.73,3.53-3.17,5.31-4.75c-0.15-0.25-0.31-0.5-0.46-0.75
			c-0.93-0.07-1.87-0.19-2.8-0.19c-4.87-0.02-9.74,0.06-14.6-0.06c-1.65-0.04-2.51,0.52-3.32,1.93
			c-9.64,16.81-19.34,33.58-29.02,50.37c-0.36,0.63-0.69,1.28-0.79,1.47c3.45,3.45,6.72,6.71,10.1,10.09
			c4.54-5.51,10.18-9.59,18.05-7.9c7.87,1.69,12,7.05,13.08,14.85c9.36-0.18,17,5.74,17.87,16.42
			C115.16,159.52,118.07,162.44,120.16,173.7z M145.9,93.57c5.05-3.36,7.69-7.85,8.03-13.7c0.18-3.07,2.02-5.08,4.61-5
			c2.62,0.08,4.47,2.2,4.36,5.22c-0.28,7.32-3.16,13.46-8.6,18.38c-0.58,0.53-1.18,1.04-1.56,1.37
			c10.95,10.95,21.74,21.75,32.62,32.63c5.42-5.43,11-10.96,16.47-16.61c0.41-0.42,0.32-1.8-0.05-2.44
			c-9.97-17.4-20.03-34.75-30.02-52.13c-0.65-1.13-1.39-1.51-2.66-1.5c-14.76,0.04-29.51,0.03-44.27,0.02
			c-4.11,0-7.59,1.46-10.49,4.34c-5.73,5.71-11.48,11.41-17.13,17.19c-0.95,0.97-1.75,2.29-2.12,3.59c-0.9,3.16,0.54,6.3,3.3,7.88
			c2.81,1.61,6.26,1.24,8.7-1.15c4.87-4.77,9.65-9.63,14.48-14.44c2.92-2.91,5.09-2.9,8.07,0.06c1.91,1.9,3.81,3.81,5.72,5.72
			C138.84,86.5,142.32,89.99,145.9,93.57z M35.1,120.72c0.58-0.61,1.35-1.18,1.8-1.94c10.34-17.85,20.64-35.73,30.98-53.59
			c0.97-1.68,0.67-2.71-0.98-3.64c-4.75-2.68-9.48-5.41-14.17-8.2c-1.72-1.02-2.82-0.75-3.83,1c-10.28,17.89-20.6,35.76-30.94,53.61
			c-0.98,1.69-0.64,2.71,1,3.64c4.82,2.72,9.59,5.52,14.39,8.27C33.78,120.14,34.27,120.33,35.1,120.72z M110.98,174.38
			c-0.16-4.01-1.48-6.25-4.19-7.46c-2.76-1.22-5.47-0.94-7.74,1.14c-2.26,2.07-4.4,4.28-6.54,6.49c-3.01,3.1-3.08,7.35-0.22,10.25
			c2.83,2.88,7.19,2.9,10.27-0.04c2.11-2.01,4.3-3.99,6.15-6.23C109.88,177.11,110.52,175.25,110.98,174.38z M87.2,149.43
			c-1.36,0.54-3,0.77-4.03,1.68c-2.85,2.52-5.63,5.18-8.1,8.08c-2.25,2.64-1.7,6.77,0.79,9.21c2.61,2.55,6.64,2.9,9.39,0.48
			c2.69-2.37,5.24-4.93,7.61-7.62c1.95-2.22,2.11-4.93,0.78-7.57C92.38,151.12,90.22,149.81,87.2,149.43z M127.49,190.92
			c-0.13-3.88-1.38-6.15-4.06-7.44c-2.85-1.37-5.6-0.98-7.93,1.13c-2.33,2.11-4.54,4.36-6.69,6.65c-2.83,3.01-2.77,7.31,0.03,10.1
			c2.78,2.77,7.13,2.81,10.11,0c2.23-2.11,4.49-4.21,6.47-6.55C126.52,193.52,127.06,191.75,127.49,190.92z M76.71,140.7
			c-0.05-2.08-1.36-4.34-4.03-5.58c-2.63-1.22-5.3-1.04-7.57,0.87c-1.76,1.49-3.41,3.14-4.92,4.89c-1.93,2.24-2.21,4.91-0.98,7.55
			c1.27,2.74,3.54,4.16,6.62,4.12C70.21,152.49,76.7,145.94,76.71,140.7z"/>
		<path d="M216.99,73.53c-2.46-0.01-4.46-1.96-4.49-4.38c-0.03-2.47,2.13-4.58,4.61-4.52c2.45,0.07,4.35,2.06,4.32,4.53
			C221.4,71.64,219.48,73.54,216.99,73.53z"/>
	</g>
	<g>
		<linearGradient id="SVGID_19_" gradientUnits="userSpaceOnUse" x1="8.2665" y1="123.3548" x2="238.4432" y2="123.3548">
			<stop  offset="0" style="stop-color:#123F69"/>
			<stop  offset="1" style="stop-color:#186198"/>
		</linearGradient>
		<path class="st21" d="M238.44,102.18c-1.23,4.14-4.07,6.74-7.83,8.71c-4.31,2.25-8.4,4.91-12.68,7.22
			c-1.61,0.87-3.45,1.64-5.24,1.76c-1.85,0.13-3,0.89-4.19,2.1c-5.1,5.17-10.26,10.29-15.39,15.43c-0.52,0.52-1,1.07-1.71,1.84
			c3.6,3.54,7.21,6.9,10.6,10.47c8.13,8.59,5.05,22.36-5.85,26.44c-3.47,1.3-7,1.36-10.51,0.33c-5.92,12.38-13.99,15.76-24.85,10.31
			c-1.99,4.91-5.21,8.65-10.39,10.35c-5.18,1.7-10.04,0.86-14.66-2.16c-2.33,5.89-7.07,9.61-11.41,13.54
			c-4.8,4.35-10.63,5.09-16.58,2.67c-5.88-2.39-9.13-7.04-9.96-13.35c-0.04-0.3-0.02-0.6-0.05-0.9c-0.02-0.22-0.06-0.44-0.14-0.91
			c-4.4-0.21-8.41-1.58-11.62-4.8c-3.16-3.18-4.65-7.07-4.83-11.68c-4.78-0.26-8.96-1.82-12.21-5.38c-3.2-3.51-4.46-7.7-4.18-12.43
			c-1.35-0.31-2.6-0.51-3.8-0.87c-7.14-2.14-11.71-8.69-11.32-16.41c0.08-1.66-0.32-2.78-1.51-3.91c-3.36-3.21-6.55-6.59-9.91-9.79
			c-0.71-0.67-1.87-0.93-2.86-1.22c-2.05-0.62-4.31-0.78-6.16-1.75c-5.16-2.72-10.18-5.71-15.2-8.68
			c-5.65-3.33-7.36-9.42-4.11-15.08c10.5-18.3,21.06-36.57,31.65-54.81c3.21-5.52,9.37-7.14,14.94-4.02
			c5.16,2.89,10.25,5.89,15.36,8.87c2.77,1.62,3.76,2.89,5.48,6.79c3.96,0,8.01-0.15,12.04,0.04c4.25,0.21,8.47,0.79,12.72,1.1
			c0.77,0.06,1.9-0.17,2.33-0.7c7.04-8.64,16.24-11.07,27.03-10.58c11.96,0.54,23.96,0.1,35.95,0.15c1.47,0.01,2.33-0.29,3.16-1.73
			c0.97-1.68,2.44-3.3,4.07-4.32c5.14-3.21,10.43-6.18,15.72-9.13c5.46-3.04,11.56-1.4,14.8,3.94c1.86,3.07,3.64,6.19,5.39,9.33
			c1.43,2.57,0.85,5.16-1.34,6.47c-2.28,1.37-4.89,0.58-6.46-2.05c-1.69-2.83-3.35-5.67-4.93-8.56c-0.93-1.69-2.04-1.95-3.67-0.99
			c-4.77,2.81-9.57,5.58-14.38,8.31c-1.57,0.89-1.86,1.91-0.94,3.49c10.39,17.93,20.75,35.88,31.09,53.84
			c0.89,1.55,1.91,1.9,3.48,0.97c4.84-2.84,9.7-5.64,14.58-8.42c1.59-0.91,1.77-1.98,0.84-3.51c-1.81-3.01-3.55-6.07-5.27-9.14
			c-1.54-2.75-0.98-5.28,1.38-6.62c2.32-1.32,4.86-0.52,6.39,2.2c2.44,4.36,4.77,8.79,7.14,13.19
			C238.44,99.48,238.44,100.83,238.44,102.18z M120.16,173.7c5.54,0.1,9.79,2.62,13.38,6.55c2.17,2.37,4.48,4.62,6.83,6.82
			c2.16,2.02,4.75,2.46,7.51,1.42c2.71-1.02,4.18-3.11,4.52-5.92c0.32-2.67-0.95-4.72-2.79-6.55
			c-12.2-12.16-24.37-24.35-36.55-36.54c-0.48-0.48-0.97-0.94-1.39-1.46c-1.47-1.83-1.4-4.33,0.13-5.95c1.62-1.72,4.15-1.9,6.1-0.38
			c0.65,0.5,1.2,1.12,1.79,1.7c14.72,14.72,29.46,29.44,44.16,44.18c1.85,1.86,3.93,3.03,6.6,2.65c2.91-0.42,4.98-2.06,5.9-4.87
			c0.99-3.01,0.06-5.55-2.15-7.75c-12.19-12.17-24.37-24.36-36.54-36.54c-0.58-0.58-1.2-1.14-1.71-1.78
			c-1.52-1.89-1.38-4.48,0.3-6.1c1.63-1.58,4.07-1.69,5.93-0.22c0.58,0.46,1.1,1.02,1.63,1.55c13.51,13.5,27.01,27.01,40.52,40.51
			c0.69,0.69,1.38,1.39,2.18,1.93c4.32,2.95,10.33,0.34,11.05-4.77c0.4-2.84-0.74-5.03-2.73-7.01
			c-22.58-22.54-45.14-45.1-67.7-67.66c-0.5-0.5-1.03-0.97-1.64-1.53c-4.09,4.12-7.97,8.08-11.91,11.98
			c-4.2,4.16-9.3,5.72-15.04,4.44c-12.34-2.76-16.86-17.58-8.21-26.82c1.62-1.73,3.53-3.17,5.31-4.75c-0.15-0.25-0.31-0.5-0.46-0.75
			c-0.93-0.07-1.87-0.19-2.8-0.19c-4.87-0.02-9.74,0.06-14.6-0.06c-1.65-0.04-2.51,0.52-3.32,1.93
			c-9.64,16.81-19.34,33.58-29.02,50.37c-0.36,0.63-0.69,1.28-0.79,1.47c3.45,3.45,6.72,6.71,10.1,10.09
			c4.54-5.51,10.18-9.59,18.05-7.9c7.87,1.69,12,7.05,13.08,14.85c9.36-0.18,17,5.74,17.87,16.42
			C115.16,159.52,118.07,162.44,120.16,173.7z M145.9,93.57c5.05-3.36,7.69-7.85,8.03-13.7c0.18-3.07,2.02-5.08,4.61-5
			c2.62,0.08,4.47,2.2,4.36,5.22c-0.28,7.32-3.16,13.46-8.6,18.38c-0.58,0.53-1.18,1.04-1.56,1.37
			c10.95,10.95,21.74,21.75,32.62,32.63c5.42-5.43,11-10.96,16.47-16.61c0.41-0.42,0.32-1.8-0.05-2.44
			c-9.97-17.4-20.03-34.75-30.02-52.13c-0.65-1.13-1.39-1.51-2.66-1.5c-14.76,0.04-29.51,0.03-44.27,0.02
			c-4.11,0-7.59,1.46-10.49,4.34c-5.73,5.71-11.48,11.41-17.13,17.19c-0.95,0.97-1.75,2.29-2.12,3.59c-0.9,3.16,0.54,6.3,3.3,7.88
			c2.81,1.61,6.26,1.24,8.7-1.15c4.87-4.77,9.65-9.63,14.48-14.44c2.92-2.91,5.09-2.9,8.07,0.06c1.91,1.9,3.81,3.81,5.72,5.72
			C138.84,86.5,142.32,89.99,145.9,93.57z M35.1,120.72c0.58-0.61,1.35-1.18,1.8-1.94c10.34-17.85,20.64-35.73,30.98-53.59
			c0.97-1.68,0.67-2.71-0.98-3.64c-4.75-2.68-9.48-5.41-14.17-8.2c-1.72-1.02-2.82-0.75-3.83,1c-10.28,17.89-20.6,35.76-30.94,53.61
			c-0.98,1.69-0.64,2.71,1,3.64c4.82,2.72,9.59,5.52,14.39,8.27C33.78,120.14,34.27,120.33,35.1,120.72z M110.98,174.38
			c-0.16-4.01-1.48-6.25-4.19-7.46c-2.76-1.22-5.47-0.94-7.74,1.14c-2.26,2.07-4.4,4.28-6.54,6.49c-3.01,3.1-3.08,7.35-0.22,10.25
			c2.83,2.88,7.19,2.9,10.27-0.04c2.11-2.01,4.3-3.99,6.15-6.23C109.88,177.11,110.52,175.25,110.98,174.38z M87.2,149.43
			c-1.36,0.54-3,0.77-4.03,1.68c-2.85,2.52-5.63,5.18-8.1,8.08c-2.25,2.64-1.7,6.77,0.79,9.21c2.61,2.55,6.64,2.9,9.39,0.48
			c2.69-2.37,5.24-4.93,7.61-7.62c1.95-2.22,2.11-4.93,0.78-7.57C92.38,151.12,90.22,149.81,87.2,149.43z M127.49,190.92
			c-0.13-3.88-1.38-6.15-4.06-7.44c-2.85-1.37-5.6-0.98-7.93,1.13c-2.33,2.11-4.54,4.36-6.69,6.65c-2.83,3.01-2.77,7.31,0.03,10.1
			c2.78,2.77,7.13,2.81,10.11,0c2.23-2.11,4.49-4.21,6.47-6.55C126.52,193.52,127.06,191.75,127.49,190.92z M76.71,140.7
			c-0.05-2.08-1.36-4.34-4.03-5.58c-2.63-1.22-5.3-1.04-7.57,0.87c-1.76,1.49-3.41,3.14-4.92,4.89c-1.93,2.24-2.21,4.91-0.98,7.55
			c1.27,2.74,3.54,4.16,6.62,4.12C70.21,152.49,76.7,145.94,76.71,140.7z"/>
		<linearGradient id="SVGID_20_" gradientUnits="userSpaceOnUse" x1="8.2665" y1="123.3548" x2="238.4432" y2="123.3548">
			<stop  offset="0" style="stop-color:#123F69"/>
			<stop  offset="1" style="stop-color:#186198"/>
		</linearGradient>
		<path class="st22" d="M216.99,73.53c-2.46-0.01-4.46-1.96-4.49-4.38c-0.03-2.47,2.13-4.58,4.61-4.52
			c2.45,0.07,4.35,2.06,4.32,4.53C221.4,71.64,219.48,73.54,216.99,73.53z"/>
	</g>
</g>
</svg>
