<?xml version="1.0" encoding="utf-8"?>
<!-- Generator: Adobe Illustrator 25.0.0, SVG Export Plug-In . SVG Version: 6.00 Build 0)  -->
<svg version="1.1" id="Camada_1" xmlns="http://www.w3.org/2000/svg" xmlns:xlink="http://www.w3.org/1999/xlink" x="0px" y="0px"
	 viewBox="0 0 246.71 246.71" style="enable-background:new 0 0 246.71 246.71;" xml:space="preserve">
<style type="text/css">
	.st0{fill:url(#SVGID_1_);}
	.st1{fill:url(#SVGID_2_);}
	.st2{fill:url(#SVGID_3_);}
	.st3{fill:url(#SVGID_4_);}
	.st4{fill:url(#SVGID_5_);}
	.st5{fill:url(#SVGID_6_);}
	.st6{fill:#123F69;}
	.st7{fill:#186198;}
	.st8{fill:url(#SVGID_7_);}
</style>
<g>
	<g>
		<linearGradient id="SVGID_1_" gradientUnits="userSpaceOnUse" x1="51.8431" y1="123.571" x2="52.3592" y2="123.571">
			<stop  offset="0" style="stop-color:#FFFFFF"/>
			<stop  offset="1" style="stop-color:#000000"/>
		</linearGradient>
		<path class="st0" d="M211.82,245.94c-55.3,0-110.59,0-165.89,0c-0.2-0.12-0.39-0.31-0.61-0.34
			c-11.09-1.34-22.45-11.62-22.41-27.33c0.16-63.25,0.06-126.5,0.07-189.74c0-15.91,11.35-27.29,27.21-27.3
			c52.74-0.02,105.49-0.01,158.23,0c1.11,0,2.24,0.01,3.33,0.2c7.42,1.34,12.01,7.16,12.01,15.22c0.01,63.65,0,127.29,0,190.94
			c0,7.97,0.04,15.93-0.02,23.9c-0.05,6.72-4.18,12.08-10.62,13.96C212.69,245.57,212.26,245.77,211.82,245.94z M54.06,193.36
			c1.12,0,1.91,0,2.69,0c50.36,0,100.71,0,151.07,0c4.88,0,6.39-1.53,6.39-6.45c0-56.56,0-113.12,0-169.68
			c0-4.94-1.5-6.45-6.39-6.45c-50.36,0-100.71,0-151.07,0c-0.85,0-1.69,0-2.7,0c0,1.16,0,2.02,0,2.89c0,21.59,0,43.18,0,64.77
			c0,0.72,0.03,1.44-0.02,2.15c-0.18,2.74-2.16,4.72-4.72,4.74c-2.57,0.02-4.6-1.94-4.8-4.66c-0.05-0.71-0.02-1.43-0.02-2.15
			c0-21.35,0-42.7,0-64.05c0-0.9,0-1.8,0-2.77C37.32,13.55,32.56,20.17,32.56,28c-0.01,56.32-0.01,112.64,0,168.96
			c0,0.66,0.09,1.32,0.12,1.67c3.95-1.81,7.81-3.58,11.83-5.42c0-0.62,0-1.49,0-2.36c0-21.75,0-43.5,0-65.24
			c0-0.72-0.03-1.44,0.02-2.15c0.2-2.72,2.23-4.67,4.8-4.65c2.57,0.02,4.54,1.99,4.72,4.74c0.05,0.71,0.02,1.43,0.02,2.15
			c0,21.51,0,43.02,0,64.53C54.06,191.17,54.06,192.11,54.06,193.36z M194.99,202.92c-0.98,0-1.77,0-2.55,0
			c-47.3,0-94.61,0-141.91,0c-0.72,0-1.43-0.01-2.15,0.03c-8.57,0.42-15.61,7.62-15.81,16.17c-0.23,9.65,7.24,17.24,17.14,17.25
			c47.78,0.03,95.56,0.01,143.34,0.01c0.61,0,1.23-0.05,1.94-0.09C194.99,225.16,194.99,214.2,194.99,202.92z M214.21,202.51
			c-3.28,0.2-6.34,0.39-9.41,0.58c0,11.12,0,22.13,0,33.28c1.17,0,2.19,0,3.22,0c4.59-0.01,6.19-1.59,6.19-6.16
			c0.01-5.88,0-11.77,0-17.65C214.21,209.17,214.21,205.76,214.21,202.51z"/>
		<path d="M75.83,94.43c-4.16-6.92-5.16-14.1-2.47-21.64c1.54-4.3,4.19-7.82,7.7-10.75c0.62-0.52,1.23-1.53,1.19-2.28
			c-0.59-12.35,9.87-21.81,21.02-20.85c0.23,0.02,0.47-0.04,0.7-0.07c4.82-13.36,20.2-16.79,30.19-7.24
			c10.39-9.92,25.71-5.5,30,7.12c2.04,0.18,4.13,0.16,6.12,0.58c9.37,1.97,15.79,10,15.67,19.56c-0.02,1.56,0.35,2.56,1.62,3.6
			c8.93,7.3,11.37,19.85,5.96,30.03c-0.33,0.63-0.68,1.24-1.24,2.25c0.53,0.39,1.15,0.75,1.66,1.23
			c12.73,12.11,11.08,32.61-3.45,42.49c-1.15,0.78-1.67,1.57-1.79,3.01c-0.82,10.42-6.09,17.66-15.78,21.68
			c-0.72,0.3-1.52,0.93-1.82,1.61c-6.4,14.54-25.63,17.93-36.42,5.68c-0.15-0.17-0.37-0.28-0.63-0.47
			c-3.66,4.14-8.1,6.86-13.63,7.68c-9.58,1.42-18.67-3.46-22.98-12.29c-0.46-0.94-1.42-1.89-2.38-2.3
			c-9.55-4.11-14.66-11.32-15.6-21.63c-0.08-0.88-0.53-2.04-1.2-2.52c-15.53-11.14-16.91-30.62-3.03-43.78
			C75.42,94.98,75.55,94.78,75.83,94.43z M108.36,164.4c2.97,3.16,6.78,4.5,10.64,3.82c6.5-1.14,10.33-5.95,10.34-13.13
			c0.02-26.84,0.01-53.68,0-80.52c0-0.77-0.08-1.54-0.11-1.99c-2.98-0.22-5.76-0.21-8.45-0.7c-2.55-0.46-4-3.06-3.5-5.43
			c0.53-2.49,2.67-3.93,5.29-3.83c1.79,0.07,3.61-0.07,5.37-0.39c0.54-0.1,1.32-1.08,1.32-1.66c0.04-6.05,0.15-12.11-0.18-18.14
			c-0.19-3.55-3.42-6.24-7.09-6.68c-3.37-0.41-7,1.66-8.2,4.91c-0.26,0.69,0.11,1.89,0.6,2.54c1.24,1.64,2.87,2.99,4.06,4.65
			c1.9,2.68,1.44,5.56-0.89,7.15c-2.29,1.57-5.11,0.88-6.97-1.82c-2.63-3.82-6.23-5.35-10.74-4.55c-3.91,0.69-7.14,4-7.82,8.08
			C91.3,61.16,93,64.63,96.7,67.19c2.7,1.86,3.34,4.66,1.72,6.98c-1.63,2.35-4.4,2.75-7.14,0.81c-1.85-1.31-3.49-2.91-5.21-4.37
			c-4.76,4.32-5.96,11.21-3.05,17.05c0.75,1.5,1.47,2.38,3.45,1.84c2.29-0.62,4.57,0.9,5.28,3.04c0.77,2.32-0.23,4.73-2.47,5.83
			c-0.71,0.35-1.49,0.55-2.23,0.82c-7.26,2.65-12.01,9.6-11.71,17.15c0.31,7.88,5.32,14.65,12.85,16.49
			c2.91,0.71,6.13,0.44,9.18,0.22c2.98-0.21,5,0.5,5.95,2.78c1.15,2.77-0.25,5.76-3.42,6.4c-3.38,0.69-6.86,0.86-10.3,1.26
			c1.06,7.45,8.72,12.63,16.78,11.25c3.92-0.67,6.27,0.4,6.96,3.16c0.72,2.91-0.7,4.89-4.43,6.16
			C108.75,164.12,108.63,164.23,108.36,164.4z M182.23,70.73c-2.08,1.65-4.02,3.42-6.19,4.83c-1.95,1.27-4.02,0.86-5.66-0.8
			c-1.56-1.59-1.91-3.56-0.79-5.47c0.61-1.04,1.74-1.8,2.71-2.59c3.17-2.57,4.67-5.86,3.95-9.89c-0.74-4.11-3.26-6.84-7.29-8.03
			c-4.29-1.26-8.31,0.39-11.35,4.55c-1.84,2.52-4.57,3.21-6.83,1.73c-2.38-1.56-2.89-4.45-1.01-7.12c1.18-1.68,2.58-3.25,4.12-4.6
			c1.07-0.93,1.17-1.65,0.62-2.84c-1.65-3.52-5.54-5.45-9.3-4.51c-4.14,1.02-6.27,4.1-6.27,9.19c-0.01,24.05,0,48.09,0,72.14
			c0,0.76,0,1.52,0,2.59c1.1-0.46,1.81-0.78,2.53-1.07c3.95-1.6,8-2,12.17-1.06c3.24,0.73,4.86,2.92,4.28,5.77
			c-0.57,2.8-2.93,3.9-6.23,3.65c-2.37-0.18-5.03-0.04-7.16,0.88c-3.64,1.57-5.76,4.5-5.63,8.85c0.2,7-0.05,14.02,0.28,21.01
			c0.22,4.72,4.08,8.78,8.68,10.01c4.57,1.22,9.37-0.23,11.99-3.64c-0.22-0.11-0.41-0.25-0.64-0.32c-3.52-1.16-4.94-3.18-4.25-6.04
			c0.64-2.67,2.94-3.72,6.46-3.34c2.18,0.24,4.47,0.35,6.6-0.06c5.66-1.09,10.47-6.43,10.58-11.12c-3.24-0.33-6.51-0.44-9.68-1.08
			c-1.38-0.28-2.84-1.43-3.73-2.6c-1.14-1.5-0.77-3.36,0.35-4.9c1.34-1.83,3.2-1.92,5.33-1.8c3.13,0.17,6.43,0.48,9.4-0.28
			c7.54-1.92,12.5-8.76,12.69-16.6c0.19-7.76-4.63-14.47-12.34-17.18c-3.46-1.22-4.88-3.31-4.16-6.16c0.65-2.56,2.73-3.59,6.24-3.25
			c0.58,0.06,1.43-0.22,1.78-0.65C188.51,83.93,187.25,74.66,182.23,70.73z"/>
		<path d="M49.09,106.83c-2.64-0.11-4.74-2.45-4.57-5.07c0.17-2.54,2.4-4.56,4.94-4.45c2.64,0.11,4.75,2.44,4.57,5.07
			C53.87,104.91,51.62,106.93,49.09,106.83z"/>
		<path d="M116.8,97.55c-0.6,8.41-6.06,15.72-13.9,18.02c-2.83,0.83-5.38-0.3-6.26-2.78c-0.91-2.57,0.27-5,2.99-6.16
			c6.77-2.89,8.47-7.04,5.7-13.9c-1.04-2.58-0.19-5.16,2.1-6.34c2.39-1.24,5.24-0.46,6.42,2.22
			C115.11,91.47,115.84,94.56,116.8,97.55z"/>
		<path d="M147.72,79.21c0.84-2.61,1.46-5.32,2.57-7.81c1.14-2.58,3.83-3.39,6.21-2.31c2.46,1.12,3.39,3.71,2.31,6.42
			c-2.12,5.32-0.83,8.52,4.29,10.69c2.75,1.16,3.99,3.56,3.14,6.08c-0.87,2.57-3.51,3.76-6.43,2.88
			C153,93.11,148.23,86.61,147.72,79.21z"/>
	</g>
	<g>
		<linearGradient id="SVGID_2_" gradientUnits="userSpaceOnUse" x1="22.9206" y1="123.571" x2="223.789" y2="123.571">
			<stop  offset="0" style="stop-color:#123F69"/>
			<stop  offset="1" style="stop-color:#186198"/>
		</linearGradient>
		<path class="st1" d="M211.82,245.94c-55.3,0-110.59,0-165.89,0c-0.2-0.12-0.39-0.31-0.61-0.34
			c-11.09-1.34-22.45-11.62-22.41-27.33c0.16-63.25,0.06-126.5,0.07-189.74c0-15.91,11.35-27.29,27.21-27.3
			c52.74-0.02,105.49-0.01,158.23,0c1.11,0,2.24,0.01,3.33,0.2c7.42,1.34,12.01,7.16,12.01,15.22c0.01,63.65,0,127.29,0,190.94
			c0,7.97,0.04,15.93-0.02,23.9c-0.05,6.72-4.18,12.08-10.62,13.96C212.69,245.57,212.26,245.77,211.82,245.94z M54.06,193.36
			c1.12,0,1.91,0,2.69,0c50.36,0,100.71,0,151.07,0c4.88,0,6.39-1.53,6.39-6.45c0-56.56,0-113.12,0-169.68
			c0-4.94-1.5-6.45-6.39-6.45c-50.36,0-100.71,0-151.07,0c-0.85,0-1.69,0-2.7,0c0,1.16,0,2.02,0,2.89c0,21.59,0,43.18,0,64.77
			c0,0.72,0.03,1.44-0.02,2.15c-0.18,2.74-2.16,4.72-4.72,4.74c-2.57,0.02-4.6-1.94-4.8-4.66c-0.05-0.71-0.02-1.43-0.02-2.15
			c0-21.35,0-42.7,0-64.05c0-0.9,0-1.8,0-2.77C37.32,13.55,32.56,20.17,32.56,28c-0.01,56.32-0.01,112.64,0,168.96
			c0,0.66,0.09,1.32,0.12,1.67c3.95-1.81,7.81-3.58,11.83-5.42c0-0.62,0-1.49,0-2.36c0-21.75,0-43.5,0-65.24
			c0-0.72-0.03-1.44,0.02-2.15c0.2-2.72,2.23-4.67,4.8-4.65c2.57,0.02,4.54,1.99,4.72,4.74c0.05,0.71,0.02,1.43,0.02,2.15
			c0,21.51,0,43.02,0,64.53C54.06,191.17,54.06,192.11,54.06,193.36z M194.99,202.92c-0.98,0-1.77,0-2.55,0
			c-47.3,0-94.61,0-141.91,0c-0.72,0-1.43-0.01-2.15,0.03c-8.57,0.42-15.61,7.62-15.81,16.17c-0.23,9.65,7.24,17.24,17.14,17.25
			c47.78,0.03,95.56,0.01,143.34,0.01c0.61,0,1.23-0.05,1.94-0.09C194.99,225.16,194.99,214.2,194.99,202.92z M214.21,202.51
			c-3.28,0.2-6.34,0.39-9.41,0.58c0,11.12,0,22.13,0,33.28c1.17,0,2.19,0,3.22,0c4.59-0.01,6.19-1.59,6.19-6.16
			c0.01-5.88,0-11.77,0-17.65C214.21,209.17,214.21,205.76,214.21,202.51z"/>
		<linearGradient id="SVGID_3_" gradientUnits="userSpaceOnUse" x1="22.9206" y1="123.571" x2="223.789" y2="123.571">
			<stop  offset="0" style="stop-color:#123F69"/>
			<stop  offset="1" style="stop-color:#186198"/>
		</linearGradient>
		<path class="st2" d="M75.83,94.43c-4.16-6.92-5.16-14.1-2.47-21.64c1.54-4.3,4.19-7.82,7.7-10.75c0.62-0.52,1.23-1.53,1.19-2.28
			c-0.59-12.35,9.87-21.81,21.02-20.85c0.23,0.02,0.47-0.04,0.7-0.07c4.82-13.36,20.2-16.79,30.19-7.24
			c10.39-9.92,25.71-5.5,30,7.12c2.04,0.18,4.13,0.16,6.12,0.58c9.37,1.97,15.79,10,15.67,19.56c-0.02,1.56,0.35,2.56,1.62,3.6
			c8.93,7.3,11.37,19.85,5.96,30.03c-0.33,0.63-0.68,1.24-1.24,2.25c0.53,0.39,1.15,0.75,1.66,1.23
			c12.73,12.11,11.08,32.61-3.45,42.49c-1.15,0.78-1.67,1.57-1.79,3.01c-0.82,10.42-6.09,17.66-15.78,21.68
			c-0.72,0.3-1.52,0.93-1.82,1.61c-6.4,14.54-25.63,17.93-36.42,5.68c-0.15-0.17-0.37-0.28-0.63-0.47
			c-3.66,4.14-8.1,6.86-13.63,7.68c-9.58,1.42-18.67-3.46-22.98-12.29c-0.46-0.94-1.42-1.89-2.38-2.3
			c-9.55-4.11-14.66-11.32-15.6-21.63c-0.08-0.88-0.53-2.04-1.2-2.52c-15.53-11.14-16.91-30.62-3.03-43.78
			C75.42,94.98,75.55,94.78,75.83,94.43z M108.36,164.4c2.97,3.16,6.78,4.5,10.64,3.82c6.5-1.14,10.33-5.95,10.34-13.13
			c0.02-26.84,0.01-53.68,0-80.52c0-0.77-0.08-1.54-0.11-1.99c-2.98-0.22-5.76-0.21-8.45-0.7c-2.55-0.46-4-3.06-3.5-5.43
			c0.53-2.49,2.67-3.93,5.29-3.83c1.79,0.07,3.61-0.07,5.37-0.39c0.54-0.1,1.32-1.08,1.32-1.66c0.04-6.05,0.15-12.11-0.18-18.14
			c-0.19-3.55-3.42-6.24-7.09-6.68c-3.37-0.41-7,1.66-8.2,4.91c-0.26,0.69,0.11,1.89,0.6,2.54c1.24,1.64,2.87,2.99,4.06,4.65
			c1.9,2.68,1.44,5.56-0.89,7.15c-2.29,1.57-5.11,0.88-6.97-1.82c-2.63-3.82-6.23-5.35-10.74-4.55c-3.91,0.69-7.14,4-7.82,8.08
			C91.3,61.16,93,64.63,96.7,67.19c2.7,1.86,3.34,4.66,1.72,6.98c-1.63,2.35-4.4,2.75-7.14,0.81c-1.85-1.31-3.49-2.91-5.21-4.37
			c-4.76,4.32-5.96,11.21-3.05,17.05c0.75,1.5,1.47,2.38,3.45,1.84c2.29-0.62,4.57,0.9,5.28,3.04c0.77,2.32-0.23,4.73-2.47,5.83
			c-0.71,0.35-1.49,0.55-2.23,0.82c-7.26,2.65-12.01,9.6-11.71,17.15c0.31,7.88,5.32,14.65,12.85,16.49
			c2.91,0.71,6.13,0.44,9.18,0.22c2.98-0.21,5,0.5,5.95,2.78c1.15,2.77-0.25,5.76-3.42,6.4c-3.38,0.69-6.86,0.86-10.3,1.26
			c1.06,7.45,8.72,12.63,16.78,11.25c3.92-0.67,6.27,0.4,6.96,3.16c0.72,2.91-0.7,4.89-4.43,6.16
			C108.75,164.12,108.63,164.23,108.36,164.4z M182.23,70.73c-2.08,1.65-4.02,3.42-6.19,4.83c-1.95,1.27-4.02,0.86-5.66-0.8
			c-1.56-1.59-1.91-3.56-0.79-5.47c0.61-1.04,1.74-1.8,2.71-2.59c3.17-2.57,4.67-5.86,3.95-9.89c-0.74-4.11-3.26-6.84-7.29-8.03
			c-4.29-1.26-8.31,0.39-11.35,4.55c-1.84,2.52-4.57,3.21-6.83,1.73c-2.38-1.56-2.89-4.45-1.01-7.12c1.18-1.68,2.58-3.25,4.12-4.6
			c1.07-0.93,1.17-1.65,0.62-2.84c-1.65-3.52-5.54-5.45-9.3-4.51c-4.14,1.02-6.27,4.1-6.27,9.19c-0.01,24.05,0,48.09,0,72.14
			c0,0.76,0,1.52,0,2.59c1.1-0.46,1.81-0.78,2.53-1.07c3.95-1.6,8-2,12.17-1.06c3.24,0.73,4.86,2.92,4.28,5.77
			c-0.57,2.8-2.93,3.9-6.23,3.65c-2.37-0.18-5.03-0.04-7.16,0.88c-3.64,1.57-5.76,4.5-5.63,8.85c0.2,7-0.05,14.02,0.28,21.01
			c0.22,4.72,4.08,8.78,8.68,10.01c4.57,1.22,9.37-0.23,11.99-3.64c-0.22-0.11-0.41-0.25-0.64-0.32c-3.52-1.16-4.94-3.18-4.25-6.04
			c0.64-2.67,2.94-3.72,6.46-3.34c2.18,0.24,4.47,0.35,6.6-0.06c5.66-1.09,10.47-6.43,10.58-11.12c-3.24-0.33-6.51-0.44-9.68-1.08
			c-1.38-0.28-2.84-1.43-3.73-2.6c-1.14-1.5-0.77-3.36,0.35-4.9c1.34-1.83,3.2-1.92,5.33-1.8c3.13,0.17,6.43,0.48,9.4-0.28
			c7.54-1.92,12.5-8.76,12.69-16.6c0.19-7.76-4.63-14.47-12.34-17.18c-3.46-1.22-4.88-3.31-4.16-6.16c0.65-2.56,2.73-3.59,6.24-3.25
			c0.58,0.06,1.43-0.22,1.78-0.65C188.51,83.93,187.25,74.66,182.23,70.73z"/>
		<linearGradient id="SVGID_4_" gradientUnits="userSpaceOnUse" x1="22.9206" y1="123.571" x2="223.789" y2="123.571">
			<stop  offset="0" style="stop-color:#123F69"/>
			<stop  offset="1" style="stop-color:#186198"/>
		</linearGradient>
		<path class="st3" d="M49.09,106.83c-2.64-0.11-4.74-2.45-4.57-5.07c0.17-2.54,2.4-4.56,4.94-4.45c2.64,0.11,4.75,2.44,4.57,5.07
			C53.87,104.91,51.62,106.93,49.09,106.83z"/>
		<linearGradient id="SVGID_5_" gradientUnits="userSpaceOnUse" x1="22.9206" y1="123.571" x2="223.789" y2="123.571">
			<stop  offset="0" style="stop-color:#123F69"/>
			<stop  offset="1" style="stop-color:#186198"/>
		</linearGradient>
		<path class="st4" d="M116.8,97.55c-0.6,8.41-6.06,15.72-13.9,18.02c-2.83,0.83-5.38-0.3-6.26-2.78c-0.91-2.57,0.27-5,2.99-6.16
			c6.77-2.89,8.47-7.04,5.7-13.9c-1.04-2.58-0.19-5.16,2.1-6.34c2.39-1.24,5.24-0.46,6.42,2.22
			C115.11,91.47,115.84,94.56,116.8,97.55z"/>
		<linearGradient id="SVGID_6_" gradientUnits="userSpaceOnUse" x1="22.9206" y1="123.571" x2="223.789" y2="123.571">
			<stop  offset="0" style="stop-color:#123F69"/>
			<stop  offset="1" style="stop-color:#186198"/>
		</linearGradient>
		<path class="st5" d="M147.72,79.21c0.84-2.61,1.46-5.32,2.57-7.81c1.14-2.58,3.83-3.39,6.21-2.31c2.46,1.12,3.39,3.71,2.31,6.42
			c-2.12,5.32-0.83,8.52,4.29,10.69c2.75,1.16,3.99,3.56,3.14,6.08c-0.87,2.57-3.51,3.76-6.43,2.88
			C153,93.11,148.23,86.61,147.72,79.21z"/>
	</g>
</g>
<rect x="-133.68" y="0.77" class="st6" width="77.42" height="62.67"/>
<rect x="-133.68" y="74.35" class="st7" width="77.42" height="62.67"/>
<linearGradient id="SVGID_7_" gradientUnits="userSpaceOnUse" x1="-133.6774" y1="179.2627" x2="-56.2581" y2="179.2627">
	<stop  offset="0" style="stop-color:#123F69"/>
	<stop  offset="1" style="stop-color:#186198"/>
</linearGradient>
<rect x="-133.68" y="147.93" class="st8" width="77.42" height="62.67"/>
<g>
	<path d="M-289.23,377.22c1.44-4.24,2.92-8.45,4.3-12.71c4.85-15,9.65-30.02,14.49-45.03c1.96-6.05,4.74-11.71,8.25-17.02
		c1.6-2.43,3.76-3.08,5.79-1.79c1.99,1.27,2.38,3.67,0.79,6c-5.03,7.39-7.63,15.8-10.29,24.19c-4.42,13.91-8.92,27.79-13.38,41.69
		c-0.18,0.55-0.32,1.11-0.56,1.93c0.79,0.04,1.46,0.11,2.13,0.11c3.85,0.01,7.7-0.02,11.55,0.01c3.19,0.03,4.67,1.51,4.68,4.7
		c0.02,8.16,0,16.32,0.01,24.48c0.01,7.62,4.38,11.97,12.05,11.98c5.48,0.01,10.97-0.01,16.45,0.01c3.73,0.01,5.09,1.37,5.1,5.07
		c0.02,6.65,0,13.3,0,20.09c21.04,0,41.95,0,62.93,0c0.85-4.94,1.61-9.82,2.54-14.68c3.26-17.01,9.43-32.91,18.22-47.81
		c6.17-10.47,9.13-21.82,9.24-33.94c0.01-0.64-0.06-1.27-0.1-2.13c-0.8,0-1.5,0-2.2,0c-8.22,0-16.45,0.01-24.67,0
		c-4.33-0.01-5.94-2.74-3.91-6.61c1.9-3.61,1.09-7.8-1.97-10.24c-2.96-2.36-7.25-2.33-10.13,0.07c-3.04,2.54-3.78,6.63-1.84,10.27
		c1.97,3.71,0.33,6.5-3.86,6.51c-4.11,0.02-8.22,0.03-12.34,0c-7.25-0.06-12.17-4.96-12.23-12.17c-0.02-2.4,0-4.81,0-7.45
		c-6.15,0.52-11.36-1.11-15.23-5.95c-2.46-3.08-3.62-6.65-3.4-10.57c0.54-9.38,6.86-14.55,18.52-15.18c0-4.27,0-8.54,0-13.39
		c-4.11,0.9-8.08,1.56-11.91,2.68c-3.3,0.96-6.47,2.39-9.65,3.72c-2.65,1.11-4.85,0.62-5.88-1.49c-1.08-2.21-0.1-4.32,2.6-5.63
		c8.8-4.25,18.08-6.66,27.85-7.05c3.44-0.14,4.92,1.31,4.92,4.77c0.02,7.18,0.02,14.36,0,21.54c-0.01,4.09-2.86,5.79-6.42,3.88
		c-3.77-2.02-7.87-1.31-10.43,1.81c-2.41,2.93-2.41,7.18-0.01,10.12c2.56,3.13,6.63,3.85,10.42,1.83c3.57-1.9,6.41-0.21,6.44,3.85
		c0.03,4.11-0.01,8.22,0.01,12.34c0.02,3.01,1.45,4.46,4.42,4.5c2.28,0.03,4.57-0.01,6.85-0.03c0.11,0,0.23-0.09,0.52-0.22
		c-0.58-5.72,0.99-10.76,5.53-14.62c3.41-2.89,7.38-3.98,11.83-3.63c7.44,0.58,15.39,7.43,14.12,18.51c0.72,0,1.42,0,2.11,0
		c7.57,0,15.14,0,22.72,0c3.34,0,4.64,1.18,4.89,4.46c1.15,15.34-2.05,29.74-9.84,42.98c-10.2,17.33-16.54,35.93-19.23,55.81
		c-0.3,2.2-0.8,4.37-1.01,6.57c-0.2,2.07-1.1,3.55-2.9,4.53c-24.15,0-48.31,0-72.46,0c-2.18-0.97-2.95-2.66-2.91-5.01
		c0.09-6,0.03-12.01,0.03-18.01c0-0.69-0.06-1.38-0.1-2.27c-4.81,0-9.43,0.03-14.05-0.01c-11.5-0.08-19.41-8-19.45-19.48
		c-0.02-6.46,0-12.92,0-19.38c0-0.69,0-1.39,0-2.3c-0.95,0-1.65,0-2.35,0c-4.18,0-8.35-0.07-12.53,0.03
		c-2.35,0.06-4.05-0.73-5.04-2.9C-289.23,378.79-289.23,378.01-289.23,377.22z"/>
	<path d="M-159.52,299.54c-11.74,1.08-18.1-7.32-18.5-14.46c-0.59-10.36,5.76-16.35,18.5-17.25c0-2.24-0.01-4.5,0-6.76
		c0.03-7.81,4.92-12.7,12.72-12.7c15.14-0.01,30.28-0.01,45.42,0c7.82,0,12.69,4.88,12.7,12.7c0.01,15.14,0.01,30.28,0,45.42
		c0,7.79-4.91,12.69-12.72,12.72c-3.98,0.01-7.96,0.03-11.94,0c-4.07-0.03-5.77-2.87-3.87-6.43c2.02-3.8,1.32-7.84-1.81-10.42
		c-2.92-2.4-7.15-2.41-10.11-0.01c-3.11,2.52-3.84,6.66-1.83,10.42c1.91,3.57,0.23,6.41-3.85,6.44c-4.11,0.03-8.22,0.04-12.33,0
		c-7.3-0.06-12.29-5.04-12.36-12.31C-159.54,304.48-159.52,302.08-159.52,299.54z M-139.94,311.33
		c-0.89-12.03,7.48-18.26,15.08-18.59c3.99-0.18,7.62,0.97,10.73,3.51c4.73,3.87,6.35,9.02,5.85,14.87
		c0.31,0.13,0.42,0.22,0.54,0.22c2.15,0.02,4.31,0.05,6.46,0.04c3.33-0.03,4.76-1.46,4.76-4.8c0.01-15.21,0.01-30.41,0-45.62
		c0-3.33-1.43-4.74-4.79-4.75c-15.21-0.01-30.41-0.01-45.62,0c-3.31,0-4.74,1.45-4.76,4.8c-0.02,3.98,0.01,7.96-0.01,11.94
		c-0.02,4.25-2.75,5.88-6.48,3.89c-3.65-1.95-7.77-1.22-10.27,1.81c-2.44,2.96-2.43,7.34,0.03,10.28c2.51,3.01,6.6,3.7,10.28,1.75
		c3.64-1.93,6.41-0.32,6.44,3.77c0.02,4.18-0.03,8.35,0.02,12.53c0.03,2.5,1.35,4.17,3.63,4.32
		C-145.4,311.45-142.73,311.33-139.94,311.33z"/>
	<path d="M-246.95,286.8c2.08-0.05,3.87,1.65,3.95,3.74c0.09,2.22-1.6,4.02-3.8,4.05c-2.18,0.04-4.01-1.74-3.99-3.9
		C-250.78,288.64-249.01,286.85-246.95,286.8z"/>
</g>
</svg>
